<?xml version="1.0" encoding="UTF-8"?>
<svg id="b" data-name="Ebene 2" xmlns="http://www.w3.org/2000/svg" viewBox="0 0 388.44 388.44">
  <defs>
    <style>
      .c {
        fill: #fff;
      }
    </style>
  </defs>
  <path class="c" d="M49.49,242.22c-1.08-.7-1.81-2.45-1.81-3.17,0-3.22,2.5-5.72,5.72-5.72,2.5,0,4.07.82,6.48,1.72,53,24.29,61.18,99.13,79.65,101.2,13.77,1.55,12.46-82.86,42.26-148.64,18.63-41.14,85.45-112.1,88.91-117.53,4.98-7.83,6.45-14.67,6.45-17.89,0-2.49-2.19-4.97-10.39-4.97-45.39,0-124.73,85.03-250.32,102.07-.71.35-1.43.35-2.14.35-3.22,0-5.72-2.5-5.72-5.71,0-2.5,1.79-4.65,3.93-5.36,102.24-18.91,208.15-102.79,254.25-102.79,16.79,0,23.58,5.36,23.58,15,0,5-2.3,14.03-6.07,20.72-3.48,6.15-72.53,100.23-84.02,123.66-30.32,61.85-36.43,158.07-60.71,157.47-26.44-.66-46.06-80.8-90.04-110.43Z"/>
  <path class="c" d="M232.21,239.04c0-2.5,2.82-4.27,5.32-4.99,15.36-4.29,31.09-8.93,46.46-13.93-3.93-3.57-8.93-7.86-14.29-12.5-11.8-10-29.05-20.98-29.05-27.41,0-17.86,66.58-41.89,114.82-44.75,1.43,0,4.49,2.6,4.49,4.03s-2.7,1.68-4.49,1.68c-47.17,2.86-103.09,25.66-103.09,38.88,0,3.57,9.1,12.91,20.89,23.28,6.07,5,12.51,10.36,16.79,15,30.74-10.72,60.4-23.57,86.85-43.22.71-.36,1.07-.72,1.79-.72,1.43,0,1.16,1.42,1.16,2.85,0,1.07-1.37,3.09-2.09,3.44-26.44,19.65-53.4,31.57-83.77,42.29,2.08,1.81,3.42,3.46,3.42,4.89,0,6.79-34.87,17.62-54.53,17.62-5.72,0-10.68-3.23-10.68-6.44ZM290.42,227.98c0-.71-.71-1.78-1.78-3.21-16.44,5.36-32.52,10-48.96,14.65.71.35,1.79.35,3.22.35,17.51,0,47.53-10.36,47.53-11.79Z"/>
</svg>