<?xml version="1.0" encoding="UTF-8"?>
<svg id="Ebene_1" data-name="Ebene 1" xmlns="http://www.w3.org/2000/svg" viewBox="0 0 501.12 500.64">
  <defs>
    <style>
      .cls-1 {
        fill: #c98f5b;
      }
    </style>
  </defs>
  <path class="cls-1" d="M309.78,258.95l38.62-11.5c1.83-1.66,1.54-9.18,1.14-11.71-1.67-10.6-10.13-15.72-16.5-23.3-36.22-43.11-27.29-107.65,16.32-141.94,3.08-2.42,5.28-4.81,9.48-3.27,5.44,2,20.42,18.95,24.23,24.2,28.61,39.45,25.13,89.88-7.34,125.8-2.84,3.14-10.05,8.78-11.54,11.96-2.13,4.56-.02,10.35-.69,15.37,3.92-.51,7.82-1.48,11.75-1.91,13.6-1.49,30.03-2.93,43.64-3.36,3.61-.11,9.52.27,10.67,4.67,1.62,6.22-3.74,8.57-8.76,9.23-8.35,1.1-17.84.74-26.36,1.45-98.69,8.25-184.76,62.7-238.59,144.57-4.3,6.53-8.49,15.03-13.02,21.03-.67.89-4.91,5.5-5.43,5.6-2.76.55-5.05-.76-6.73-2.87-3.53-4.41-.79-7.47,1.49-11.48,6.5-11.43,14.96-22.4,21.33-33.82.23-.42.77-.75.23-1.25-20.86-8.17-42.82-12.9-65.22-14.39-4.31-.29-8.97.74-13.11-.8-7.16-2.67-5.58-12.38,2.52-13.11,5.26-.47,15.07.49,20.63.98,16.66,1.47,33.21,5.19,49.05,10.42,5.09,1.68,10.04,4.12,15.19,5.42.97-.14,2.21-1.67,2.91-2.41,7.35-7.67,15-16.44,22.06-24.46.74-.84,5.6-6.08,5.03-6.72-18.21-7.32-35.93-14.44-55.14-18.95-16.99-3.99-34.11-5.94-51.54-6.97-3.42-.2-6.67.46-10.06-.49-8.16-2.28-6.15-13.25,2.39-13.41,37.4-.71,78.17,9.65,112.27,24.39,3.73,1.61,11.13,6.63,14.8,4.89l30.91-24.71c-11.32-7.07-23.6-13.05-35.97-18.21-32.86-13.71-67.71-21.79-103.33-24.23-6.01-.41-13.36.16-19.12-.54-9.25-1.12-9.55-12.14-.8-13.64,3.31-.57,5.5.19,8.42.26,7.75.18,15.53.23,23.25.97l-.58-23.64c-34.18-30.23-40.1-77.18-8.78-112.08,2.62-2.91,8.6-9.37,11.52-11.5,5.36-3.92,8.52-.55,12.71,3.11,35.55,30.97,37.37,76.71,6.95,111.99-2.27,2.64-7.2,6.35-8.07,9.67-.79,3.03-.79,19.19-.35,22.71.06.51-.03,1.1.47,1.44l14.42,2.13c.82-3.31.01-6.25-.02-9.33-.07-5.31-.14-11.57.5-16.81.59-4.86,6.67-10.32,10.06-13.92,8.37-8.89,19.88-21.32,29.01-29.01,6.31-5.32,8.76-3.47,16.34-3.8,20.15-.88,40.7-.84,60.86,0,6.6.28,10.45-1.42,16.09,3.09,8.57,6.85,20.42,19.99,28.3,28.29,2.75,2.9,11.5,11.33,11.5,14.88v41ZM363.49,209.08c36.75-34.05,31.86-96.07-7.37-126.09-15.72,13.91-27.42,32.08-30.86,53.09-4.3,26.31,4.37,55.12,24.32,72.99v-53.47c0-.21,1.24-2.86,1.52-3.28,2.96-4.5,9.82-3.5,11.59,1.68.13.38.8,3.34.8,3.52v51.55ZM122.28,196.61c.95.24.93-.4,1.35-.81,1.13-1.11,2.59-3.24,3.55-4.6,18.46-26.13,13.08-62.98-11.77-82.76-24.2,19.86-29.84,55.85-12.14,82,1.07,1.58,2.87,4.13,4.15,5.44.46.47.63.91,1.43.73.05-13.03-.07-26.07.03-39.1.02-2.72-.48-5.68.09-8.5,1.09-5.49,9.24-7.03,12.29-1.96.19.32,1.03,2.2,1.03,2.33v47.23ZM285.81,211c.21-.84-.35-.96-.72-1.44-4.34-5.66-13.11-13.09-18.48-18.45-1.43-1.43-4.66-6.01-6.94-6.01h-58.02l-.49.95c.56.73,1.08,1.47,1.67,2.18,4.33,5.15,14.99,16.03,20.15,20.13.84.66,3.7,2.63,4.56,2.63h58.26ZM204.76,210.52l-21.27-21.07-21.41,21.07h42.68ZM215.79,224.9h-64.74v22.3l10.07,2.64v-7.91c0-.16.7-2.61.85-2.98,1.55-3.82,5.24-4.21,8.96-4.47,7.09-.49,18.38-.52,25.45,0,4.35.32,8.61,1.03,9.29,6.06,1.03,7.59-1.11,16.65.62,24.31l9.49,4.66v-44.6ZM296.36,224.9h-66.66v50.11c0,.27,1.09,1.6,1.42,1.94,1.17,1.2,16.09,9.65,17.75,10.08.54.14,1.05.33,1.63.2l44.91-22.76c.22-.26.95-1.75.95-1.93v-37.64ZM191.82,248.88h-17.26c.6,1.86.13,4.22,1.95,5.48,3.23,2.23,11.39,3.54,15.31,5.07v-10.55Z"/>
  <path class="cls-1" d="M416.62,348.29c4.4-.23,12.39-.74,13.06,5.37,1.1,10.01-11.55,7.93-17.54,8.38-40.2,3.01-76.33,14.75-109.23,37.99-10.99,7.76-20.72,16.95-31.04,25.54-6.61.84-11.21-5.54-6.68-11.47,4.15-5.44,14.3-13.54,19.91-17.97,38.55-30.52,82.42-45.22,131.51-47.83Z"/>
  <path class="cls-1" d="M269.38,338.67c6.67-1.06,10.87,6.29,6.13,11.41-3.54,3.82-12.21,8.86-16.78,12.47-17.58,13.87-32.61,29.49-46.49,47.02-2.93,3.7-5.46,8.18-8.46,11.68-3.3,3.86-6.37,7.02-11.03,2.43-2.9-2.86-2.72-5.27-1.03-8.74,2.19-4.5,8.15-11.74,11.41-15.93,15.24-19.59,34.15-38.09,54.23-52.71,2.54-1.85,9.4-7.23,12.02-7.65Z"/>
  <path class="cls-1" d="M410.87,291.7c5.18-.17,17.14-1.84,18.7,4.99,2.44,10.72-13.02,8.43-18.86,8.75-26.57,1.46-52.58,6.93-77.73,15.34-6.99-.21-9.55-8.79-3.51-12.66,2.67-1.71,10.76-3.43,14.26-4.44,22.11-6.35,44-11.2,67.14-11.98Z"/>
  <path class="cls-1" d="M299.6,320.91c7.09-.97,11.12,9.79,3.47,13.09-9.44,4.07-12.99-11.78-3.47-13.09Z"/>
  <path class="cls-1" d="M351.67,124.84c6.3-6.32,15.42,3.2,9.69,9.45-6.19,6.75-15.96-3.16-9.69-9.45Z"/>
</svg>