<?xml version="1.0" encoding="UTF-8"?>
<svg id="b" data-name="Ebene 2" xmlns="http://www.w3.org/2000/svg" viewBox="0 0 1778.48 595.28">
  <defs>
    <style>
      .c {
        stroke-width: 3px;
      }

      .c, .d, .e {
        fill: #fff;
        stroke: #fff;
        stroke-miterlimit: 10;
      }

      .d {
        stroke-width: 2px;
      }
    </style>
  </defs>
  <path class="e" d="M152.9,345.63c-1.08-.7-1.81-2.45-1.81-3.17,0-3.22,2.5-5.72,5.72-5.72,2.5,0,4.07.82,6.48,1.72,53,24.29,61.18,99.13,79.65,101.2,13.77,1.55,12.46-82.86,42.26-148.64,18.63-41.14,85.45-112.1,88.91-117.53,4.98-7.83,6.45-14.67,6.45-17.89,0-2.49-2.19-4.97-10.39-4.97-45.39,0-124.73,85.03-250.32,102.07-.71.35-1.43.35-2.14.35-3.22,0-5.72-2.5-5.72-5.71,0-2.5,1.79-4.65,3.93-5.36,102.24-18.91,208.15-102.79,254.25-102.79,16.79,0,23.58,5.36,23.58,15,0,5-2.3,14.03-6.07,20.72-3.48,6.15-72.53,100.23-84.02,123.66-30.32,61.85-36.43,158.07-60.71,157.47-26.44-.66-46.06-80.8-90.04-110.43Z"/>
  <path class="e" d="M606.9,342.45c0-2.5,2.82-4.27,5.32-4.99,15.36-4.29,31.09-8.93,46.46-13.93-3.93-3.57-8.93-7.86-14.29-12.5-11.8-10-29.05-20.98-29.05-27.41,0-17.86,66.58-41.89,114.82-44.75,1.43,0,4.49,2.6,4.49,4.03s-2.7,1.68-4.49,1.68c-47.17,2.86-103.09,25.66-103.09,38.88,0,3.57,9.1,12.91,20.89,23.28,6.07,5,12.51,10.36,16.79,15,30.74-10.72,60.4-23.57,86.85-43.22.71-.36,1.07-.72,1.79-.72,1.43,0,1.16,1.42,1.16,2.85,0,1.07-1.37,3.09-2.09,3.44-26.44,19.65-53.4,31.57-83.77,42.29,2.08,1.81,3.42,3.46,3.42,4.89,0,6.79-34.87,17.62-54.53,17.62-5.72,0-10.68-3.23-10.68-6.44ZM665.11,331.39c0-.71-.71-1.78-1.78-3.21-16.44,5.36-32.52,10-48.96,14.65.71.35,1.79.35,3.22.35,17.51,0,47.53-10.36,47.53-11.79Z"/>
  <path class="e" d="M1427.5,342.45c0-2.5,2.82-4.27,5.32-4.99,15.36-4.29,31.09-8.93,46.46-13.93-3.93-3.57-8.93-7.86-14.29-12.5-11.8-10-29.05-20.98-29.05-27.41,0-17.86,66.58-41.89,114.82-44.75,1.43,0,4.49,2.6,4.49,4.03s-2.7,1.68-4.49,1.68c-47.17,2.86-103.09,25.66-103.09,38.88,0,3.57,9.1,12.91,20.89,23.28,6.07,5,12.51,10.36,16.79,15,30.74-10.72,60.4-23.57,86.85-43.22.71-.36,1.07-.72,1.79-.72,1.43,0,1.16,1.42,1.16,2.85,0,1.07-1.37,3.09-2.09,3.44-26.44,19.65-53.4,31.57-83.77,42.29,2.08,1.81,3.42,3.46,3.42,4.89,0,6.79-34.87,17.62-54.53,17.62-5.72,0-10.68-3.23-10.68-6.44ZM1485.71,331.39c0-.71-.71-1.78-1.78-3.21-16.44,5.36-32.52,10-48.96,14.65.71.35,1.79.35,3.22.35,17.51,0,47.53-10.36,47.53-11.79Z"/>
  <path class="d" d="M316.69,332.53c2.76-39.57,45.07-77.35,90.68-80.78,1.14,0,4.77,1.7,4.77,2.86s-1.28,1.46-2.42,1.75c-41.73,3.21-82.65,33.06-83.25,67.98-.17,9.83,2.21,16.25,9.93,16.25,8.58,0,43.68-31.16,73.9-54.15l4.01-8.68c.57-1.16,1.43-1.73,2.57-1.73l4.61-.35c2.58,0,1.71,3.18,0,5.21-2,2.6-5.19,5.56-7.47,8.17l-7.15,13.88c-8.01,15.33-14.31,27.77-14.31,33.84q0,2.02,2,2.02c14.59-.29,15.54-5.15,51.02-36.1.29-.29.86-.58,1.43-.58,1.14,0,2.29,1.16,2.29,2.31,0,.58-.29,1.45-.86,1.74-35.48,30.95-40.86,42.26-57.17,42.55-4.58,0-6.58-2.89-6.58-6.65,0-7.23,10.15-25.83,18.16-41.16l.29-.58c-27.21,20.48-59.63,48.39-68.5,48.39-10.3,0-18.77-4.35-17.94-16.18Z"/>
  <path class="d" d="M425.3,347.96c-1.14-.29-2.03-.53-2.32-1.69v-.29c-.29-1.44,2.13-3.14,2.99-4.01l4.29-4.63c10.3-24.59,15.74-37.32,26.89-63.35l7.44-17.07c.29-.87.81-1.88,1.66-1.88,1.14,0,1.48,1.56,1.61,2.42.13.86.51,1.97.06,2.93-2.37,5.08-4.48,10.13-6.48,15.33-9.44,21.98-12.45,33.19-19.89,51.12,52.64-55.25,66.6-75.71,82.34-75.71,5.44,0,7.27,2.15,7.27,6.78,0,8.1-9.62,25.49-21.06,44.29-9.44,15.91-16.88,28.64-16.88,34.13q0,1.44,1.71,1.44c9.73,0,32.37-14.79,79.29-50.08.57-.29.86-.58,1.43-.58,1.14,0,2.29,1.16,2.29,2.31,0,.87-.29,1.45-.86,1.73-47.21,35.87-71.87,52.92-83.31,52.92-4,0-6.68-.7-6.68-4.17,0-6.94,9.57-24.12,19.01-40.03,11.44-19.09,17.73-31.58,17.73-38.23,0-2.31-.57-2.9-3.72-2.9-14.59,0-25.92,18.62-83.42,79.94l-2.57,6.65c-.57,1.16-4.15,2.98-5.57,2.69l-3.25-.09Z"/>
  <path class="d" d="M553.22,334.56c0-8.1,12.24-29.32,31.12-68.66l4.29-8.96c.29-.87,1.14-1.45,2-1.45,1.14,0,2.29,1.16,2.29,2.31l-.29,1.16c-1.43,3.18-2.86,6.07-4.29,8.96-18.59,39.34-27.75,58.72-27.75,65.95q0,1.73,1.43,1.73c9.73-.29,18.42-6.13,65.05-41.42.57-.29.86-.58,1.43-.58,1.14,0-1.37,3.04-1.37,4.2,0,.87-.29,1.45-.86,1.73-46.92,35.58-55.6,41.09-67.04,41.38-3.72,0-6.01-2.02-6.01-6.36ZM596.82,234.87c0-.29.39-1.35.78-2.04,5.59-9.93,21.71-18.44,22.88-19.2,1.13-.74,2.43-1.46,3.29-1.46,1.14,0,1.67.18,1.7.97.01.29-.29.64-.58.93,0,0-12.77,9.5-20.77,19.91-.53.7-1.16,1.26-2,1.45-1.08.24-5.3.61-5.3-.55Z"/>
  <path class="c" d="M761.17,381.54c-1.13-.85-1.7-1.98-1.7-3.39,0-2.54.04-5.8,2.58-5.8,1.13,0,3.91,1.56,4.76,2.41,18.92,15.25,44.34,21.17,61.29,21.17,7.63,0,11.4-2.66,13.09-4.07,13.84-13.55,38.03-52.96,60.06-98.97-15.82.28-30.79.85-43.78,1.41-16.66.85-53.66,1.98-64.96,15.53-.85,1.13-1.81,3.19-3.22,3.19-2.54,0-4.68-3.47-4.68-6.01,0-1.13.28-1.98,1.13-2.82,5.38-6.58,12.35-11.68,22.85-14.4,16.52-4.28,38.14-4,48.33-4.52,14.4-.57,31.35-1.13,48.86-1.41,16.38-34.72,31.63-71.14,41.52-100.22.56-1.69,2.38-2.7,4.26-3.29,2.46-.77,6.9-1.89,8.01.32.5,1-2.65,3.61-3.8,6.07-9.6,27.95-24.29,62.96-40.11,96.84l56.77-1.13c24.29-.28,44.23-2.11,51.3-2.39l26.38-67.91c.57-1.98,2.31-2.68,4.24-3.11,2.54-.56,7.78-2.24,8.33-.42.31,1.03-2.91,4.01-4.1,6.63l-51.4,132.13c-.57,1.98-2.26,3.11-4.24,3.11-2.54,0-6.03.07-6.03-2.47,0-.56,1.51-3.18,1.8-3.74l20.9-53.64c-9.6.28-26.55.57-46.89.85-18.64.28-40.39.85-61.29,1.13-23.16,48.56-48.3,92.88-63.27,107.56-3.67,3.11-11.02,4.8-20.05,4.8-18.08,0-46.32-6.49-66.94-23.43Z"/>
  <path class="d" d="M1209.59,338.34c0-6.78,6.83-21.74,17.61-46.02,2.1-5.08,2.89-8.19,2.89-10.45,0-3.96-2.63-4.52-10.51-5.08-8.41-.56-15.51-1.41-21.03-2.26l-3.42,3.38-27.03,25.53c-.26.28-.79.57-1.31.57-1.05,0-2.1-1.13-2.1-2.26,0-.57.26-1.41.79-1.69l27.03-25.53.79-.57c-16.03-2.82-18.14-5.93-18.14-9.03,0-7.34,19.71-17.51,25.76-17.51,2.36,0,5.78,3.67,5.78,9.88,0,3.67-1.32,8.19-4.73,13.27,4.73.57,10.78,1.13,18.14,1.7,7.89.56,14.2,1.98,14.2,9.6,0,2.82-1.05,7.06-3.42,12.14-10.78,24.56-17.08,38.68-17.08,44.33q0,1.41,1.05,1.41c5.25,0,12.88-6.77,29.7-22.3,8.15-7.34,18.4-16.66,31.54-27.95.26-.28.79-.57,1.31-.57,1.05,0,2.1,1.13,2.1,2.26,0,.85-.26,1.41-.79,1.69-13.14,11.3-23.13,20.61-31.54,27.95-16.82,15.53-25.5,23.43-32.33,23.43-2.89,0-5.26-1.69-5.26-5.93ZM1202.49,257.32c0-3.95-1.32-5.36-1.58-5.36-4.99,0-21.56,9.03-21.56,12.99,0,1.13,1.84,3.11,17.61,5.08,4.2-5.08,5.52-9.32,5.52-12.7Z"/>
  <path class="d" d="M1251.57,351.81c-1.05-.28-2.82-.64-3.14-2.03-.29-1.26,1.89-2.96,2.68-3.81l4.47-5.36c8.94-23.43,13.93-35.85,24.18-60.98l6.83-16.66c.26-.85.46-2.12,1.24-2.12,1.05,0,2.57,1.49,2.57,2.62,0,0-.02.66-.13,1.19s-4.73,11.57-6.57,16.66c-8.41,20.61-13.14,32.47-19.45,48.56,42.85-52.23,65.9-74.59,80.1-74.59,4.99,0,7.62,2.82,7.62,7.34,0,7.9-10.18,24.05-20.69,42.41-12.35,22.3-18.66,35.01-18.66,35.01,2.89,0,19.19-19.2,25.76-27.67,31.54-38.68,49.6-57.09,61.43-57.09,4.99,0,7.62,2.82,7.62,7.34,0,7.9-10.18,24.05-20.69,42.41-8.67,15.53-15.51,27.95-15.51,33.31q0,1.41,1.58,1.41c8.94,0,29.18-15.81,72.29-50.25.53-.28.79-.57,1.32-.57,1.05,0,2.1,1.13,2.1,2.26,0,.85-.26,1.41-.79,1.69-43.37,35.01-66.24,52.85-76.76,52.85-3.68,0-5.78-2.54-5.78-5.93,0-6.78,9.2-21.51,17.87-37.04,10.51-18.63,18.4-32.46,18.4-38.96,0-2.26-.52-2.83-3.42-2.83-9.99,0-25.24,16.09-56.52,54.21-6.31,8.47-25.5,30.83-30.76,30.83-7.89,0,3.68-19.82,16.82-43.25,10.51-18.63,18.4-32.46,18.4-38.96,0-2.26-.52-2.83-3.42-2.83-13.41,0-35.23,22.87-83.59,82.16l-2.63,7.34c-.53,1.13-1.73,1.51-2.89,1.41l-1.91-.09Z"/>
  <path class="d" d="M1040.2,331.84c2.76-39.57,45.07-77.35,90.68-80.78,1.14,0,4.77,1.7,4.77,2.86s-1.28,1.46-2.42,1.75c-41.73,3.21-82.65,33.06-83.25,67.98-.17,9.83,2.21,16.25,9.93,16.25,8.58,0,43.68-31.16,73.9-54.15l4.01-8.68c.57-1.16,1.43-1.73,2.57-1.73l4.61-.35c2.58,0,1.71,3.18,0,5.21-2,2.6-5.19,5.56-7.47,8.17l-7.15,13.88c-8.01,15.33-14.31,27.77-14.31,33.84q0,2.02,2,2.02c14.59-.29,13.66-8.95,49.14-39.9.29-.29.86-.58,1.43-.58,1.14,0,2.29,1.16,2.29,2.31,0,.58-.29,1.45-.86,1.74-35.48,30.95-38.98,46.05-55.29,46.34-4.58,0-6.58-2.89-6.58-6.65,0-7.23,10.15-25.83,18.16-41.16l.29-.58c-27.21,20.48-59.63,48.39-68.5,48.39-10.3,0-18.77-4.35-17.94-16.18Z"/>
</svg>