<svg width="1244" height="1352" viewBox="0 0 1244 1352" fill="none" xmlns="http://www.w3.org/2000/svg">
<g filter="url(#filter1_d_11_739)">
<path d="M1064.81 465.373C1080.92 405.256 1031.64 277.19 969.605 271.766L502.959 304.841C440.925 299.417 377.571 343.754 361.454 403.871L206.294 800.788C190.177 860.905 258.189 981.033 320.223 986.458L798.93 1028.32C860.964 1033.74 924.318 989.404 940.435 929.287L1064.81 465.373Z" fill="url(#paint0_linear_11_739)"/>
</g>
<rect width="705.706" height="705.706" rx="126" transform="matrix(-0.996195 -0.0871557 -0.258819 0.965926 1062.67 273.506)" fill="url(#paint1_linear_11_739)"/>
<rect width="672.983" height="655.062" rx="126" transform="matrix(-0.996195 -0.0871557 -0.258819 0.965926 1030.07 270.823)" fill="#FA8220"/>
<g clip-path="url(#clip0_11_739)">
<path d="M807.777 437.116L732.288 718.845L441.731 693.424L517.22 411.696L807.777 437.116ZM818.561 396.87L528.004 371.449C516.996 370.486 505.302 373.803 495.495 380.669C485.688 387.536 478.572 397.39 475.712 408.065L400.223 689.793C397.363 700.467 398.993 711.087 404.755 719.315C410.517 727.544 419.938 732.708 430.947 733.671L721.504 759.092C732.512 760.055 744.206 756.738 754.013 749.872C763.82 743.005 770.936 733.15 773.796 722.476L849.285 440.748C852.145 430.074 850.515 419.454 844.753 411.225C838.991 402.997 829.57 397.833 818.561 396.87Z" fill="url(#paint2_linear_11_739)"/>
<path d="M591.949 642.516L590.31 603.447L530.954 598.254L509.041 634.85L471.684 631.582L571.608 478.24L613.116 481.871L628.269 645.693L591.949 642.516ZM588.827 574.896C586.94 539.925 586.098 520.08 585.831 515.526C585.565 510.972 585.705 507.277 585.784 504.606C580.813 513.645 567.663 535.767 546.697 571.21L588.827 574.896Z" fill="url(#paint3_linear_11_739)"/>
<path d="M684.543 652.882C675.859 652.597 667.606 650.663 660.26 647.193C652.915 643.722 646.622 638.784 641.745 632.661C637.537 626.036 634.963 618.44 634.177 610.335C633.392 602.23 634.411 593.785 637.174 585.51C640.585 568.432 650.641 552.156 665.303 539.985C672.377 534.817 680.316 530.988 688.576 528.76C696.836 526.532 705.221 525.958 713.154 527.077C720.888 527.224 728.231 528.932 734.705 532.089C741.179 535.246 746.638 539.781 750.726 545.399C754.366 551.266 756.591 557.961 757.269 565.093C757.948 572.225 757.067 579.651 754.677 586.935L750.418 602.832L669.684 595.769C668.469 599.776 668.076 603.841 668.528 607.733C668.979 611.625 670.267 615.266 672.316 618.448C674.529 621.482 677.473 623.938 680.96 625.662C684.447 627.385 688.402 628.337 692.574 628.458C699.566 629.071 706.751 628.87 713.975 627.859C721.595 626.866 729.212 625.044 736.67 622.431L729.822 647.987C722.977 650.349 715.985 651.951 709.003 652.756C700.737 653.593 692.541 653.635 684.543 652.882ZM707.053 550.64C703.943 550.131 700.631 550.33 697.371 551.224C694.112 552.117 690.993 553.68 688.255 555.791C682.383 560.694 678.13 567.069 676.184 573.889L723.919 578.065C726.061 571.264 725.48 564.367 722.292 558.769C720.712 556.35 718.533 554.371 715.903 552.968C713.273 551.565 710.255 550.771 707.053 550.64Z" fill="url(#paint4_linear_11_739)"/>
</g>
<g clip-path="url(#clip1_11_739)">
<path d="M798.777 423.116L723.288 704.845L432.731 679.424L508.22 397.696L798.777 423.116ZM809.561 382.87L519.004 357.449C507.996 356.486 496.302 359.803 486.495 366.669C476.688 373.536 469.572 383.39 466.712 394.065L391.223 675.793C388.363 686.467 389.993 697.087 395.755 705.315C401.517 713.544 410.938 718.708 421.947 719.671L712.504 745.092C723.512 746.055 735.206 742.738 745.013 735.872C754.82 729.005 761.936 719.15 764.796 708.476L840.285 426.748C843.145 416.074 841.515 405.454 835.753 397.225C829.991 388.997 820.57 383.833 809.561 382.87Z" fill="white"/>
<path d="M582.949 628.516L581.31 589.447L521.954 584.254L500.041 620.85L462.684 617.582L562.608 464.24L604.116 467.871L619.269 631.693L582.949 628.516ZM579.827 560.896C577.94 525.925 577.098 506.08 576.831 501.526C576.565 496.972 576.705 493.277 576.784 490.606C571.813 499.645 558.663 521.767 537.697 557.21L579.827 560.896Z" fill="white"/>
<path d="M675.543 638.882C666.859 638.597 658.606 636.663 651.26 633.193C643.915 629.722 637.622 624.784 632.745 618.661C628.537 612.036 625.963 604.44 625.177 596.335C624.392 588.23 625.411 579.785 628.174 571.51C631.585 554.432 641.641 538.156 656.303 525.985C663.377 520.817 671.316 516.988 679.576 514.76C687.836 512.532 696.221 511.958 704.154 513.077C711.888 513.224 719.231 514.932 725.705 518.089C732.179 521.246 737.638 525.781 741.726 531.399C745.366 537.266 747.591 543.961 748.269 551.093C748.948 558.225 748.067 565.651 745.677 572.935L741.418 588.832L660.684 581.769C659.469 585.776 659.076 589.841 659.528 593.733C659.979 597.625 661.267 601.266 663.316 604.448C665.529 607.482 668.473 609.938 671.96 611.662C675.447 613.385 679.402 614.337 683.574 614.458C690.566 615.071 697.751 614.87 704.975 613.859C712.595 612.866 720.212 611.044 727.67 608.431L720.822 633.987C713.977 636.349 706.985 637.951 700.003 638.756C691.737 639.593 683.541 639.635 675.543 638.882ZM698.053 536.64C694.943 536.131 691.631 536.33 688.371 537.224C685.112 538.117 681.993 539.68 679.255 541.791C673.383 546.694 669.13 553.069 667.184 559.889L714.919 564.065C717.061 557.264 716.48 550.367 713.292 544.769C711.712 542.35 709.533 540.371 706.903 538.968C704.273 537.565 701.255 536.771 698.053 536.64Z" fill="white"/>
</g>
<defs>
<filter id="filter1_d_11_739" x="44.8926" y="271.766" width="1064" height="985" filterUnits="userSpaceOnUse" color-interpolation-filters="sRGB">
<feFlood flood-opacity="0" result="BackgroundImageFix"/>
<feColorMatrix in="SourceAlpha" type="matrix" values="0 0 0 0 0 0 0 0 0 0 0 0 0 0 0 0 0 0 127 0" result="hardAlpha"/>
<feOffset dx="-59" dy="128"/>
<feGaussianBlur stdDeviation="50"/>
<feComposite in2="hardAlpha" operator="out"/>
<feColorMatrix type="matrix" values="0 0 0 0 0.497127 0 0 0 0 0.448822 0 0 0 0 0.448822 0 0 0 0.22 0"/>
<feBlend mode="normal" in2="BackgroundImageFix" result="effect1_dropShadow_11_739"/>
<feBlend mode="normal" in="SourceGraphic" in2="effect1_dropShadow_11_739" result="shape"/>
</filter>
<linearGradient id="paint0_linear_11_739" x1="174.527" y1="557.071" x2="1083.87" y2="924.363" gradientUnits="userSpaceOnUse">
<stop stop-color="#DD7521"/>
<stop offset="1" stop-color="#773F12"/>
</linearGradient>
<linearGradient id="paint1_linear_11_739" x1="570.61" y1="848.295" x2="203.698" y2="-203.456" gradientUnits="userSpaceOnUse">
<stop stop-color="#FA8220"/>
<stop offset="1" stop-color="#8C4A15"/>
</linearGradient>
<linearGradient id="paint2_linear_11_739" x1="924.491" y1="285.95" x2="159.535" y2="673.232" gradientUnits="userSpaceOnUse">
<stop stop-color="white"/>
<stop offset="1" stop-color="#302929"/>
</linearGradient>
<linearGradient id="paint3_linear_11_739" x1="798.819" y1="277.424" x2="297.354" y2="378.551" gradientUnits="userSpaceOnUse">
<stop stop-color="white"/>
<stop offset="1" stop-color="#302929"/>
</linearGradient>
<linearGradient id="paint4_linear_11_739" x1="866.959" y1="365.823" x2="492.386" y2="429.712" gradientUnits="userSpaceOnUse">
<stop stop-color="white"/>
<stop offset="1" stop-color="#302929"/>
</linearGradient>
<clipPath id="clip0_11_739">
<rect width="500" height="500" fill="white" transform="matrix(0.996195 0.0871557 -0.258819 0.965926 440.41 302)"/>
</clipPath>
<clipPath id="clip1_11_739">
<rect width="500" height="500" fill="white" transform="matrix(0.996195 0.0871557 -0.258819 0.965926 431.41 288)"/>
</clipPath>
</defs>
</svg>
