<svg width="1244" height="1352" viewBox="0 0 1244 1352" fill="none" xmlns="http://www.w3.org/2000/svg">
<g filter="url(#filter1_d_11_739)">
<path d="M180.085 465.373C163.968 405.256 213.254 277.19 275.288 271.766L741.933 304.841C803.968 299.417 867.321 343.754 883.438 403.871L1038.6 800.788C1054.72 860.905 986.704 981.033 924.67 986.458L445.962 1028.32C383.928 1033.74 320.574 989.404 304.457 929.287L180.085 465.373Z" fill="url(#paint0_linear_11_739)"/>
</g>
<rect width="705.706" height="705.706" rx="126" transform="matrix(0.996195 -0.0871557 0.258819 0.965926 182.221 273.506)" fill="url(#paint1_linear_11_739)"/>
<rect width="672.983" height="655.062" rx="126" transform="matrix(0.996195 -0.0871557 0.258819 0.965926 214.82 270.823)" fill="#FA8220"/>
<g clip-path="url(#clip0_11_739)">
<path d="M742.287 404.696L817.775 686.424L527.219 711.845L451.73 430.116L742.287 404.696ZM731.502 364.449L440.946 389.87C429.937 390.833 420.515 395.997 414.754 404.225C408.992 412.454 407.361 423.074 410.222 433.748L485.711 715.476C488.571 726.15 495.687 736.005 505.493 742.872C515.3 749.738 526.994 753.055 538.003 752.092L828.56 726.671C839.568 725.708 848.99 720.544 854.752 712.315C860.513 704.087 862.144 693.467 859.284 682.793L783.795 401.065C780.935 390.39 773.818 380.536 764.012 373.669C754.205 366.803 742.511 363.486 731.502 364.449Z" fill="url(#paint2_linear_11_739)"/>
<path d="M643.899 637.586L621.879 600.587L562.522 605.78L560.775 644.446L523.418 647.714L538.471 484.313L579.979 480.682L680.219 634.408L643.899 637.586ZM605.513 573.598C585.401 540.551 574.206 521.759 571.567 517.459C568.928 513.159 567.127 509.61 565.804 507.048C565.793 516.523 564.83 539.88 563.382 577.284L605.513 573.598Z" fill="url(#paint3_linear_11_739)"/>
<path d="M737.678 631.646C729.242 632.859 720.355 632.425 711.529 630.369C702.703 628.314 694.112 624.677 686.252 619.669C678.769 614.067 672.335 607.259 667.341 599.66C662.348 592.061 658.898 583.828 657.202 575.46C651.514 558.581 652.587 541.332 660.204 527.211C664.248 521.07 669.819 516.059 676.533 512.521C683.248 508.983 690.948 507.002 699.104 506.713C706.561 505.531 714.462 505.905 722.292 507.811C730.122 509.716 737.706 513.11 744.549 517.772C751.094 522.748 756.723 528.756 761.105 535.445C765.487 542.135 768.534 549.371 770.068 556.73L774.328 572.627L693.595 579.69C694.533 583.721 696.287 587.668 698.756 591.304C701.224 594.94 704.359 598.194 707.981 600.88C711.681 603.397 715.776 605.237 720.006 606.286C724.236 607.334 728.509 607.566 732.552 606.969C739.545 606.358 746.296 604.938 752.659 602.738C759.41 600.487 765.724 597.447 771.472 593.678L778.32 619.235C773.025 622.659 767.192 625.382 760.952 627.345C753.503 629.556 745.704 630.997 737.678 631.646ZM705.621 530.239C702.387 530.285 699.331 531.042 696.688 532.452C694.046 533.862 691.888 535.886 690.382 538.369C687.345 544.051 686.626 550.861 688.34 557.701L736.074 553.525C734.557 546.669 730.391 540.187 724.418 535.391C721.644 533.353 718.529 531.837 715.284 530.948C712.04 530.059 708.744 529.817 705.621 530.239Z" fill="url(#paint4_linear_11_739)"/>
</g>
<g clip-path="url(#clip1_11_739)">
<path d="M754.287 390.696L829.775 672.424L539.219 697.845L463.73 416.116L754.287 390.696ZM743.502 350.449L452.946 375.87C441.937 376.833 432.515 381.997 426.754 390.225C420.992 398.454 419.361 409.074 422.222 419.748L497.711 701.476C500.571 712.15 507.687 722.005 517.493 728.872C527.3 735.738 538.994 739.055 550.003 738.092L840.56 712.671C851.568 711.708 860.99 706.544 866.752 698.315C872.513 690.087 874.144 679.467 871.284 668.793L795.795 387.065C792.935 376.39 785.818 366.536 776.012 359.669C766.205 352.803 754.511 349.486 743.502 350.449Z" fill="white"/>
<path d="M655.899 623.586L633.879 586.587L574.522 591.78L572.775 630.446L535.418 633.714L550.471 470.313L591.979 466.682L692.219 620.408L655.899 623.586ZM617.513 559.598C597.401 526.551 586.206 507.759 583.567 503.459C580.928 499.159 579.127 495.61 577.804 493.048C577.793 502.523 576.83 525.88 575.382 563.284L617.513 559.598Z" fill="white"/>
<path d="M749.678 617.646C741.242 618.859 732.355 618.425 723.529 616.369C714.703 614.314 706.112 610.677 698.252 605.669C690.769 600.067 684.335 593.259 679.341 585.66C674.348 578.061 670.898 569.828 669.202 561.46C663.514 544.581 664.587 527.332 672.204 513.211C676.248 507.07 681.819 502.059 688.533 498.521C695.248 494.983 702.948 493.002 711.104 492.713C718.561 491.531 726.462 491.905 734.292 493.811C742.122 495.716 749.706 499.11 756.549 503.772C763.094 508.748 768.723 514.756 773.105 521.445C777.487 528.135 780.534 535.371 782.068 542.73L786.328 558.627L705.595 565.69C706.533 569.721 708.287 573.668 710.756 577.304C713.224 580.94 716.359 584.194 719.981 586.88C723.681 589.397 727.776 591.237 732.006 592.286C736.236 593.334 740.509 593.566 744.552 592.969C751.545 592.358 758.296 590.938 764.659 588.738C771.41 586.487 777.724 583.447 783.472 579.678L790.32 605.235C785.025 608.659 779.192 611.382 772.952 613.345C765.503 615.556 757.704 616.997 749.678 617.646ZM717.621 516.239C714.387 516.285 711.331 517.042 708.688 518.452C706.046 519.862 703.888 521.886 702.382 524.369C699.345 530.051 698.626 536.861 700.34 543.701L748.074 539.525C746.557 532.669 742.391 526.187 736.418 521.391C733.644 519.353 730.529 517.837 727.284 516.948C724.04 516.059 720.744 515.817 717.621 516.239Z" fill="white"/>
</g>
<defs>
<filter id="filter1_d_11_739" x="18" y="271.766" width="1064" height="985" filterUnits="userSpaceOnUse" color-interpolation-filters="sRGB">
<feFlood flood-opacity="0" result="BackgroundImageFix"/>
<feColorMatrix in="SourceAlpha" type="matrix" values="0 0 0 0 0 0 0 0 0 0 0 0 0 0 0 0 0 0 127 0" result="hardAlpha"/>
<feOffset dx="-59" dy="128"/>
<feGaussianBlur stdDeviation="50"/>
<feComposite in2="hardAlpha" operator="out"/>
<feColorMatrix type="matrix" values="0 0 0 0 0.497127 0 0 0 0 0.448822 0 0 0 0 0.448822 0 0 0 0.22 0"/>
<feBlend mode="normal" in2="BackgroundImageFix" result="effect1_dropShadow_11_739"/>
<feBlend mode="normal" in="SourceGraphic" in2="effect1_dropShadow_11_739" result="shape"/>
</filter>
<linearGradient id="paint0_linear_11_739" x1="1070.37" y1="557.071" x2="161.022" y2="924.363" gradientUnits="userSpaceOnUse">
<stop stop-color="#DD7521"/>
<stop offset="1" stop-color="#773F12"/>
</linearGradient>
<linearGradient id="paint1_linear_11_739" x1="570.61" y1="848.295" x2="203.698" y2="-203.456" gradientUnits="userSpaceOnUse">
<stop stop-color="#FA8220"/>
<stop offset="1" stop-color="#8C4A15"/>
</linearGradient>
<linearGradient id="paint2_linear_11_739" x1="774.5" y1="240.5" x2="302.415" y2="788.259" gradientUnits="userSpaceOnUse">
<stop stop-color="white"/>
<stop offset="1" stop-color="#302929"/>
</linearGradient>
<linearGradient id="paint3_linear_11_739" x1="650.121" y1="253.851" x2="296.846" y2="528.897" gradientUnits="userSpaceOnUse">
<stop stop-color="white"/>
<stop offset="1" stop-color="#302929"/>
</linearGradient>
<linearGradient id="paint4_linear_11_739" x1="761.427" y1="326.551" x2="492.679" y2="525.963" gradientUnits="userSpaceOnUse">
<stop stop-color="white"/>
<stop offset="1" stop-color="#302929"/>
</linearGradient>
<clipPath id="clip0_11_739">
<rect width="500" height="500" fill="white" transform="matrix(0.996195 -0.0871557 0.258819 0.965926 321 338.578)"/>
</clipPath>
<clipPath id="clip1_11_739">
<rect width="500" height="500" fill="white" transform="matrix(0.996195 -0.0871557 0.258819 0.965926 333 324.578)"/>
</clipPath>
</defs>
</svg>
