<svg width="1244" height="1352" viewBox="0 0 1244 1352" fill="none" xmlns="http://www.w3.org/2000/svg">
<g filter="url(#filter1_d_11_727)">
<path d="M1064.81 465.373C1080.92 405.256 1031.64 277.19 969.605 271.766L502.959 304.841C440.925 299.417 377.571 343.754 361.454 403.871L206.294 800.788C190.177 860.905 258.189 981.033 320.223 986.458L798.93 1028.32C860.964 1033.74 924.318 989.404 940.435 929.287L1064.81 465.373Z" fill="url(#paint0_linear_11_727)"/>
</g>
<rect width="705.706" height="705.706" rx="126" transform="matrix(-0.996195 -0.0871557 -0.258819 0.965926 1062.67 273.506)" fill="url(#paint1_linear_11_727)"/>
<rect width="672.983" height="655.062" rx="126" transform="matrix(-0.996195 -0.0871557 -0.258819 0.965926 1030.07 270.823)" fill="#FA8220"/>
<g clip-path="url(#clip0_11_727)">
<path d="M807.777 436.116L732.288 717.845L441.731 692.424L517.22 410.696L807.777 436.116ZM818.561 395.87L528.004 370.449C516.996 369.486 505.302 372.803 495.495 379.669C485.688 386.536 478.572 396.39 475.712 407.065L400.223 688.793C397.363 699.467 398.993 710.087 404.755 718.315C410.517 726.544 419.938 731.708 430.947 732.671L721.504 758.092C732.512 759.055 744.206 755.738 754.013 748.872C763.82 742.005 770.936 732.15 773.796 721.476L849.285 439.748C852.145 429.074 850.515 418.454 844.753 410.225C838.991 401.997 829.57 396.833 818.561 395.87Z" fill="url(#paint2_linear_11_727)"/>
<path d="M608.441 648.931L606.695 610.265L547.131 605.054L525.218 641.65L488.068 638.4L588.1 484.655L629.608 488.287L644.761 652.109L608.441 648.931ZM605.319 581.312C603.432 546.341 602.59 526.496 602.324 521.941C602.057 517.387 602.197 513.692 602.276 511.022C597.305 520.061 584.102 542.384 563.189 577.626L605.319 581.312Z" fill="url(#paint3_linear_11_727)"/>
<path d="M702.753 501.482C705.611 490.817 713.293 485.928 725.538 487C737.782 488.071 742.553 494.049 739.695 504.715C739.269 506.909 738.357 509.068 737.021 511.047C735.684 513.027 733.954 514.779 731.948 516.188C729.626 517.63 727.093 518.658 724.499 519.209C721.906 519.761 719.306 519.825 716.856 519.399C704.611 518.327 699.841 512.349 702.753 501.482ZM697.478 656.721L664.479 653.834L696.832 533.093L730.868 536.071L697.478 656.721Z" fill="url(#paint4_linear_11_727)"/>
</g>
<g clip-path="url(#clip1_11_727)">
<path d="M797.777 423.116L722.288 704.845L431.731 679.424L507.22 397.696L797.777 423.116ZM808.561 382.87L518.004 357.449C506.996 356.486 495.302 359.803 485.495 366.669C475.688 373.536 468.572 383.39 465.712 394.065L390.223 675.793C387.363 686.467 388.993 697.087 394.755 705.315C400.517 713.544 409.938 718.708 420.947 719.671L711.504 745.092C722.512 746.055 734.206 742.738 744.013 735.872C753.82 729.005 760.936 719.15 763.796 708.476L839.285 426.748C842.145 416.074 840.515 405.454 834.753 397.225C828.991 388.997 819.57 383.833 808.561 382.87Z" fill="white"/>
<path d="M598.441 635.931L596.695 597.265L537.131 592.054L515.218 628.65L478.068 625.4L578.1 471.655L619.608 475.287L634.761 639.109L598.441 635.931ZM595.319 568.312C593.432 533.341 592.59 513.496 592.324 508.941C592.057 504.387 592.197 500.692 592.276 498.022C587.305 507.061 574.102 529.384 553.189 564.626L595.319 568.312Z" fill="white"/>
<path d="M692.751 488.482C695.609 477.817 703.291 472.928 715.536 474C727.78 475.071 732.551 481.049 729.693 491.714C729.267 493.909 728.355 496.068 727.019 498.047C725.682 500.027 723.952 501.779 721.946 503.188C719.624 504.63 717.091 505.658 714.497 506.209C711.904 506.761 709.304 506.825 706.854 506.398C694.609 505.327 689.839 499.349 692.751 488.482ZM687.476 643.721L654.477 640.834L686.83 520.093L720.866 523.071L687.476 643.721Z" fill="white"/>
</g>
<defs>
<filter id="filter1_d_11_727" x="44.8926" y="271.766" width="1064" height="985" filterUnits="userSpaceOnUse" color-interpolation-filters="sRGB">
<feFlood flood-opacity="0" result="BackgroundImageFix"/>
<feColorMatrix in="SourceAlpha" type="matrix" values="0 0 0 0 0 0 0 0 0 0 0 0 0 0 0 0 0 0 127 0" result="hardAlpha"/>
<feOffset dx="-59" dy="128"/>
<feGaussianBlur stdDeviation="50"/>
<feComposite in2="hardAlpha" operator="out"/>
<feColorMatrix type="matrix" values="0 0 0 0 0.497127 0 0 0 0 0.448822 0 0 0 0 0.448822 0 0 0 0.22 0"/>
<feBlend mode="normal" in2="BackgroundImageFix" result="effect1_dropShadow_11_727"/>
<feBlend mode="normal" in="SourceGraphic" in2="effect1_dropShadow_11_727" result="shape"/>
</filter>
<linearGradient id="paint0_linear_11_727" x1="174.527" y1="557.071" x2="1083.87" y2="924.363" gradientUnits="userSpaceOnUse">
<stop stop-color="#DD7521"/>
<stop offset="1" stop-color="#773F12"/>
</linearGradient>
<linearGradient id="paint1_linear_11_727" x1="570.61" y1="848.295" x2="203.698" y2="-203.456" gradientUnits="userSpaceOnUse">
<stop stop-color="#FA8220"/>
<stop offset="1" stop-color="#8C4A15"/>
</linearGradient>
<linearGradient id="paint2_linear_11_727" x1="925.626" y1="297.205" x2="182.446" y2="615.673" gradientUnits="userSpaceOnUse">
<stop stop-color="white"/>
<stop offset="1" stop-color="#322B2B"/>
</linearGradient>
<linearGradient id="paint3_linear_11_727" x1="702.214" y1="425.514" x2="383.458" y2="552.147" gradientUnits="userSpaceOnUse">
<stop stop-color="white"/>
<stop offset="1" stop-color="#322B2B"/>
</linearGradient>
<linearGradient id="paint4_linear_11_727" x1="762.471" y1="416.988" x2="672.488" y2="406.827" gradientUnits="userSpaceOnUse">
<stop stop-color="white"/>
<stop offset="1" stop-color="#322B2B"/>
</linearGradient>
<clipPath id="clip0_11_727">
<rect width="500" height="500" fill="white" transform="matrix(0.996195 0.0871557 -0.258819 0.965926 440.41 301)"/>
</clipPath>
<clipPath id="clip1_11_727">
<rect width="500" height="500" fill="white" transform="matrix(0.996195 0.0871557 -0.258819 0.965926 430.41 288)"/>
</clipPath>
</defs>
</svg>
