<svg width="1244" height="1352" viewBox="0 0 1244 1352" fill="none" xmlns="http://www.w3.org/2000/svg">
<g filter="url(#filter1_d_11_727)">
<path d="M180.085 465.373C163.968 405.256 213.254 277.19 275.288 271.766L741.933 304.841C803.968 299.417 867.321 343.754 883.438 403.871L1038.6 800.788C1054.72 860.905 986.704 981.033 924.67 986.458L445.962 1028.32C383.928 1033.74 320.574 989.404 304.457 929.287L180.085 465.373Z" fill="url(#paint0_linear_11_727)"/>
</g>
<rect width="705.706" height="705.706" rx="126" transform="matrix(0.996195 -0.0871557 0.258819 0.965926 182.221 273.506)" fill="url(#paint1_linear_11_727)"/>
<rect width="672.983" height="655.062" rx="126" transform="matrix(0.996195 -0.0871557 0.258819 0.965926 214.82 270.823)" fill="#FA8220"/>
<g clip-path="url(#clip0_11_727)">
<path d="M742.287 404.696L817.775 686.424L527.219 711.845L451.73 430.116L742.287 404.696ZM731.502 364.449L440.946 389.87C429.937 390.833 420.515 395.997 414.754 404.225C408.992 412.454 407.361 423.074 410.222 433.748L485.711 715.476C488.571 726.15 495.687 736.005 505.493 742.872C515.3 749.738 526.994 753.055 538.003 752.092L828.56 726.671C839.568 725.708 848.99 720.544 854.752 712.315C860.513 704.087 862.144 693.467 859.284 682.793L783.795 401.065C780.935 390.39 773.818 380.536 764.012 373.669C754.205 366.803 742.511 363.486 731.502 364.449Z" fill="url(#paint2_linear_11_727)"/>
<path d="M663.518 641.842L641.605 605.246L582.041 610.457L580.295 649.123L543.145 652.373L558.09 488.569L599.598 484.938L699.838 638.664L663.518 641.842ZM625.132 577.854C605.02 544.807 593.825 526.016 591.186 521.715C588.547 517.415 586.746 513.866 585.423 511.304C585.413 520.779 584.503 544.337 583.002 581.54L625.132 577.854Z" fill="url(#paint3_linear_11_727)"/>
<path d="M676.3 485.024C673.442 474.358 678.213 468.38 690.457 467.309C702.702 466.238 710.384 471.126 713.242 481.792C713.985 483.958 714.245 486.175 714.006 488.292C713.767 490.409 713.035 492.377 711.858 494.064C710.397 495.837 708.518 497.251 706.333 498.221C704.147 499.191 701.7 499.696 699.139 499.708C686.894 500.779 679.212 495.89 676.3 485.024ZM752.553 634.052L719.554 636.939L687.202 516.199L721.239 513.221L752.553 634.052Z" fill="url(#paint4_linear_11_727)"/>
</g>
<g clip-path="url(#clip1_11_727)">
<path d="M752.287 391.696L827.775 673.424L537.219 698.845L461.73 417.116L752.287 391.696ZM741.502 351.449L450.946 376.87C439.937 377.833 430.515 382.997 424.754 391.225C418.992 399.454 417.361 410.074 420.222 420.748L495.711 702.476C498.571 713.15 505.687 723.005 515.493 729.872C525.3 736.738 536.994 740.055 548.003 739.092L838.56 713.671C849.568 712.708 858.99 707.544 864.752 699.315C870.513 691.087 872.144 680.467 869.284 669.793L793.795 388.065C790.935 377.39 783.818 367.536 774.012 360.669C764.205 353.803 752.511 350.486 741.502 351.449Z" fill="white"/>
<path d="M673.518 628.842L651.605 592.246L592.041 597.457L590.295 636.123L553.145 639.373L568.09 475.569L609.598 471.938L709.838 625.664L673.518 628.842ZM635.132 564.854C615.02 531.807 603.825 513.016 601.186 508.715C598.547 504.415 596.746 500.866 595.423 498.304C595.413 507.779 594.503 531.337 593.002 568.54L635.132 564.854Z" fill="white"/>
<path d="M686.3 472.024C683.442 461.358 688.213 455.38 700.457 454.309C712.702 453.238 720.384 458.126 723.242 468.792C723.985 470.958 724.245 473.175 724.006 475.292C723.767 477.409 723.035 479.377 721.858 481.064C720.397 482.837 718.518 484.251 716.333 485.221C714.147 486.191 711.7 486.696 709.139 486.708C696.894 487.779 689.212 482.89 686.3 472.024ZM762.553 621.052L729.554 623.939L697.202 503.199L731.239 500.221L762.553 621.052Z" fill="white"/>
</g>
<defs>
<filter id="filter1_d_11_727" x="18" y="271.766" width="1064" height="985" filterUnits="userSpaceOnUse" color-interpolation-filters="sRGB">
<feFlood flood-opacity="0" result="BackgroundImageFix"/>
<feColorMatrix in="SourceAlpha" type="matrix" values="0 0 0 0 0 0 0 0 0 0 0 0 0 0 0 0 0 0 127 0" result="hardAlpha"/>
<feOffset dx="-59" dy="128"/>
<feGaussianBlur stdDeviation="50"/>
<feComposite in2="hardAlpha" operator="out"/>
<feColorMatrix type="matrix" values="0 0 0 0 0.497127 0 0 0 0 0.448822 0 0 0 0 0.448822 0 0 0 0.22 0"/>
<feBlend mode="normal" in2="BackgroundImageFix" result="effect1_dropShadow_11_727"/>
<feBlend mode="normal" in="SourceGraphic" in2="effect1_dropShadow_11_727" result="shape"/>
</filter>
<linearGradient id="paint0_linear_11_727" x1="1070.37" y1="557.071" x2="161.022" y2="924.363" gradientUnits="userSpaceOnUse">
<stop stop-color="#DD7521"/>
<stop offset="1" stop-color="#773F12"/>
</linearGradient>
<linearGradient id="paint1_linear_11_727" x1="570.61" y1="848.295" x2="203.698" y2="-203.456" gradientUnits="userSpaceOnUse">
<stop stop-color="#FA8220"/>
<stop offset="1" stop-color="#8C4A15"/>
</linearGradient>
<linearGradient id="paint2_linear_11_727" x1="782" y1="252" x2="311.107" y2="750.469" gradientUnits="userSpaceOnUse">
<stop stop-color="white"/>
<stop offset="1" stop-color="#322B2B"/>
</linearGradient>
<linearGradient id="paint3_linear_11_727" x1="636.009" y1="412.627" x2="431.62" y2="620.805" gradientUnits="userSpaceOnUse">
<stop stop-color="white"/>
<stop offset="1" stop-color="#322B2B"/>
</linearGradient>
<linearGradient id="paint4_linear_11_727" x1="689.039" y1="394.19" x2="609.875" y2="428.009" gradientUnits="userSpaceOnUse">
<stop stop-color="white"/>
<stop offset="1" stop-color="#322B2B"/>
</linearGradient>
<clipPath id="clip0_11_727">
<rect width="500" height="500" fill="white" transform="matrix(0.996195 -0.0871557 0.258819 0.965926 321 338.578)"/>
</clipPath>
<clipPath id="clip1_11_727">
<rect width="500" height="500" fill="white" transform="matrix(0.996195 -0.0871557 0.258819 0.965926 331 325.578)"/>
</clipPath>
</defs>
</svg>
