<svg width="1244" height="1352" viewBox="0 0 1244 1352" fill="none" xmlns="http://www.w3.org/2000/svg">
<g filter="url(#filter1_d_10_335)">
<path d="M1064.81 465.373C1080.92 405.256 1031.64 277.19 969.604 271.766L502.958 304.841C440.924 299.417 377.57 343.754 361.453 403.871L206.293 800.788C190.176 860.905 258.188 981.033 320.222 986.458L798.929 1028.32C860.964 1033.74 924.317 989.404 940.434 929.287L1064.81 465.373Z" fill="url(#paint0_linear_10_335)"/>
</g>
<rect width="705.706" height="705.706" rx="126" transform="matrix(-0.996195 -0.0871557 -0.258819 0.965926 1062.67 273.506)" fill="url(#paint1_linear_10_335)"/>
<rect width="672.983" height="655.062" rx="126" transform="matrix(-0.996195 -0.0871557 -0.258819 0.965926 1030.07 270.823)" fill="#FA8220"/>
<g clip-path="url(#clip0_10_335)">
<path d="M886.425 543.343C877.937 535.903 866.403 530.898 852.887 529.716C851.333 529.58 849.783 529.494 848.237 529.458L848.442 529.459C840.986 528.824 833.528 528.834 826.123 529.413L826.922 529.367C828.886 507.042 820.628 487.452 805.321 474.574L805.052 474.368L798.961 469.724L792.479 475.921C784.643 483.724 777.662 492.994 772.274 503.083L771.971 503.703C769.078 508.822 766.611 514.773 764.944 520.994C761.337 534.455 761.987 547.344 766.07 558.527L765.976 558.237C754.036 562.15 740.786 564.124 727.548 563.563L727.331 563.544L397.723 534.707C389.098 533.969 380.305 540.113 378.036 548.453C377.776 549.358 377.485 550.444 377.195 551.529C369.594 579.894 367.611 607.523 370.578 633.463L370.468 631.829C372.703 659.098 384.487 682.377 403.409 699.053L403.803 699.37C429.02 716.547 461.207 728.133 497.744 731.33C501.203 731.632 504.649 731.851 508.113 732.005L507.624 731.978C507.925 732.005 508.276 732.035 508.627 732.066C529.878 733.925 551.17 733.782 572.304 731.801L570.162 731.946C601.609 729.126 630.957 721.697 658.802 710.306L657.397 710.83C681.587 700.761 703.376 687.978 723.121 672.613L723.383 672.403C752.29 649.069 778.204 621.147 799.212 590.092L800.44 588.127L805.051 588.53C805.961 588.643 807.022 588.769 808.091 588.863C828.573 590.655 849.273 584.491 866.425 572.994L866.383 573.023C874.236 567.775 881.119 561.166 886.528 553.548L886.783 553.173L890.379 547.536L886.425 543.343ZM430.763 528.048L474.97 531.916C477.096 532.085 479.264 530.567 479.815 528.51L490.037 490.361C490.588 488.303 489.319 486.468 487.201 486.266L442.995 482.399C440.869 482.229 438.701 483.747 438.15 485.805L427.924 523.97C427.372 526.027 428.642 527.862 430.763 528.048ZM491.643 533.374L535.816 537.239C537.937 537.424 540.122 535.908 540.678 533.835L550.9 495.686C551.451 493.628 550.181 491.793 548.064 491.591L503.858 487.724C501.719 487.537 499.531 489.069 498.975 491.143L488.753 529.292C488.214 531.367 489.504 533.187 491.643 533.374ZM553.425 538.779L597.631 542.647C599.757 542.816 601.925 541.298 602.476 539.241L612.698 501.092C613.249 499.035 611.98 497.2 609.862 496.998L565.656 493.13C563.53 492.961 561.362 494.479 560.811 496.536L550.585 534.701C550.033 536.759 551.303 538.594 553.441 538.781L553.425 538.779ZM614.505 544.123L658.661 547.986C660.799 548.173 662.967 546.656 663.539 544.584L673.761 506.435C674.317 504.361 673.031 502.524 670.892 502.337L626.736 498.474C624.614 498.288 622.43 499.805 621.874 501.878L611.648 540.044C611.097 542.101 612.366 543.936 614.488 544.122C614.488 544.122 614.488 544.122 614.505 544.123ZM506.349 478.492L550.521 482.356C552.664 482.527 554.832 481.009 555.388 478.936L565.61 440.787C566.161 438.729 564.892 436.894 562.753 436.707L518.58 432.842C516.442 432.655 514.274 434.173 513.702 436.245L503.48 474.394C502.941 476.469 504.215 478.288 506.349 478.492ZM568.13 483.897L612.336 487.764C614.463 487.934 616.635 486.4 617.186 484.342L627.408 446.193C627.959 444.136 626.69 442.301 624.551 442.114L580.395 438.25C578.274 438.065 576.089 439.581 575.533 441.655L565.312 479.804C564.773 481.879 566.03 483.696 568.164 483.9L568.13 483.897ZM629.21 489.241L673.366 493.104C675.509 493.275 677.677 491.757 678.249 489.685L688.471 451.536C689.01 449.461 687.736 447.642 685.598 447.455L641.442 443.591C639.32 443.406 637.136 444.922 636.58 446.996L626.358 485.145C625.802 487.218 627.076 489.037 629.21 489.241ZM643.916 434.358L688.072 438.221C690.211 438.408 692.399 436.875 692.955 434.802L703.181 396.637C703.72 394.562 702.447 392.743 700.308 392.556L656.152 388.692C654.03 388.507 651.846 390.023 651.29 392.097L641.064 430.262C640.513 432.319 641.782 434.155 643.904 434.34C643.904 434.34 643.904 434.34 643.92 434.342L643.916 434.358ZM676.102 549.512L720.275 553.377C722.414 553.564 724.581 552.046 725.154 549.974L735.376 511.825C735.931 509.752 734.645 507.915 732.507 507.728L688.334 503.863C686.196 503.676 684.028 505.194 683.472 507.268L673.246 545.433C672.695 547.49 673.964 549.325 676.102 549.512Z" fill="url(#paint2_linear_10_335)"/>
</g>
<g clip-path="url(#clip1_10_335)">
<path d="M881.689 529.376C873.202 521.936 861.667 516.931 848.152 515.748C846.598 515.613 845.048 515.527 843.501 515.491L843.706 515.492C836.251 514.856 828.793 514.867 821.388 515.446L822.187 515.4C824.151 493.074 815.892 473.485 800.586 460.607L800.316 460.401L794.225 455.756L787.743 461.954C779.907 469.756 772.927 479.027 767.539 489.116L767.236 489.736C764.342 494.855 761.876 500.806 760.209 507.027C756.602 520.488 757.252 533.377 761.334 544.56L761.241 544.27C749.301 548.183 736.051 550.157 722.813 549.596L722.596 549.577L392.988 520.74C384.363 520.002 375.57 526.146 373.301 534.485C373.041 535.391 372.75 536.476 372.459 537.562C364.859 565.926 362.876 593.556 365.842 619.496L365.733 617.862C367.967 645.13 379.751 668.41 398.674 685.086L399.068 685.403C424.285 702.579 456.471 714.166 493.009 717.362C496.467 717.665 499.914 717.884 503.378 718.037L502.889 718.011C503.19 718.037 503.541 718.068 503.891 718.099C525.142 719.958 546.434 719.815 567.569 717.834L565.427 717.978C596.874 715.159 626.222 707.73 654.067 696.339L652.661 696.863C676.852 686.793 698.641 674.011 718.386 658.645L718.647 658.436C747.555 635.102 773.469 607.179 794.477 576.125L795.705 574.16L800.316 574.563C801.226 574.676 802.286 574.802 803.356 574.895C823.838 576.687 844.537 570.524 861.69 559.027L861.648 559.056C869.5 553.808 876.384 547.198 881.793 539.581L882.048 539.206L885.644 533.568L881.689 529.376ZM426.028 514.081L470.234 517.948C472.36 518.118 474.528 516.6 475.079 514.542L485.301 476.393C485.853 474.336 484.583 472.501 482.466 472.299L438.26 468.432C436.134 468.262 433.966 469.78 433.415 471.837L423.188 510.003C422.637 512.06 423.906 513.895 426.028 514.081ZM486.908 519.407L531.08 523.272C533.202 523.457 535.387 521.941 535.942 519.867L546.164 481.718C546.715 479.661 545.446 477.826 543.329 477.624L499.123 473.756C496.984 473.569 494.795 475.102 494.24 477.175L484.018 515.324C483.479 517.399 484.769 519.22 486.908 519.407ZM548.689 524.812L592.895 528.68C595.021 528.849 597.189 527.331 597.741 525.274L607.963 487.125C608.514 485.068 607.244 483.232 605.127 483.031L560.921 479.163C558.795 478.994 556.627 480.512 556.076 482.569L545.849 520.734C545.298 522.791 546.567 524.627 548.706 524.814L548.689 524.812ZM609.769 530.156L653.925 534.019C656.064 534.206 658.232 532.688 658.804 530.616L669.026 492.467C669.581 490.394 668.295 488.557 666.157 488.37L622.001 484.507C619.879 484.321 617.695 485.838 617.139 487.911L606.913 526.076C606.361 528.134 607.631 529.969 609.752 530.155C609.752 530.155 609.752 530.155 609.769 530.156ZM501.613 464.524L545.786 468.389C547.929 468.56 550.097 467.042 550.652 464.968L560.874 426.819C561.426 424.762 560.156 422.927 558.018 422.74L513.845 418.875C511.707 418.688 509.539 420.206 508.966 422.278L498.744 460.427C498.206 462.502 499.479 464.321 501.613 464.524ZM563.395 469.93L607.601 473.797C609.727 473.966 611.899 472.432 612.451 470.375L622.673 432.226C623.224 430.169 621.955 428.333 619.816 428.146L575.66 424.283C573.538 424.098 571.354 425.614 570.798 427.688L560.576 465.837C560.037 467.912 561.294 469.729 563.428 469.932L563.395 469.93ZM624.475 475.273L668.631 479.136C670.774 479.307 672.942 477.789 673.514 475.717L683.736 437.568C684.275 435.493 683.001 433.674 680.863 433.487L636.707 429.624C634.585 429.438 632.4 430.955 631.845 433.028L621.623 471.177C621.067 473.251 622.341 475.07 624.475 475.273ZM639.181 420.391L683.337 424.254C685.475 424.441 687.664 422.908 688.22 420.835L698.446 382.669C698.985 380.595 697.711 378.775 695.573 378.588L651.417 374.725C649.295 374.54 647.11 376.056 646.555 378.13L636.328 416.295C635.777 418.352 637.047 420.187 639.168 420.373C639.168 420.373 639.168 420.373 639.185 420.374L639.181 420.391ZM671.367 535.545L715.54 539.41C717.678 539.597 719.846 538.079 720.418 536.007L730.64 497.858C731.196 495.784 729.91 493.948 727.771 493.761L683.599 489.896C681.46 489.709 679.292 491.227 678.737 493.3L668.51 531.465C667.959 533.523 669.229 535.358 671.367 535.545Z" fill="white"/>
</g>
<defs>
<filter id="filter1_d_10_335" x="44.8916" y="271.766" width="1064" height="985" filterUnits="userSpaceOnUse" color-interpolation-filters="sRGB">
<feFlood flood-opacity="0" result="BackgroundImageFix"/>
<feColorMatrix in="SourceAlpha" type="matrix" values="0 0 0 0 0 0 0 0 0 0 0 0 0 0 0 0 0 0 127 0" result="hardAlpha"/>
<feOffset dx="-59" dy="128"/>
<feGaussianBlur stdDeviation="50"/>
<feComposite in2="hardAlpha" operator="out"/>
<feColorMatrix type="matrix" values="0 0 0 0 0.497127 0 0 0 0 0.448822 0 0 0 0 0.448822 0 0 0 0.22 0"/>
<feBlend mode="normal" in2="BackgroundImageFix" result="effect1_dropShadow_10_335"/>
<feBlend mode="normal" in="SourceGraphic" in2="effect1_dropShadow_10_335" result="shape"/>
</filter>
<linearGradient id="paint0_linear_10_335" x1="174.526" y1="557.071" x2="1083.87" y2="924.363" gradientUnits="userSpaceOnUse">
<stop stop-color="#DD7521"/>
<stop offset="1" stop-color="#773F12"/>
</linearGradient>
<linearGradient id="paint1_linear_10_335" x1="570.61" y1="848.295" x2="203.698" y2="-203.456" gradientUnits="userSpaceOnUse">
<stop stop-color="#FA8220"/>
<stop offset="1" stop-color="#8C4A15"/>
</linearGradient>
<linearGradient id="paint2_linear_10_335" x1="704.905" y1="428.063" x2="332.866" y2="760.036" gradientUnits="userSpaceOnUse">
<stop stop-color="#AE9F9F"/>
<stop offset="1" stop-color="#383333"/>
</linearGradient>
<clipPath id="clip0_10_335">
<rect width="536.659" height="536.659" fill="white" transform="matrix(0.996195 0.0871557 -0.258819 0.965926 431.897 281.967)"/>
</clipPath>
<clipPath id="clip1_10_335">
<rect width="536.659" height="536.659" fill="white" transform="matrix(0.996195 0.0871557 -0.258819 0.965926 427.162 268)"/>
</clipPath>
</defs>
</svg>
