<svg width="1244" height="1352" viewBox="0 0 1244 1352" fill="none" xmlns="http://www.w3.org/2000/svg">
<g filter="url(#filter1_d_10_335)">
<path d="M180.085 465.373C163.968 405.256 213.254 277.19 275.288 271.766L741.933 304.841C803.968 299.417 867.321 343.754 883.438 403.871L1038.6 800.788C1054.72 860.905 986.704 981.033 924.67 986.458L445.962 1028.32C383.928 1033.74 320.574 989.404 304.457 929.287L180.085 465.373Z" fill="url(#paint0_linear_10_335)"/>
</g>
<rect width="705.706" height="705.706" rx="126" transform="matrix(0.996195 -0.0871557 0.258819 0.965926 182.221 273.506)" fill="url(#paint1_linear_10_335)"/>
<rect width="672.983" height="655.062" rx="126" transform="matrix(0.996195 -0.0871557 0.258819 0.965926 214.819 270.823)" fill="#FA8220"/>
<g clip-path="url(#clip0_10_335)">
<path d="M897.567 493.465C885.572 487.816 871.946 485.013 858.43 486.195C856.877 486.331 855.353 486.514 853.858 486.745L854.054 486.711C846.608 487.379 839.497 488.664 832.735 490.483L833.473 490.302C823.656 468.663 805.519 451.383 784.17 441.712L783.805 441.562L775.561 438.172L772.621 445.193C769.23 453.978 767.423 464.017 767.565 474.565L767.601 475.209C767.52 480.588 768.283 486.688 769.949 492.909C773.556 506.37 780.926 518.557 790.677 528.53L790.436 528.27C781.091 534.044 769.482 538.193 756.557 539.921L756.34 539.94L426.732 568.777C418.115 569.547 412.942 576.913 415.144 585.259C415.37 586.167 415.661 587.253 415.952 588.338C423.552 616.703 436.127 643.405 452.541 667.65L451.581 666.109C467.991 691.747 491.425 711.946 518.213 724.623L518.754 724.857C551.81 736.936 588.589 742.488 625.127 739.292C628.585 738.989 631.988 738.608 635.374 738.163L634.894 738.222C635.195 738.195 635.546 738.165 635.896 738.134C657.147 736.275 677.389 732.498 696.518 726.994L694.55 727.498C723.08 719.432 747.193 707.325 767.798 691.695L766.731 692.435C784.541 678.692 798.639 662.769 809.433 644.732L809.573 644.488C824.938 617.28 835.044 586.206 838.829 552.983L838.971 550.898L843.582 550.494C844.51 550.446 845.588 550.385 846.657 550.292C867.14 548.5 883.663 539.08 894.01 525.176L893.985 525.212C898.73 518.861 901.837 511.378 903.01 503.185L903.056 502.783L903.536 496.789L897.567 493.465ZM454.771 556.774L498.978 552.907C501.095 552.705 502.369 550.886 501.817 548.829L491.595 510.68C491.044 508.622 488.872 507.088 486.746 507.258L442.54 511.125C440.422 511.327 439.149 513.146 439.7 515.203L449.926 553.369C450.477 555.426 452.65 556.96 454.771 556.774ZM515.651 551.448L559.824 547.583C561.945 547.398 563.236 545.577 562.68 543.504L552.458 505.355C551.907 503.298 549.735 501.763 547.609 501.933L503.403 505.8C501.264 505.987 499.978 507.824 500.534 509.898L510.756 548.047C511.328 550.119 513.512 551.635 515.651 551.448ZM577.433 546.043L621.639 542.175C623.756 541.973 625.03 540.154 624.479 538.097L614.257 499.948C613.705 497.891 611.533 496.357 609.407 496.526L565.201 500.394C563.083 500.596 561.81 502.415 562.361 504.472L572.587 542.637C573.139 544.694 575.311 546.228 577.449 546.041L577.433 546.043ZM638.513 540.699L682.669 536.836C684.807 536.649 686.081 534.83 685.542 532.755L675.32 494.606C674.764 492.532 672.575 491 670.437 491.187L626.281 495.05C624.159 495.236 622.869 497.056 623.424 499.13L633.651 537.295C634.202 539.352 636.374 540.886 638.496 540.701C638.496 540.701 638.496 540.701 638.513 540.699ZM500.945 496.565L545.118 492.701C547.252 492.497 548.526 490.678 547.97 488.605L537.748 450.456C537.197 448.399 535.025 446.864 532.886 447.052L488.713 450.916C486.575 451.103 485.301 452.922 485.84 454.997L496.062 493.146C496.634 495.218 498.802 496.736 500.945 496.565ZM562.727 491.16L606.933 487.293C609.05 487.091 610.32 485.256 609.768 483.198L599.546 445.049C598.995 442.992 596.823 441.458 594.685 441.645L550.529 445.508C548.407 445.694 547.116 447.514 547.672 449.588L557.894 487.737C558.466 489.809 560.617 491.328 562.76 491.157L562.727 491.16ZM623.807 485.816L667.963 481.953C670.097 481.75 671.371 479.931 670.832 477.856L660.61 439.707C660.037 437.635 657.87 436.117 655.731 436.304L611.575 440.167C609.453 440.353 608.163 442.173 608.719 444.247L618.94 482.396C619.496 484.469 621.664 485.987 623.807 485.816ZM609.101 430.934L653.257 427.071C655.395 426.883 656.682 425.047 656.126 422.973L645.9 384.808C645.327 382.736 643.159 381.218 641.021 381.405L596.865 385.268C594.743 385.454 593.453 387.274 594.008 389.348L604.235 427.513C604.786 429.57 606.958 431.105 609.08 430.919C609.08 430.919 609.08 430.919 609.097 430.917L609.101 430.934ZM700.11 535.31L744.283 531.445C746.422 531.258 747.695 529.439 747.156 527.364L736.934 489.215C736.379 487.142 734.19 485.609 732.051 485.796L687.879 489.661C685.74 489.848 684.467 491.667 685.022 493.74L695.248 531.906C695.8 533.963 697.972 535.497 700.11 535.31Z" fill="url(#paint2_linear_10_335)"/>
</g>
<g clip-path="url(#clip1_10_335)">
<path d="M903.832 479.498C891.837 473.849 878.211 471.046 864.695 472.228C863.141 472.364 861.617 472.547 860.123 472.777L860.319 472.744C852.872 473.412 845.762 474.697 838.999 476.515L839.737 476.335C829.921 454.696 811.783 437.416 790.435 427.745L790.07 427.595L781.826 424.204L778.886 431.226C775.495 440.011 773.688 450.05 773.83 460.598L773.865 461.242C773.785 466.62 774.547 472.721 776.214 478.941C779.821 492.403 787.19 504.59 796.941 514.563L796.7 514.302C787.356 520.077 775.747 524.226 762.821 525.954L762.604 525.973L432.996 554.81C424.38 555.58 419.207 562.946 421.408 571.292C421.635 572.2 421.926 573.286 422.216 574.371C429.817 602.736 442.392 629.438 458.805 653.683L457.845 652.142C474.256 677.78 497.69 697.978 524.477 710.655L525.019 710.89C558.075 722.969 594.854 728.521 631.392 725.324C634.85 725.022 638.253 724.641 641.639 724.196L641.159 724.254C641.459 724.228 641.81 724.197 642.161 724.167C663.412 722.307 683.653 718.53 702.782 713.027L700.814 713.531C729.345 705.464 753.458 693.358 774.063 677.728L772.996 678.468C790.806 664.724 804.903 648.802 815.698 630.765L815.838 630.521C831.203 603.313 841.309 572.239 845.094 539.015L845.236 536.93L849.847 536.527C850.775 536.479 851.853 536.418 852.922 536.324C873.404 534.532 889.928 525.112 900.275 511.209L900.25 511.244C904.994 504.894 908.102 497.411 909.275 489.217L909.321 488.815L909.801 482.822L903.832 479.498ZM461.036 542.807L505.242 538.939C507.36 538.738 508.633 536.919 508.082 534.861L497.86 496.712C497.309 494.655 495.137 493.121 493.011 493.29L448.804 497.158C446.687 497.36 445.413 499.179 445.965 501.236L456.191 539.401C456.742 541.459 458.914 542.993 461.036 542.807ZM521.916 537.481L566.088 533.616C568.21 533.431 569.5 531.61 568.945 529.537L558.723 491.388C558.172 489.33 555.999 487.796 553.873 487.966L509.667 491.833C507.529 492.02 506.243 493.857 506.798 495.93L517.02 534.079C517.593 536.151 519.777 537.668 521.916 537.481ZM583.697 532.076L627.903 528.208C630.021 528.006 631.295 526.187 630.743 524.13L620.521 485.981C619.97 483.924 617.798 482.389 615.672 482.559L571.466 486.426C569.348 486.628 568.074 488.447 568.626 490.505L578.852 528.67C579.403 530.727 581.575 532.261 583.714 532.074L583.697 532.076ZM644.777 526.732L688.933 522.869C691.072 522.682 692.345 520.862 691.806 518.788L681.585 480.639C681.029 478.565 678.84 477.032 676.702 477.219L632.546 481.083C630.424 481.268 629.133 483.089 629.689 485.162L639.915 523.327C640.467 525.385 642.639 526.919 644.76 526.733C644.76 526.733 644.76 526.733 644.777 526.732ZM507.21 482.598L551.383 478.733C553.517 478.53 554.79 476.711 554.235 474.638L544.013 436.489C543.462 434.431 541.289 432.897 539.151 433.084L494.978 436.949C492.84 437.136 491.566 438.955 492.105 441.03L502.327 479.179C502.899 481.251 505.067 482.769 507.21 482.598ZM568.991 477.193L613.198 473.325C615.315 473.124 616.584 471.288 616.033 469.231L605.811 431.082C605.26 429.025 603.088 427.491 600.949 427.678L556.793 431.541C554.671 431.726 553.381 433.547 553.937 435.62L564.159 473.769C564.731 475.841 566.882 477.361 569.025 477.19L568.991 477.193ZM630.071 471.849L674.227 467.986C676.362 467.783 677.635 465.964 677.096 463.889L666.874 425.74C666.302 423.668 664.134 422.15 661.996 422.337L617.84 426.2C615.718 426.386 614.428 428.206 614.983 430.28L625.205 468.429C625.761 470.502 627.929 472.02 630.071 471.849ZM615.366 416.966L659.522 413.103C661.66 412.916 662.946 411.079 662.391 409.006L652.164 370.841C651.592 368.769 649.424 367.251 647.286 367.438L603.13 371.301C601.008 371.487 599.717 373.307 600.273 375.381L610.499 413.546C611.051 415.603 613.223 417.137 615.345 416.952C615.345 416.952 615.345 416.952 615.361 416.95L615.366 416.966ZM706.375 521.343L750.548 517.478C752.686 517.291 753.96 515.472 753.421 513.397L743.199 475.248C742.643 473.174 740.455 471.642 738.316 471.829L694.143 475.693C692.005 475.881 690.731 477.7 691.287 479.773L701.513 517.938C702.064 519.996 704.237 521.53 706.375 521.343Z" fill="white"/>
</g>
<defs>
<filter id="filter1_d_10_335" x="18" y="271.766" width="1064" height="985" filterUnits="userSpaceOnUse" color-interpolation-filters="sRGB">
<feFlood flood-opacity="0" result="BackgroundImageFix"/>
<feColorMatrix in="SourceAlpha" type="matrix" values="0 0 0 0 0 0 0 0 0 0 0 0 0 0 0 0 0 0 127 0" result="hardAlpha"/>
<feOffset dx="-59" dy="128"/>
<feGaussianBlur stdDeviation="50"/>
<feComposite in2="hardAlpha" operator="out"/>
<feColorMatrix type="matrix" values="0 0 0 0 0.497127 0 0 0 0 0.448822 0 0 0 0 0.448822 0 0 0 0.22 0"/>
<feBlend mode="normal" in2="BackgroundImageFix" result="effect1_dropShadow_10_335"/>
<feBlend mode="normal" in="SourceGraphic" in2="effect1_dropShadow_10_335" result="shape"/>
</filter>
<linearGradient id="paint0_linear_10_335" x1="1070.37" y1="557.071" x2="161.022" y2="924.363" gradientUnits="userSpaceOnUse">
<stop stop-color="#DD7521"/>
<stop offset="1" stop-color="#773F12"/>
</linearGradient>
<linearGradient id="paint1_linear_10_335" x1="570.61" y1="848.295" x2="203.698" y2="-203.456" gradientUnits="userSpaceOnUse">
<stop stop-color="#FA8220"/>
<stop offset="1" stop-color="#8C4A15"/>
</linearGradient>
<linearGradient id="paint2_linear_10_335" x1="664" y1="414.5" x2="452.544" y2="777.215" gradientUnits="userSpaceOnUse">
<stop stop-color="#AE9F9F"/>
<stop offset="1" stop-color="#383333"/>
</linearGradient>
<clipPath id="clip0_10_335">
<rect width="536.659" height="536.659" fill="white" transform="matrix(0.996195 -0.0871557 0.258819 0.965926 327 321.773)"/>
</clipPath>
<clipPath id="clip1_10_335">
<rect width="536.659" height="536.659" fill="white" transform="matrix(0.996195 -0.0871557 0.258819 0.965926 333.265 307.806)"/>
</clipPath>
</defs>
</svg>
