<svg width="1244" height="1352" viewBox="0 0 1244 1352" fill="none" xmlns="http://www.w3.org/2000/svg">
<g filter="url(#filter1_d_11_659)">
<path d="M1064.81 465.373C1080.92 405.256 1031.64 277.19 969.604 271.766L502.958 304.841C440.924 299.417 377.57 343.754 361.453 403.871L206.293 800.788C190.176 860.905 258.188 981.033 320.222 986.458L798.929 1028.32C860.964 1033.74 924.317 989.404 940.434 929.287L1064.81 465.373Z" fill="url(#paint0_linear_11_659)"/>
</g>
<rect width="705.706" height="705.706" rx="126" transform="matrix(-0.996195 -0.0871557 -0.258819 0.965926 1062.67 273.506)" fill="url(#paint1_linear_11_659)"/>
<rect width="672.983" height="655.062" rx="126" transform="matrix(-0.996195 -0.0871557 -0.258819 0.965926 1030.07 270.823)" fill="#FA8220"/>
<g clip-path="url(#clip0_11_659)">
<path fill-rule="evenodd" clip-rule="evenodd" d="M698.165 404.398C686.168 387.262 659.885 384.963 639.465 399.262L621.905 411.557L645.99 445.952C649.657 445.363 653.387 445.204 657.106 445.53C680.031 447.535 693.786 467.18 687.83 489.408C686.864 493.013 685.438 496.465 683.631 499.71L715.119 544.678C718.786 544.09 722.516 543.931 726.235 544.256C749.16 546.262 762.915 565.906 756.959 588.134C751.003 610.363 727.591 626.756 704.667 624.75C681.742 622.744 667.987 603.1 673.943 580.871C674.909 577.265 676.335 573.815 678.141 570.57L654.058 536.174L627.888 633.842C638.431 641.886 643.293 655.622 639.301 670.519C633.345 692.748 609.934 709.14 587.009 707.135C564.084 705.129 550.329 685.485 556.285 663.256C560.277 648.359 572.109 636.083 586.38 630.21L616.226 518.824C605.684 510.779 600.822 497.042 604.814 482.145C605.78 478.54 607.206 475.088 609.012 471.843L584.929 437.448L462.786 522.974C442.365 537.273 435.536 562.757 447.535 579.891L551.341 728.143C563.339 745.278 589.622 747.577 610.042 733.279L786.722 609.567C807.142 595.268 813.97 569.784 801.973 552.649L698.165 404.398ZM617.739 368.235C658.583 339.637 711.144 344.236 735.141 378.507L838.949 526.758C862.946 561.03 849.29 611.994 808.447 640.593L631.767 764.305C590.924 792.904 538.362 788.305 514.365 754.034L410.559 605.782C386.562 571.511 400.218 520.546 441.061 491.947L617.739 368.235Z" fill="url(#paint2_linear_11_659)"/>
</g>
<g clip-path="url(#clip1_11_659)">
<path fill-rule="evenodd" clip-rule="evenodd" d="M688.165 389.398C676.168 372.262 649.885 369.963 629.465 384.262L611.905 396.557L635.99 430.952C639.657 430.363 643.387 430.204 647.106 430.53C670.031 432.535 683.786 452.18 677.83 474.408C676.864 478.013 675.438 481.465 673.631 484.71L705.119 529.678C708.786 529.09 712.516 528.931 716.235 529.256C739.16 531.262 752.915 550.906 746.959 573.134C741.003 595.363 717.591 611.756 694.667 609.75C671.742 607.744 657.987 588.1 663.943 565.871C664.909 562.265 666.335 558.815 668.141 555.57L644.058 521.174L617.888 618.842C628.431 626.886 633.293 640.622 629.301 655.519C623.345 677.748 599.934 694.14 577.009 692.135C554.084 690.129 540.329 670.485 546.285 648.256C550.277 633.359 562.109 621.083 576.38 615.21L606.226 503.824C595.684 495.779 590.822 482.042 594.814 467.145C595.78 463.54 597.206 460.088 599.012 456.843L574.929 422.448L452.786 507.974C432.365 522.273 425.536 547.757 437.535 564.891L541.341 713.143C553.339 730.278 579.622 732.577 600.042 718.279L776.722 594.567C797.142 580.268 803.97 554.784 791.973 537.649L688.165 389.398ZM607.739 353.235C648.583 324.637 701.144 329.236 725.141 363.507L828.949 511.758C852.946 546.03 839.29 596.994 798.447 625.593L621.767 749.305C580.924 777.904 528.362 773.305 504.365 739.034L400.559 590.782C376.562 556.511 390.218 505.546 431.061 476.947L607.739 353.235Z" fill="white"/>
</g>
<defs>
<filter id="filter1_d_11_659" x="44.8916" y="271.766" width="1064" height="985" filterUnits="userSpaceOnUse" color-interpolation-filters="sRGB">
<feFlood flood-opacity="0" result="BackgroundImageFix"/>
<feColorMatrix in="SourceAlpha" type="matrix" values="0 0 0 0 0 0 0 0 0 0 0 0 0 0 0 0 0 0 127 0" result="hardAlpha"/>
<feOffset dx="-59" dy="128"/>
<feGaussianBlur stdDeviation="50"/>
<feComposite in2="hardAlpha" operator="out"/>
<feColorMatrix type="matrix" values="0 0 0 0 0.497127 0 0 0 0 0.448822 0 0 0 0 0.448822 0 0 0 0.22 0"/>
<feBlend mode="normal" in2="BackgroundImageFix" result="effect1_dropShadow_11_659"/>
<feBlend mode="normal" in="SourceGraphic" in2="effect1_dropShadow_11_659" result="shape"/>
</filter>
<linearGradient id="paint0_linear_11_659" x1="174.526" y1="557.071" x2="1083.87" y2="924.363" gradientUnits="userSpaceOnUse">
<stop stop-color="#DD7521"/>
<stop offset="1" stop-color="#773F12"/>
</linearGradient>
<linearGradient id="paint1_linear_11_659" x1="570.61" y1="848.295" x2="203.698" y2="-203.456" gradientUnits="userSpaceOnUse">
<stop stop-color="#FA8220"/>
<stop offset="1" stop-color="#8C4A15"/>
</linearGradient>
<linearGradient id="paint2_linear_11_659" x1="782.078" y1="325.885" x2="381.945" y2="764.315" gradientUnits="userSpaceOnUse">
<stop stop-color="white"/>
<stop offset="1" stop-color="#4B4040"/>
</linearGradient>
<clipPath id="clip0_11_659">
<rect width="500" height="500" fill="white" transform="matrix(0.996195 0.0871557 -0.258819 0.965926 440.409 303)"/>
</clipPath>
<clipPath id="clip1_11_659">
<rect width="500" height="500" fill="white" transform="matrix(0.996195 0.0871557 -0.258819 0.965926 430.409 288)"/>
</clipPath>
</defs>
</svg>
