<svg width="1244" height="1352" viewBox="0 0 1244 1352" fill="none" xmlns="http://www.w3.org/2000/svg">
<g filter="url(#filter1_d_11_659)">
<path d="M180.085 465.373C163.968 405.256 213.254 277.19 275.288 271.766L741.933 304.841C803.968 299.417 867.321 343.754 883.438 403.871L1038.6 800.788C1054.72 860.905 986.704 981.033 924.67 986.458L445.962 1028.32C383.928 1033.74 320.574 989.404 304.457 929.287L180.085 465.373Z" fill="url(#paint0_linear_11_659)"/>
</g>
<rect width="705.706" height="705.706" rx="126" transform="matrix(0.996195 -0.0871557 0.258819 0.965926 182.221 273.506)" fill="url(#paint1_linear_11_659)"/>
<rect width="672.983" height="655.062" rx="126" transform="matrix(0.996195 -0.0871557 0.258819 0.965926 214.819 270.823)" fill="#FA8220"/>
<g clip-path="url(#clip0_11_659)">
<path fill-rule="evenodd" clip-rule="evenodd" d="M620.042 391.262C599.622 376.963 573.339 379.263 561.341 396.398L551.024 411.132L592.016 439.833C595.206 438.644 598.682 437.855 602.401 437.53C625.326 435.524 648.737 451.917 654.693 474.145C655.659 477.75 656.106 481.288 656.082 484.693L709.673 522.217C712.864 521.03 716.339 520.24 720.059 519.914C742.983 517.909 766.395 534.301 772.351 556.53C778.307 578.758 764.552 598.403 741.627 600.408C718.702 602.414 695.291 586.021 689.335 563.793C688.368 560.187 687.922 556.65 687.947 553.246L646.957 524.543L673.127 622.21C687.398 628.083 699.23 640.359 703.222 655.256C709.178 677.485 695.423 697.129 672.498 699.135C649.573 701.14 626.162 684.748 620.206 662.519C616.214 647.622 621.076 633.886 631.618 625.842L601.773 514.455C587.501 508.582 575.669 496.305 571.677 481.408C570.711 477.803 570.264 474.265 570.289 470.86L529.299 442.158L457.535 544.649C445.536 561.784 452.364 587.268 472.786 601.566L649.465 725.279C669.885 739.577 696.168 737.278 708.166 720.143L811.973 571.891C823.97 554.757 817.142 529.273 796.722 514.974L620.042 391.262ZM524.365 370.507C548.362 336.236 600.924 331.637 641.767 360.236L818.447 483.947C859.29 512.546 872.946 563.511 848.949 597.782L745.141 746.034C721.144 780.305 668.583 784.904 627.739 756.306L451.06 632.593C410.218 603.994 396.562 553.03 420.559 518.758L524.365 370.507Z" fill="url(#paint2_linear_11_659)"/>
</g>
<g clip-path="url(#clip1_11_659)">
<path fill-rule="evenodd" clip-rule="evenodd" d="M630.042 377.262C609.622 362.963 583.339 365.263 571.341 382.398L561.024 397.132L602.016 425.833C605.206 424.644 608.682 423.855 612.401 423.53C635.326 421.524 658.737 437.917 664.693 460.145C665.659 463.75 666.106 467.288 666.082 470.693L719.673 508.217C722.864 507.03 726.339 506.24 730.059 505.914C752.983 503.909 776.395 520.301 782.351 542.53C788.307 564.758 774.552 584.403 751.627 586.408C728.702 588.414 705.291 572.021 699.335 549.793C698.368 546.187 697.922 542.65 697.947 539.246L656.957 510.543L683.127 608.21C697.398 614.083 709.23 626.359 713.222 641.256C719.178 663.485 705.423 683.129 682.498 685.135C659.573 687.14 636.162 670.748 630.206 648.519C626.214 633.622 631.076 619.886 641.618 611.842L611.773 500.455C597.501 494.582 585.669 482.305 581.677 467.408C580.711 463.803 580.264 460.265 580.289 456.86L539.299 428.158L467.535 530.649C455.536 547.784 462.364 573.268 482.786 587.566L659.465 711.279C679.885 725.577 706.168 723.278 718.166 706.143L821.973 557.891C833.97 540.757 827.142 515.273 806.722 500.974L630.042 377.262ZM534.365 356.507C558.362 322.236 610.924 317.637 651.767 346.236L828.447 469.947C869.29 498.546 882.946 549.511 858.949 583.782L755.141 732.034C731.144 766.305 678.583 770.904 637.739 742.306L461.06 618.593C420.218 589.994 406.562 539.03 430.559 504.758L534.365 356.507Z" fill="white"/>
</g>
<defs>
<filter id="filter1_d_11_659" x="18" y="271.766" width="1064" height="985" filterUnits="userSpaceOnUse" color-interpolation-filters="sRGB">
<feFlood flood-opacity="0" result="BackgroundImageFix"/>
<feColorMatrix in="SourceAlpha" type="matrix" values="0 0 0 0 0 0 0 0 0 0 0 0 0 0 0 0 0 0 127 0" result="hardAlpha"/>
<feOffset dx="-59" dy="128"/>
<feGaussianBlur stdDeviation="50"/>
<feComposite in2="hardAlpha" operator="out"/>
<feColorMatrix type="matrix" values="0 0 0 0 0.497127 0 0 0 0 0.448822 0 0 0 0 0.448822 0 0 0 0.22 0"/>
<feBlend mode="normal" in2="BackgroundImageFix" result="effect1_dropShadow_11_659"/>
<feBlend mode="normal" in="SourceGraphic" in2="effect1_dropShadow_11_659" result="shape"/>
</filter>
<linearGradient id="paint0_linear_11_659" x1="1070.37" y1="557.071" x2="161.022" y2="924.363" gradientUnits="userSpaceOnUse">
<stop stop-color="#DD7521"/>
<stop offset="1" stop-color="#773F12"/>
</linearGradient>
<linearGradient id="paint1_linear_11_659" x1="570.61" y1="848.295" x2="203.698" y2="-203.456" gradientUnits="userSpaceOnUse">
<stop stop-color="#FA8220"/>
<stop offset="1" stop-color="#8C4A15"/>
</linearGradient>
<linearGradient id="paint2_linear_11_659" x1="659" y1="302" x2="437.63" y2="754.966" gradientUnits="userSpaceOnUse">
<stop stop-color="white"/>
<stop offset="1" stop-color="#4B4040"/>
</linearGradient>
<clipPath id="clip0_11_659">
<rect width="500" height="500" fill="white" transform="matrix(0.996195 -0.0871557 0.258819 0.965926 321 338.578)"/>
</clipPath>
<clipPath id="clip1_11_659">
<rect width="500" height="500" fill="white" transform="matrix(0.996195 -0.0871557 0.258819 0.965926 331 324.578)"/>
</clipPath>
</defs>
</svg>
