<svg width="1244" height="1352" viewBox="0 0 1244 1352" fill="none" xmlns="http://www.w3.org/2000/svg">
<g filter="url(#filter1_d_11_731)">
<path d="M180.085 465.373C163.968 405.256 213.254 277.19 275.288 271.766L741.933 304.841C803.968 299.417 867.321 343.754 883.438 403.871L1038.6 800.788C1054.72 860.905 986.704 981.033 924.67 986.458L445.962 1028.32C383.928 1033.74 320.574 989.404 304.457 929.287L180.085 465.373Z" fill="url(#paint0_linear_11_731)"/>
</g>
<rect width="705.706" height="705.706" rx="126" transform="matrix(0.996195 -0.0871557 0.258819 0.965926 182.221 273.506)" fill="url(#paint1_linear_11_731)"/>
<rect width="672.983" height="655.062" rx="126" transform="matrix(0.996195 -0.0871557 0.258819 0.965926 214.82 270.823)" fill="#FA8220"/>
<g clip-path="url(#clip0_11_731)">
<path d="M545.307 391.984L870.413 711.765L782.689 719.44L681.095 619.511L636.476 732.232L548.747 739.907L620.132 559.546L457.578 399.66L545.307 391.984ZM428.337 402.218L340.607 409.893L503.161 569.779L431.776 750.141L519.506 742.465L590.89 562.104L428.337 402.218ZM669.373 482.697L723.559 535.991L879.518 522.346L864.322 465.636L669.373 482.697ZM804.836 615.938L902.31 607.41L887.114 550.696L750.654 562.643L804.836 615.938Z" fill="url(#paint2_linear_11_731)"/>
</g>
<g clip-path="url(#clip1_11_731)">
<path d="M552.307 379.984L877.413 699.765L789.689 707.44L688.095 607.511L643.476 720.232L555.747 727.907L627.132 547.546L464.578 387.66L552.307 379.984ZM435.337 390.218L347.607 397.893L510.161 557.779L438.776 738.141L526.506 730.465L597.89 550.104L435.337 390.218ZM676.373 470.697L730.559 523.991L886.518 510.346L871.322 453.636L676.373 470.697ZM811.836 603.938L909.31 595.41L894.114 538.696L757.654 550.643L811.836 603.938Z" fill="white"/>
</g>
<defs>
<filter id="filter1_d_11_731" x="18" y="271.766" width="1064" height="985" filterUnits="userSpaceOnUse" color-interpolation-filters="sRGB">
<feFlood flood-opacity="0" result="BackgroundImageFix"/>
<feColorMatrix in="SourceAlpha" type="matrix" values="0 0 0 0 0 0 0 0 0 0 0 0 0 0 0 0 0 0 127 0" result="hardAlpha"/>
<feOffset dx="-59" dy="128"/>
<feGaussianBlur stdDeviation="50"/>
<feComposite in2="hardAlpha" operator="out"/>
<feColorMatrix type="matrix" values="0 0 0 0 0.497127 0 0 0 0 0.448822 0 0 0 0 0.448822 0 0 0 0.22 0"/>
<feBlend mode="normal" in2="BackgroundImageFix" result="effect1_dropShadow_11_731"/>
<feBlend mode="normal" in="SourceGraphic" in2="effect1_dropShadow_11_731" result="shape"/>
</filter>
<linearGradient id="paint0_linear_11_731" x1="1070.37" y1="557.071" x2="161.022" y2="924.363" gradientUnits="userSpaceOnUse">
<stop stop-color="#DD7521"/>
<stop offset="1" stop-color="#773F12"/>
</linearGradient>
<linearGradient id="paint1_linear_11_731" x1="570.61" y1="848.295" x2="203.698" y2="-203.456" gradientUnits="userSpaceOnUse">
<stop stop-color="#FA8220"/>
<stop offset="1" stop-color="#8C4A15"/>
</linearGradient>
<linearGradient id="paint2_linear_11_731" x1="756.5" y1="224.5" x2="307.867" y2="809.394" gradientUnits="userSpaceOnUse">
<stop stop-color="white"/>
<stop offset="1" stop-color="#2F2727"/>
</linearGradient>
<clipPath id="clip0_11_731">
<rect width="500" height="500" fill="white" transform="matrix(0.996195 -0.0871557 0.258819 0.965926 321 338.578)"/>
</clipPath>
<clipPath id="clip1_11_731">
<rect width="500" height="500" fill="white" transform="matrix(0.996195 -0.0871557 0.258819 0.965926 328 326.578)"/>
</clipPath>
</defs>
</svg>
