<svg width="1244" height="1352" viewBox="0 0 1244 1352" fill="none" xmlns="http://www.w3.org/2000/svg">
<g filter="url(#filter1_d_11_699)">
<path d="M1064.81 465.373C1080.92 405.256 1031.64 277.19 969.604 271.766L502.958 304.841C440.924 299.417 377.57 343.754 361.453 403.871L206.293 800.788C190.176 860.905 258.188 981.033 320.222 986.458L798.929 1028.32C860.964 1033.74 924.317 989.404 940.434 929.287L1064.81 465.373Z" fill="url(#paint0_linear_11_699)"/>
</g>
<rect width="705.706" height="705.706" rx="126" transform="matrix(-0.996195 -0.0871557 -0.258819 0.965926 1062.67 273.506)" fill="url(#paint1_linear_11_699)"/>
<rect width="672.983" height="655.062" rx="126" transform="matrix(-0.996195 -0.0871557 -0.258819 0.965926 1030.07 270.823)" fill="#FA8220"/>
<g clip-path="url(#clip0_11_699)">
<path d="M805.776 438.116L730.287 719.845L439.73 694.424L515.219 412.696L805.776 438.116ZM816.56 397.87L526.003 372.449C514.995 371.486 503.301 374.803 493.494 381.669C483.687 388.536 476.571 398.39 473.711 409.065L398.222 690.793C395.362 701.467 396.992 712.087 402.754 720.315C408.516 728.544 417.937 733.708 428.946 734.671L719.503 760.092C730.512 761.055 742.205 757.738 752.012 750.872C761.819 744.005 768.935 734.15 771.795 723.476L847.284 441.748C850.144 431.074 848.514 420.454 842.752 412.225C836.99 403.997 827.569 398.833 816.56 397.87Z" fill="url(#paint2_linear_11_699)"/>
<path d="M518.297 636.07L560.625 478.101L595.077 481.115L552.749 639.085L518.297 636.07Z" fill="url(#paint3_linear_11_699)"/>
<path d="M620.852 647.308C614.079 646.973 607.784 645.012 602.539 641.604C597.294 638.195 593.267 633.448 590.822 627.793C585.425 613.369 585.37 596.924 590.663 580.822C594.029 564.388 602.816 548.548 615.725 535.646C621.185 530.644 627.666 526.802 634.592 524.462C641.518 522.122 648.676 521.356 655.428 522.231C662.537 522.601 669.128 524.709 674.58 528.357C680.031 532.004 684.164 537.072 686.588 543.081L687.626 543.172C688.208 535.072 689.54 526.919 691.606 518.806L701.958 480.169L735.995 483.147L690.971 651.177L664.821 648.89L662.539 632.832L661.087 632.705C655.815 638.155 649.295 642.389 642.213 644.959C635.131 647.53 627.751 648.341 620.852 647.308ZM639.899 622.201C643.382 622.807 647.104 622.601 650.767 621.598C654.43 620.595 657.931 618.823 660.988 616.426C667.734 609.355 672.377 600.865 674.315 592.054L675.286 588.431C678.677 578.852 679.1 568.997 676.501 560.116C674.883 556.892 672.334 554.254 669.097 552.457C665.859 550.659 662.043 549.761 658.011 549.849C654.511 549.514 650.83 550.045 647.311 551.394C643.793 552.743 640.551 554.865 637.89 557.562C630.995 565.461 626.314 574.688 624.385 584.184C621.202 593.445 620.873 602.945 623.439 611.493C624.662 614.677 626.833 617.349 629.727 619.232C632.621 621.115 636.134 622.14 639.899 622.201Z" fill="url(#paint4_linear_11_699)"/>
</g>
<g clip-path="url(#clip1_11_699)">
<path d="M797.776 422.116L722.287 703.845L431.73 678.424L507.219 396.696L797.776 422.116ZM808.56 381.87L518.003 356.449C506.995 355.486 495.301 358.803 485.494 365.669C475.687 372.536 468.571 382.39 465.711 393.065L390.222 674.793C387.362 685.467 388.992 696.087 394.754 704.315C400.516 712.544 409.937 717.708 420.946 718.671L711.503 744.092C722.512 745.055 734.205 741.738 744.012 734.872C753.819 728.005 760.935 718.15 763.795 707.476L839.284 425.748C842.144 415.074 840.514 404.454 834.752 396.225C828.99 387.997 819.569 382.833 808.56 381.87Z" fill="white"/>
<path d="M506.201 625.626L548.528 467.656L582.98 470.671L540.652 628.64L506.201 625.626Z" fill="white"/>
<path d="M608.755 636.863C601.982 636.528 595.687 634.567 590.442 631.159C585.198 627.751 581.17 623.003 578.725 617.348C573.329 602.924 573.273 586.479 578.567 570.377C581.933 553.943 590.72 538.103 603.628 525.201C609.089 520.199 615.569 516.358 622.496 514.018C629.422 511.677 636.579 510.911 643.332 511.786C650.441 512.156 657.032 514.264 662.483 517.912C667.934 521.56 672.067 526.627 674.491 532.636L675.529 532.727C676.112 524.627 677.443 516.474 679.509 508.361L689.862 469.724L723.898 472.702L678.875 640.733L652.724 638.445L650.443 622.387L648.99 622.26C643.719 627.71 637.198 631.944 630.116 634.514C623.035 637.085 615.655 637.896 608.755 636.863ZM627.802 611.756C631.285 612.363 635.008 612.156 638.671 611.153C642.333 610.15 645.834 608.378 648.891 605.981C655.637 598.91 660.28 590.42 662.219 581.609L663.189 577.987C666.581 568.407 667.004 558.552 664.404 549.672C662.786 546.447 660.237 543.81 657 542.012C653.763 540.214 649.946 539.316 645.915 539.404C642.415 539.069 638.733 539.6 635.215 540.949C631.696 542.298 628.455 544.42 625.793 547.117C618.899 555.017 614.218 564.244 612.288 573.739C609.105 583 608.776 592.5 611.343 601.048C612.565 604.232 614.736 606.904 617.63 608.787C620.525 610.67 624.037 611.695 627.802 611.756Z" fill="white"/>
</g>
<defs>
<filter id="filter1_d_11_699" x="44.8916" y="271.766" width="1064" height="985" filterUnits="userSpaceOnUse" color-interpolation-filters="sRGB">
<feFlood flood-opacity="0" result="BackgroundImageFix"/>
<feColorMatrix in="SourceAlpha" type="matrix" values="0 0 0 0 0 0 0 0 0 0 0 0 0 0 0 0 0 0 127 0" result="hardAlpha"/>
<feOffset dx="-59" dy="128"/>
<feGaussianBlur stdDeviation="50"/>
<feComposite in2="hardAlpha" operator="out"/>
<feColorMatrix type="matrix" values="0 0 0 0 0.497127 0 0 0 0 0.448822 0 0 0 0 0.448822 0 0 0 0.22 0"/>
<feBlend mode="normal" in2="BackgroundImageFix" result="effect1_dropShadow_11_699"/>
<feBlend mode="normal" in="SourceGraphic" in2="effect1_dropShadow_11_699" result="shape"/>
</filter>
<linearGradient id="paint0_linear_11_699" x1="174.526" y1="557.071" x2="1083.87" y2="924.363" gradientUnits="userSpaceOnUse">
<stop stop-color="#DD7521"/>
<stop offset="1" stop-color="#773F12"/>
</linearGradient>
<linearGradient id="paint1_linear_11_699" x1="570.61" y1="848.295" x2="203.698" y2="-203.456" gradientUnits="userSpaceOnUse">
<stop stop-color="#FA8220"/>
<stop offset="1" stop-color="#8C4A15"/>
</linearGradient>
<linearGradient id="paint2_linear_11_699" x1="294.68" y1="893.395" x2="903.593" y2="387.371" gradientUnits="userSpaceOnUse">
<stop stop-color="#413A3A"/>
<stop offset="1" stop-color="white"/>
</linearGradient>
<linearGradient id="paint3_linear_11_699" x1="453.079" y1="768.736" x2="605.797" y2="780.874" gradientUnits="userSpaceOnUse">
<stop stop-color="#413A3A"/>
<stop offset="1" stop-color="white"/>
</linearGradient>
<linearGradient id="paint4_linear_11_699" x1="436.633" y1="780.452" x2="896.835" y2="640.623" gradientUnits="userSpaceOnUse">
<stop stop-color="#413A3A"/>
<stop offset="1" stop-color="white"/>
</linearGradient>
<clipPath id="clip0_11_699">
<rect width="500" height="500" fill="white" transform="matrix(0.996195 0.0871557 -0.258819 0.965926 438.409 303)"/>
</clipPath>
<clipPath id="clip1_11_699">
<rect width="500" height="500" fill="white" transform="matrix(0.996195 0.0871557 -0.258819 0.965926 430.409 287)"/>
</clipPath>
</defs>
</svg>
