<svg width="1244" height="1352" viewBox="0 0 1244 1352" fill="none" xmlns="http://www.w3.org/2000/svg">
<g filter="url(#filter1_d_11_699)">
<path d="M180.085 465.373C163.968 405.256 213.254 277.19 275.288 271.766L741.933 304.841C803.968 299.417 867.321 343.754 883.438 403.871L1038.6 800.788C1054.72 860.905 986.704 981.033 924.67 986.458L445.962 1028.32C383.928 1033.74 320.574 989.404 304.457 929.287L180.085 465.373Z" fill="url(#paint0_linear_11_699)"/>
</g>
<rect width="705.706" height="705.706" rx="126" transform="matrix(0.996195 -0.0871557 0.258819 0.965926 182.221 273.506)" fill="url(#paint1_linear_11_699)"/>
<rect width="672.983" height="655.062" rx="126" transform="matrix(0.996195 -0.0871557 0.258819 0.965926 214.819 270.823)" fill="#FA8220"/>
<g clip-path="url(#clip0_11_699)">
<path d="M742.288 404.696L817.776 686.424L527.22 711.845L451.731 430.116L742.288 404.696ZM731.503 364.449L440.947 389.87C429.938 390.833 420.516 395.997 414.755 404.225C408.993 412.454 407.362 423.074 410.223 433.748L485.712 715.476C488.572 726.15 495.688 736.005 505.494 742.872C515.301 749.738 526.995 753.055 538.004 752.092L828.561 726.671C839.569 725.708 848.991 720.544 854.753 712.315C860.514 704.087 862.145 693.467 859.285 682.793L783.796 401.065C780.936 390.39 773.819 380.536 764.013 373.669C754.206 366.803 742.512 363.486 731.503 364.449Z" fill="url(#paint2_linear_11_699)"/>
<path d="M571.632 642.731L529.305 484.762L563.756 481.748L606.084 639.717L571.632 642.731Z" fill="url(#paint3_linear_11_699)"/>
<path d="M675.373 635.921C668.734 636.759 661.701 635.964 654.912 633.608C648.123 631.253 641.794 627.412 636.5 622.434C623.797 609.593 615.134 593.911 611.753 577.642C606.36 561.385 606.45 544.768 612.012 530.25C614.603 524.544 618.775 519.77 624.159 516.353C629.542 512.936 635.97 510.981 642.872 510.662C649.849 509.799 657.242 510.684 664.353 513.233C671.465 515.781 678.062 519.91 683.522 525.229L684.559 525.139C680.874 517.31 677.876 509.303 675.598 501.208L665.245 462.571L699.282 459.594L744.306 627.624L718.156 629.912L707.57 614.98L706.117 615.107C703.942 621.209 699.937 626.364 694.525 630.027C689.114 633.691 682.497 635.727 675.373 635.921ZM680.401 608.707C684.041 608.69 687.485 607.857 690.455 606.274C693.425 604.69 695.838 602.401 697.499 599.591C700.234 591.691 700.218 582.796 697.454 574.057L696.484 570.435C694.704 560.714 689.947 551.238 682.817 543.209C679.585 540.409 675.771 538.328 671.741 537.166C667.711 536.004 663.599 535.8 659.798 536.573C656.283 536.851 653.048 537.988 650.397 539.877C647.746 541.766 645.764 544.345 644.637 547.373C642.195 556.089 642.56 565.694 645.69 575.084C647.502 584.465 652.163 593.586 659.088 601.304C661.921 604.133 665.392 606.312 669.14 607.613C672.888 608.915 676.776 609.293 680.401 608.707Z" fill="url(#paint4_linear_11_699)"/>
</g>
<g clip-path="url(#clip1_11_699)">
<path d="M751.288 388.696L826.776 670.424L536.22 695.845L460.731 414.116L751.288 388.696ZM740.503 348.449L449.947 373.87C438.938 374.833 429.516 379.997 423.755 388.225C417.993 396.454 416.362 407.074 419.223 417.748L494.712 699.476C497.572 710.15 504.688 720.005 514.494 726.872C524.301 733.738 535.995 737.055 547.004 736.092L837.561 710.671C848.569 709.708 857.991 704.544 863.753 696.315C869.514 688.087 871.145 677.467 868.285 666.793L792.796 385.065C789.935 374.39 782.819 364.536 773.013 357.669C763.206 350.803 751.512 347.486 740.503 348.449Z" fill="white"/>
<path d="M579.632 632.733L537.305 474.763L571.756 471.749L614.084 629.718L579.632 632.733Z" fill="white"/>
<path d="M683.373 625.922C676.734 626.76 669.701 625.965 662.912 623.61C656.123 621.254 649.794 617.413 644.5 612.435C631.797 599.594 623.134 583.912 619.753 567.643C614.36 551.386 614.45 534.769 620.012 520.251C622.603 514.545 626.775 509.772 632.159 506.355C637.542 502.937 643.97 500.982 650.872 500.663C657.849 499.801 665.242 500.685 672.353 503.234C679.465 505.782 686.062 509.911 691.522 515.231L692.559 515.14C688.874 507.311 685.876 499.304 683.598 491.209L673.245 452.572L707.282 449.595L752.306 617.626L726.156 619.913L715.57 604.981L714.117 605.108C711.942 611.21 707.937 616.365 702.525 620.028C697.114 623.692 690.497 625.728 683.373 625.922ZM688.401 598.708C692.041 598.692 695.485 597.858 698.455 596.275C701.425 594.691 703.838 592.402 705.499 589.592C708.234 581.692 708.218 572.797 705.454 564.058L704.484 560.436C702.704 550.715 697.947 541.239 690.817 533.21C687.585 530.41 683.771 528.329 679.741 527.167C675.711 526.005 671.599 525.801 667.798 526.574C664.283 526.853 661.048 527.989 658.397 529.878C655.746 531.767 653.764 534.346 652.637 537.374C650.195 546.09 650.56 555.695 653.69 565.085C655.502 574.467 660.163 583.587 667.088 591.305C669.921 594.134 673.392 596.313 677.14 597.615C680.888 598.916 684.776 599.294 688.401 598.708Z" fill="white"/>
</g>
<defs>
<filter id="filter1_d_11_699" x="18" y="271.766" width="1064" height="985" filterUnits="userSpaceOnUse" color-interpolation-filters="sRGB">
<feFlood flood-opacity="0" result="BackgroundImageFix"/>
<feColorMatrix in="SourceAlpha" type="matrix" values="0 0 0 0 0 0 0 0 0 0 0 0 0 0 0 0 0 0 127 0" result="hardAlpha"/>
<feOffset dx="-59" dy="128"/>
<feGaussianBlur stdDeviation="50"/>
<feComposite in2="hardAlpha" operator="out"/>
<feColorMatrix type="matrix" values="0 0 0 0 0.497127 0 0 0 0 0.448822 0 0 0 0 0.448822 0 0 0 0.22 0"/>
<feBlend mode="normal" in2="BackgroundImageFix" result="effect1_dropShadow_11_699"/>
<feBlend mode="normal" in="SourceGraphic" in2="effect1_dropShadow_11_699" result="shape"/>
</filter>
<linearGradient id="paint0_linear_11_699" x1="1070.37" y1="557.071" x2="161.022" y2="924.363" gradientUnits="userSpaceOnUse">
<stop stop-color="#DD7521"/>
<stop offset="1" stop-color="#773F12"/>
</linearGradient>
<linearGradient id="paint1_linear_11_699" x1="570.61" y1="848.295" x2="203.698" y2="-203.456" gradientUnits="userSpaceOnUse">
<stop stop-color="#FA8220"/>
<stop offset="1" stop-color="#8C4A15"/>
</linearGradient>
<linearGradient id="paint2_linear_11_699" x1="493" y1="926.5" x2="842.371" y2="360.104" gradientUnits="userSpaceOnUse">
<stop stop-color="#413A3A"/>
<stop offset="1" stop-color="white"/>
</linearGradient>
<linearGradient id="paint3_linear_11_699" x1="578.869" y1="780.47" x2="709.666" y2="719.95" gradientUnits="userSpaceOnUse">
<stop stop-color="#413A3A"/>
<stop offset="1" stop-color="white"/>
</linearGradient>
<linearGradient id="paint4_linear_11_699" x1="569.31" y1="794.46" x2="876.612" y2="517.368" gradientUnits="userSpaceOnUse">
<stop stop-color="#413A3A"/>
<stop offset="1" stop-color="white"/>
</linearGradient>
<clipPath id="clip0_11_699">
<rect width="500" height="500" fill="white" transform="matrix(0.996195 -0.0871557 0.258819 0.965926 321 338.578)"/>
</clipPath>
<clipPath id="clip1_11_699">
<rect width="500" height="500" fill="white" transform="matrix(0.996195 -0.0871557 0.258819 0.965926 330 322.578)"/>
</clipPath>
</defs>
</svg>
