<svg width="1244" height="1352" viewBox="0 0 1244 1352" fill="none" xmlns="http://www.w3.org/2000/svg">
<g filter="url(#filter1_d_11_743)">
<path d="M1064.81 465.373C1080.92 405.256 1031.64 277.19 969.605 271.766L502.959 304.841C440.925 299.417 377.571 343.754 361.454 403.871L206.294 800.788C190.177 860.905 258.189 981.033 320.223 986.458L798.93 1028.32C860.964 1033.74 924.318 989.404 940.435 929.287L1064.81 465.373Z" fill="url(#paint0_linear_11_743)"/>
</g>
<rect width="705.706" height="705.706" rx="126" transform="matrix(-0.996195 -0.0871557 -0.258819 0.965926 1062.67 273.506)" fill="url(#paint1_linear_11_743)"/>
<rect width="672.983" height="655.062" rx="126" transform="matrix(-0.996195 -0.0871557 -0.258819 0.965926 1030.07 270.823)" fill="#FA8220"/>
<g clip-path="url(#clip0_11_743)">
<path d="M645.014 412.06C617.793 425.742 586.941 441.25 565.079 469.46C527.044 518.682 585.988 581.163 588.516 583.798C589.104 584.412 589.909 584.761 590.786 584.838C591.717 584.92 592.732 584.692 593.655 584.144C595.442 583.082 596.4 581.096 595.96 579.372C595.826 578.849 582.677 526.533 593.274 490.751C596.971 478.292 618.797 465.698 641.905 452.365C663.069 440.153 687.059 426.311 703.535 409.106C739.735 371.229 722.011 329.318 721.828 328.9C721.114 327.273 719.189 326.535 717.213 327.135C715.238 327.737 713.758 329.51 713.672 331.381C713.659 331.646 712.174 358.206 689.666 383.733C680.382 394.283 663.993 402.522 645.014 412.06Z" fill="url(#paint2_linear_11_743)"/>
<path d="M737.242 438.23C739.183 437.186 740.239 435.064 739.719 433.252C739.198 431.44 737.261 430.491 735.173 431.025C730.877 432.124 629.846 458.411 618.733 499.884C611.074 528.471 619.621 544.676 625.862 556.509C628.311 561.149 630.424 565.157 630.595 568.436C631.022 577.879 619.727 593.891 615.342 599.264C614.079 600.81 613.961 602.804 615.055 604.109C615.647 604.814 616.512 605.22 617.466 605.304C618.278 605.375 619.155 605.211 619.986 604.798C621.851 603.871 665.661 581.736 667.213 550.587C667.854 538.752 664.24 529.746 661.05 521.8C656.11 509.491 652.543 500.598 665.513 485.884C680.689 468.731 736.678 438.532 737.242 438.23Z" fill="url(#paint3_linear_11_743)"/>
<path d="M451.534 591.462C448.736 595.893 448.263 600.494 450.167 604.766C456.532 619.036 489.816 629.502 543.895 634.233C543.898 634.234 543.901 634.234 543.901 634.234C551.229 634.875 559.003 635.412 567 635.83C654.266 640.392 693.333 617.082 694.953 616.087C696.719 615.004 697.645 613.022 697.185 611.312C696.725 609.604 695.011 608.617 693.032 608.947C660.423 614.345 602.795 612.232 563.356 608.781C519.224 604.92 497.575 599.872 492.683 597.116C496.514 593.603 515.726 588.415 538.407 586.187C540.575 585.975 542.487 584.252 542.827 582.206C543.166 580.16 541.823 578.459 539.721 578.275C527.071 577.17 463.373 572.605 451.534 591.462Z" fill="url(#paint4_linear_11_743)"/>
<path d="M748.058 589.877C730.224 588.317 710.992 595.502 710.181 595.809C708.302 596.521 706.974 598.282 706.955 600.082C706.938 601.881 708.238 603.261 710.109 603.426C710.487 603.461 748.068 607.053 745.89 628.216C744.088 646.479 697.618 672.262 679.863 680.656C677.945 681.563 676.766 683.537 677.056 685.356C677.301 686.906 678.551 687.972 680.168 688.113C680.451 688.138 680.744 688.134 681.044 688.099C684.84 687.669 774.024 677.026 777.866 628.623C780.245 598.962 762.968 591.182 748.058 589.877Z" fill="url(#paint5_linear_11_743)"/>
<path d="M666.441 673.518C667.144 672.017 666.905 670.408 665.834 669.403L649.288 653.897C648.481 653.141 647.292 652.821 646.054 653.018C645.829 653.053 623.233 656.593 591.638 657.213C579.095 657.472 565.257 656.977 551.615 655.784C520.915 653.098 501.778 647.844 499.542 645.023C499.348 644.268 499.558 643.951 499.676 643.775C500.59 642.388 503.893 640.935 505.909 640.423C508.13 639.873 509.795 637.834 509.702 635.775C509.61 633.715 507.795 632.347 505.56 632.654C483.999 635.626 472.299 641.398 470.784 649.806C468.102 664.712 501.412 675.399 530.755 680.023C534.975 680.684 539.584 681.236 544.449 681.662C544.452 681.662 544.454 681.662 544.457 681.662C594.144 686.009 661.892 676.466 662.57 676.368C664.224 676.132 665.736 675.018 666.441 673.518Z" fill="url(#paint6_linear_11_743)"/>
<path d="M505.443 691.933C507.234 691.1 508.405 689.324 508.314 687.585C508.225 685.847 506.891 684.594 505.053 684.456C502.315 684.288 478.148 683.243 472.524 697.844C470.837 702.206 471.06 706.345 473.189 710.147C479.125 720.753 500.706 728.636 539.155 734.247C543.702 734.919 548.356 735.464 552.993 735.87C602.623 740.212 640.084 728.069 641.656 727.55C643.18 727.047 644.421 725.833 644.89 724.386C645.359 722.941 644.981 721.496 643.904 720.626L622.397 703.259C621.65 702.658 620.636 702.391 619.569 702.503C619.399 702.522 602.294 704.366 576.937 705.449C572.139 705.653 566.252 705.455 559.442 704.86C534.974 702.719 508.799 696.462 504.259 693.468C504.312 692.985 504.57 692.392 505.443 691.933Z" fill="url(#paint7_linear_11_743)"/>
<path d="M517.673 779.338C631.379 789.19 697.645 774.926 712.704 763.619C718.035 759.618 719.591 755.526 719.96 752.796C720.865 746.079 715.718 741.468 715.127 740.964C713.706 739.751 711.341 739.829 709.612 741.201C707.885 742.575 707.271 744.747 708.205 746.35C708.683 747.308 708.696 748.84 706.054 750.692C700.216 754.535 649.362 763.305 569.415 760.281C558.459 759.882 547.048 759.166 535.498 758.157C464.847 751.976 415.655 738.07 410.334 732.007C413.928 728.592 433.776 724.368 454.108 722.778C456.399 722.599 458.417 720.725 458.648 718.564C458.88 716.403 457.246 714.758 454.957 714.845C454.389 714.868 452.499 714.816 450.308 714.754C417.707 713.846 379.486 714.838 373.255 730.699C371.358 735.535 371.667 740.099 374.175 744.27C380.312 754.47 401.861 769.204 517.669 779.336C517.672 779.338 517.673 779.338 517.673 779.338Z" fill="url(#paint8_linear_11_743)"/>
<path d="M734.101 769.048C732.687 768.187 730.692 768.386 729.155 769.535C728.941 769.694 707.207 785.529 653.091 791.208C632.393 793.309 594.945 792.017 541.786 787.366C488.527 782.706 438.394 776.241 437.894 776.176C435.804 775.891 433.593 777.224 432.764 779.22C431.934 781.215 432.767 783.234 434.685 783.885C435.18 784.053 485.057 800.764 557.675 807.117C592.504 810.164 627.131 810.385 660.596 807.774C723.01 802.85 734.879 774.515 735.354 773.312C736.017 771.629 735.512 769.909 734.101 769.048Z" fill="url(#paint9_linear_11_743)"/>
</g>
<g clip-path="url(#clip1_11_743)">
<path d="M652.012 400.06C624.792 413.742 593.939 429.25 572.077 457.46C534.043 506.682 592.986 569.163 595.514 571.798C596.102 572.412 596.907 572.761 597.784 572.838C598.715 572.92 599.73 572.692 600.653 572.144C602.44 571.082 603.398 569.096 602.958 567.372C602.824 566.849 589.675 514.533 600.272 478.751C603.969 466.292 625.795 453.698 648.903 440.365C670.067 428.153 694.057 414.311 710.534 397.106C746.733 359.229 729.009 317.318 728.826 316.9C728.112 315.273 726.187 314.535 724.211 315.135C722.236 315.737 720.757 317.51 720.67 319.381C720.657 319.646 719.172 346.206 696.664 371.733C687.381 382.283 670.991 390.522 652.012 400.06Z" fill="white"/>
<path d="M744.24 426.23C746.181 425.186 747.237 423.064 746.717 421.252C746.196 419.44 744.259 418.491 742.171 419.025C737.875 420.124 636.844 446.411 625.732 487.884C618.072 516.471 626.619 532.676 632.86 544.509C635.309 549.149 637.422 553.157 637.593 556.436C638.02 565.879 626.725 581.891 622.34 587.264C621.077 588.81 620.959 590.804 622.053 592.109C622.645 592.814 623.51 593.22 624.464 593.304C625.276 593.375 626.153 593.211 626.984 592.798C628.849 591.871 672.659 569.736 674.211 538.587C674.852 526.752 671.238 517.746 668.048 509.8C663.109 497.491 659.541 488.598 672.511 473.884C687.687 456.731 743.676 426.532 744.24 426.23Z" fill="white"/>
<path d="M458.532 579.462C455.734 583.893 455.261 588.494 457.165 592.766C463.53 607.036 496.814 617.502 550.893 622.233C550.896 622.234 550.9 622.234 550.9 622.234C558.227 622.875 566.001 623.412 573.998 623.83C661.264 628.392 700.331 605.082 701.951 604.087C703.717 603.004 704.643 601.022 704.183 599.312C703.723 597.604 702.009 596.617 700.03 596.947C667.421 602.345 609.793 600.232 570.354 596.781C526.222 592.92 504.573 587.872 499.681 585.116C503.512 581.603 522.724 576.415 545.405 574.187C547.573 573.975 549.485 572.252 549.825 570.206C550.164 568.16 548.821 566.459 546.719 566.275C534.069 565.17 470.371 560.605 458.532 579.462Z" fill="white"/>
<path d="M755.056 577.877C737.222 576.317 717.99 583.502 717.179 583.809C715.3 584.521 713.973 586.282 713.953 588.082C713.936 589.881 715.236 591.261 717.107 591.426C717.485 591.461 755.067 595.053 752.888 616.216C751.086 634.479 704.616 660.262 686.861 668.656C684.944 669.563 683.764 671.537 684.054 673.356C684.299 674.906 685.549 675.972 687.166 676.113C687.449 676.138 687.742 676.134 688.042 676.099C691.838 675.669 781.022 665.026 784.864 616.623C787.243 586.962 769.966 579.182 755.056 577.877Z" fill="white"/>
<path d="M673.439 661.518C674.142 660.017 673.903 658.408 672.832 657.403L656.286 641.897C655.48 641.141 654.29 640.821 653.052 641.018C652.827 641.053 630.231 644.593 598.636 645.213C586.093 645.472 572.255 644.977 558.613 643.784C527.913 641.098 508.776 635.844 506.54 633.023C506.346 632.268 506.556 631.951 506.674 631.775C507.588 630.388 510.891 628.935 512.907 628.423C515.128 627.873 516.793 625.834 516.7 623.775C516.608 621.715 514.793 620.347 512.558 620.654C490.997 623.626 479.297 629.398 477.782 637.806C475.1 652.712 508.411 663.399 537.753 668.023C541.973 668.684 546.582 669.236 551.447 669.662C551.45 669.662 551.452 669.662 551.455 669.662C601.142 674.009 668.89 664.466 669.568 664.368C671.223 664.132 672.734 663.018 673.439 661.518Z" fill="white"/>
<path d="M512.441 679.933C514.232 679.1 515.403 677.324 515.312 675.585C515.223 673.847 513.889 672.594 512.051 672.456C509.313 672.288 485.146 671.243 479.522 685.844C477.835 690.206 478.058 694.345 480.187 698.147C486.123 708.753 507.704 716.636 546.153 722.247C550.7 722.919 555.354 723.464 559.991 723.87C609.621 728.212 647.082 716.069 648.654 715.55C650.178 715.047 651.419 713.833 651.888 712.386C652.358 710.941 651.979 709.496 650.902 708.626L629.395 691.259C628.649 690.658 627.634 690.391 626.567 690.503C626.397 690.522 609.292 692.366 583.935 693.449C579.137 693.653 573.25 693.455 566.44 692.86C541.973 690.719 515.797 684.462 511.258 681.468C511.31 680.985 511.568 680.392 512.441 679.933Z" fill="white"/>
<path d="M524.672 767.338C638.377 777.19 704.643 762.926 719.702 751.619C725.033 747.618 726.589 743.526 726.958 740.796C727.863 734.079 722.716 729.468 722.125 728.964C720.704 727.751 718.34 727.829 716.61 729.201C714.883 730.575 714.269 732.747 715.203 734.35C715.681 735.308 715.694 736.84 713.052 738.692C707.214 742.535 656.36 751.305 576.413 748.281C565.457 747.882 554.046 747.166 542.496 746.157C471.845 739.976 422.653 726.07 417.332 720.007C420.926 716.592 440.774 712.368 461.106 710.778C463.397 710.599 465.415 708.725 465.646 706.564C465.878 704.403 464.244 702.758 461.955 702.845C461.387 702.868 459.497 702.816 457.306 702.754C424.705 701.846 386.484 702.838 380.253 718.699C378.356 723.535 378.665 728.099 381.173 732.27C387.31 742.47 408.859 757.204 524.667 767.336C524.67 767.338 524.672 767.338 524.672 767.338Z" fill="white"/>
<path d="M741.101 757.048C739.687 756.187 737.692 756.386 736.155 757.535C735.941 757.694 714.207 773.529 660.091 779.208C639.393 781.309 601.945 780.017 548.786 775.366C495.527 770.706 445.394 764.241 444.894 764.176C442.804 763.891 440.593 765.224 439.764 767.22C438.934 769.215 439.767 771.234 441.685 771.885C442.18 772.053 492.057 788.764 564.675 795.117C599.504 798.164 634.131 798.385 667.596 795.774C730.01 790.85 741.879 762.515 742.354 761.312C743.017 759.629 742.512 757.909 741.101 757.048Z" fill="white"/>
</g>
<defs>
<filter id="filter1_d_11_743" x="44.8926" y="271.766" width="1064" height="985" filterUnits="userSpaceOnUse" color-interpolation-filters="sRGB">
<feFlood flood-opacity="0" result="BackgroundImageFix"/>
<feColorMatrix in="SourceAlpha" type="matrix" values="0 0 0 0 0 0 0 0 0 0 0 0 0 0 0 0 0 0 127 0" result="hardAlpha"/>
<feOffset dx="-59" dy="128"/>
<feGaussianBlur stdDeviation="50"/>
<feComposite in2="hardAlpha" operator="out"/>
<feColorMatrix type="matrix" values="0 0 0 0 0.497127 0 0 0 0 0.448822 0 0 0 0 0.448822 0 0 0 0.22 0"/>
<feBlend mode="normal" in2="BackgroundImageFix" result="effect1_dropShadow_11_743"/>
<feBlend mode="normal" in="SourceGraphic" in2="effect1_dropShadow_11_743" result="shape"/>
</filter>
<linearGradient id="paint0_linear_11_743" x1="174.527" y1="557.071" x2="1083.87" y2="924.363" gradientUnits="userSpaceOnUse">
<stop stop-color="#DD7521"/>
<stop offset="1" stop-color="#773F12"/>
</linearGradient>
<linearGradient id="paint1_linear_11_743" x1="570.61" y1="848.295" x2="203.698" y2="-203.456" gradientUnits="userSpaceOnUse">
<stop stop-color="#FA8220"/>
<stop offset="1" stop-color="#8C4A15"/>
</linearGradient>
<linearGradient id="paint2_linear_11_743" x1="764.888" y1="312.363" x2="436.781" y2="399.303" gradientUnits="userSpaceOnUse">
<stop stop-color="white"/>
<stop offset="1" stop-color="#2C2525"/>
</linearGradient>
<linearGradient id="paint3_linear_11_743" x1="762.133" y1="420.342" x2="523.01" y2="494.891" gradientUnits="userSpaceOnUse">
<stop stop-color="white"/>
<stop offset="1" stop-color="#2C2525"/>
</linearGradient>
<linearGradient id="paint4_linear_11_743" x1="747.554" y1="592.615" x2="705.596" y2="727.021" gradientUnits="userSpaceOnUse">
<stop stop-color="white"/>
<stop offset="1" stop-color="#2C2525"/>
</linearGradient>
<linearGradient id="paint5_linear_11_743" x1="804.923" y1="587.651" x2="643.523" y2="679.883" gradientUnits="userSpaceOnUse">
<stop stop-color="white"/>
<stop offset="1" stop-color="#2C2525"/>
</linearGradient>
<linearGradient id="paint6_linear_11_743" x1="709.503" y1="647.223" x2="674.372" y2="757.528" gradientUnits="userSpaceOnUse">
<stop stop-color="white"/>
<stop offset="1" stop-color="#2C2525"/>
</linearGradient>
<linearGradient id="paint7_linear_11_743" x1="684.21" y1="696.866" x2="643.938" y2="809.149" gradientUnits="userSpaceOnUse">
<stop stop-color="white"/>
<stop offset="1" stop-color="#2C2525"/>
</linearGradient>
<linearGradient id="paint8_linear_11_743" x1="786.315" y1="739.719" x2="749.24" y2="884.703" gradientUnits="userSpaceOnUse">
<stop stop-color="white"/>
<stop offset="1" stop-color="#2C2525"/>
</linearGradient>
<linearGradient id="paint9_linear_11_743" x1="789.861" y1="769.828" x2="754.51" y2="901.748" gradientUnits="userSpaceOnUse">
<stop stop-color="white"/>
<stop offset="1" stop-color="#2C2525"/>
</linearGradient>
<clipPath id="clip0_11_743">
<rect width="500" height="500" fill="white" transform="matrix(0.996195 0.0871557 -0.258819 0.965926 422.41 301)"/>
</clipPath>
<clipPath id="clip1_11_743">
<rect width="500" height="500" fill="white" transform="matrix(0.996195 0.0871557 -0.258819 0.965926 429.41 289)"/>
</clipPath>
</defs>
</svg>
