<svg width="1244" height="1352" viewBox="0 0 1244 1352" fill="none" xmlns="http://www.w3.org/2000/svg">
<g filter="url(#filter1_d_11_743)">
<path d="M180.085 465.373C163.968 405.256 213.254 277.19 275.288 271.766L741.933 304.841C803.968 299.417 867.321 343.754 883.438 403.871L1038.6 800.788C1054.72 860.905 986.704 981.033 924.67 986.458L445.962 1028.32C383.928 1033.74 320.574 989.404 304.457 929.287L180.085 465.373Z" fill="url(#paint0_linear_11_743)"/>
</g>
<rect width="705.706" height="705.706" rx="126" transform="matrix(0.996195 -0.0871557 0.258819 0.965926 182.221 273.506)" fill="url(#paint1_linear_11_743)"/>
<rect width="672.983" height="655.062" rx="126" transform="matrix(0.996195 -0.0871557 0.258819 0.965926 214.82 270.823)" fill="#FA8220"/>
<g clip-path="url(#clip0_11_743)">
<path d="M581.56 406.492C562.75 424.201 541.431 444.274 535.342 474.928C524.824 528.398 613.784 577.939 617.576 580.022C618.458 580.507 619.41 580.703 620.286 580.626C621.217 580.545 622.067 580.154 622.66 579.474C623.809 578.154 623.684 576.096 622.361 574.526C621.959 574.049 582.019 526.378 573.394 490.424C570.397 477.903 584.63 462.155 599.697 445.482C613.497 430.211 629.14 412.902 635.853 393.668C650.561 351.336 611.704 314.376 611.31 314.009C609.776 312.578 607.553 312.203 605.982 313.114C604.413 314.026 603.93 315.971 604.826 317.77C604.953 318.025 617.443 343.622 609.333 371.828C605.999 383.482 594.675 394.146 581.56 406.492Z" fill="url(#paint2_linear_11_743)"/>
<path d="M683.265 415.694C684.571 414.366 684.468 412.162 683.022 410.522C681.577 408.882 679.232 408.307 677.518 409.174C673.995 410.957 591.357 453.313 602.47 494.786C610.129 523.372 626.771 537.374 638.922 547.598C643.688 551.607 647.803 555.07 649.684 558.169C655.035 567.107 652.642 584.317 651.271 590.193C650.875 591.884 651.807 593.807 653.534 594.865C654.468 595.436 655.506 595.676 656.46 595.593C657.272 595.522 658.024 595.216 658.601 594.679C659.894 593.475 690.107 564.865 675.277 534.877C669.692 523.475 661.528 515.5 654.324 508.463C643.165 497.562 635.104 489.686 639.775 473.43C645.274 454.467 682.885 416.079 683.265 415.694Z" fill="url(#paint3_linear_11_743)"/>
<path d="M490.881 610.755C490.531 615.461 492.49 619.932 496.543 623.683C510.089 636.211 547.329 640.507 601.407 635.775C601.41 635.775 601.414 635.775 601.414 635.775C608.741 635.134 616.44 634.318 624.29 633.349C709.947 622.782 735.018 593.86 736.044 592.634C737.161 591.298 737.007 589.249 735.673 587.696C734.34 586.145 732.187 585.496 730.472 586.15C702.183 596.875 646.088 604.712 606.649 608.162C562.518 612.023 539.217 610.908 533.105 609.114C534.922 605.108 550.537 596.872 571.012 590.868C572.97 590.295 573.893 588.325 573.145 586.314C572.397 584.304 570.226 582.91 568.124 583.094C555.474 584.203 492.304 590.737 490.881 610.755Z" fill="url(#paint4_linear_11_743)"/>
<path d="M772.991 558.546C755.158 560.106 740.569 570.25 739.956 570.681C738.536 571.682 738.191 573.589 739.115 575.31C740.041 577.03 742.003 578.124 743.875 577.962C744.255 577.93 781.995 574.933 790.997 595.498C798.842 613.234 768.001 645.78 755.455 656.825C754.1 658.018 754.008 660.103 755.237 661.79C756.283 663.227 758.034 664.03 759.65 663.888C759.933 663.864 760.211 663.81 760.479 663.725C763.876 662.666 843.401 637.263 821.722 590.42C808.461 561.711 787.902 557.241 772.991 558.546Z" fill="url(#paint5_linear_11_743)"/>
<path d="M738.91 652.309C738.795 650.756 737.725 649.262 736.176 648.487L712.27 636.519C711.104 635.936 709.801 635.834 708.723 636.233C708.527 636.306 688.819 643.546 658.996 649.539C647.164 651.931 633.7 653.825 620.059 655.019C589.358 657.705 568.347 655.963 564.736 653.653C564.156 652.967 564.191 652.628 564.211 652.44C564.357 650.961 566.748 649.009 568.403 648.176C570.235 647.272 570.756 645.042 569.588 643.092C568.422 641.142 565.975 640.148 564.003 640.823C544.985 647.345 536.843 654.852 539.801 663.134C545.047 677.816 582.427 682.319 612.846 681.714C617.219 681.623 621.906 681.362 626.771 680.936C626.775 680.936 626.776 680.936 626.779 680.936C676.466 676.588 736.114 655.9 736.709 655.69C738.164 655.182 739.024 653.861 738.91 652.309Z" fill="url(#paint6_linear_11_743)"/>
<path d="M594.93 697.406C596.203 696.305 596.391 694.41 595.394 692.767C594.398 691.123 592.469 690.156 590.643 690.338C587.943 690.646 564.335 693.781 566.614 708.674C567.289 713.125 569.669 717.036 573.691 720.3C584.909 729.405 609.629 733.237 649.255 732.018C653.945 731.882 658.672 731.606 663.308 731.2C712.938 726.858 742.325 708.867 743.553 708.103C744.743 707.362 745.292 705.992 744.983 704.531C744.674 703.072 743.556 701.758 742.073 701.112L712.457 688.218C711.43 687.771 710.322 687.69 709.363 687.98C709.21 688.027 693.855 692.711 670.226 698.079C665.755 699.094 660.034 699.912 653.224 700.508C628.757 702.649 600.504 701.153 594.605 699.073C594.402 698.603 594.337 697.993 594.93 697.406Z" fill="url(#paint7_linear_11_743)"/>
<path d="M652.366 778.715C766.021 768.676 821.783 743.736 830.231 730.373C833.223 725.643 832.565 721.472 831.488 718.805C828.834 712.241 821.508 708.721 820.681 708.342C818.69 707.427 816.475 707.906 815.542 709.511C814.614 711.117 815.166 713.294 816.897 714.664C817.853 715.496 818.669 716.956 817.117 719.174C813.559 723.84 769.627 740.903 691.759 751.686C681.096 753.178 669.832 754.445 658.283 755.458C587.632 761.639 533.413 756.78 525.16 751.905C526.802 748.032 543.529 740.608 562.097 735.614C564.189 735.052 565.134 732.919 564.223 730.818C563.312 728.716 560.892 727.426 558.753 727.9C558.223 728.019 556.393 728.292 554.269 728.608C522.686 733.316 486.735 740.796 489.095 756.997C489.817 761.935 492.502 766.237 497.079 769.788C508.276 778.472 536.553 788.846 652.361 778.714C652.365 778.716 652.366 778.715 652.366 778.715Z" fill="url(#paint8_linear_11_743)"/>
<path d="M853.493 731.895C851.693 731.315 849.893 731.845 849.028 733.204C848.907 733.393 836.46 752.218 787.798 766.89C769.148 772.433 732.738 777.602 679.579 782.253C626.32 786.913 575.099 789.315 574.587 789.338C572.444 789.424 571.033 791.074 571.286 793.12C571.539 795.165 573.391 796.95 575.562 797.243C576.122 797.318 632.465 804.737 705.082 798.383C739.911 795.336 773.068 789.627 803.633 781.414C860.609 766.044 857.098 736.978 856.92 735.749C856.672 734.03 855.289 732.475 853.493 731.895Z" fill="url(#paint9_linear_11_743)"/>
</g>
<g clip-path="url(#clip1_11_743)">
<path d="M588.56 394.492C569.75 412.201 548.431 432.274 542.342 462.928C531.824 516.398 620.784 565.939 624.576 568.022C625.458 568.507 626.41 568.703 627.286 568.626C628.217 568.545 629.067 568.154 629.66 567.474C630.809 566.154 630.684 564.096 629.361 562.526C628.959 562.049 589.019 514.378 580.394 478.424C577.397 465.903 591.63 450.155 606.697 433.482C620.497 418.211 636.14 400.902 642.853 381.668C657.561 339.336 618.704 302.376 618.31 302.009C616.776 300.578 614.553 300.203 612.982 301.114C611.413 302.026 610.93 303.971 611.826 305.77C611.953 306.025 624.443 331.622 616.333 359.828C612.999 371.482 601.675 382.146 588.56 394.492Z" fill="white"/>
<path d="M690.265 403.694C691.571 402.366 691.468 400.162 690.022 398.522C688.577 396.882 686.232 396.307 684.518 397.174C680.995 398.957 598.357 441.313 609.47 482.786C617.129 511.372 633.771 525.374 645.922 535.598C650.688 539.607 654.803 543.07 656.684 546.169C662.035 555.107 659.642 572.317 658.271 578.193C657.875 579.884 658.807 581.807 660.534 582.865C661.468 583.436 662.506 583.676 663.46 583.593C664.272 583.522 665.024 583.216 665.601 582.679C666.894 581.475 697.107 552.865 682.277 522.877C676.692 511.475 668.528 503.5 661.324 496.463C650.165 485.562 642.104 477.686 646.775 461.43C652.274 442.467 689.885 404.079 690.265 403.694Z" fill="white"/>
<path d="M497.881 598.755C497.531 603.461 499.49 607.932 503.543 611.683C517.089 624.211 554.329 628.507 608.407 623.775C608.41 623.775 608.414 623.775 608.414 623.775C615.741 623.134 623.44 622.318 631.29 621.349C716.947 610.782 742.018 581.86 743.044 580.634C744.161 579.298 744.007 577.249 742.673 575.696C741.34 574.145 739.187 573.496 737.472 574.15C709.183 584.875 653.088 592.712 613.649 596.162C569.518 600.023 546.217 598.908 540.105 597.114C541.922 593.108 557.537 584.872 578.012 578.868C579.97 578.295 580.893 576.325 580.145 574.314C579.397 572.304 577.226 570.91 575.124 571.094C562.474 572.203 499.304 578.737 497.881 598.755Z" fill="white"/>
<path d="M779.991 546.546C762.158 548.106 747.569 558.25 746.956 558.681C745.536 559.682 745.191 561.589 746.115 563.31C747.041 565.03 749.003 566.124 750.875 565.962C751.255 565.93 788.995 562.933 797.997 583.498C805.842 601.234 775.001 633.78 762.455 644.825C761.1 646.018 761.008 648.103 762.237 649.79C763.283 651.227 765.034 652.03 766.65 651.888C766.933 651.864 767.211 651.81 767.479 651.725C770.876 650.666 850.401 625.263 828.722 578.42C815.461 549.711 794.902 545.241 779.991 546.546Z" fill="white"/>
<path d="M745.91 640.309C745.795 638.756 744.725 637.262 743.176 636.487L719.27 624.519C718.104 623.936 716.801 623.834 715.723 624.233C715.527 624.306 695.819 631.546 665.996 637.539C654.164 639.931 640.7 641.825 627.059 643.019C596.358 645.705 575.347 643.963 571.736 641.653C571.156 640.967 571.191 640.628 571.211 640.44C571.357 638.961 573.748 637.009 575.403 636.176C577.235 635.272 577.756 633.042 576.588 631.092C575.422 629.142 572.975 628.148 571.003 628.823C551.985 635.345 543.843 642.852 546.801 651.134C552.047 665.816 589.427 670.319 619.846 669.714C624.219 669.623 628.906 669.362 633.771 668.936C633.775 668.936 633.776 668.936 633.779 668.936C683.466 664.588 743.114 643.9 743.709 643.69C745.164 643.182 746.024 641.861 745.91 640.309Z" fill="white"/>
<path d="M601.93 685.406C603.203 684.305 603.391 682.41 602.394 680.767C601.398 679.123 599.469 678.156 597.643 678.338C594.943 678.646 571.335 681.781 573.614 696.674C574.289 701.125 576.669 705.036 580.691 708.3C591.909 717.405 616.629 721.237 656.255 720.018C660.945 719.882 665.672 719.606 670.308 719.2C719.938 714.858 749.325 696.867 750.553 696.103C751.743 695.362 752.292 693.992 751.983 692.531C751.674 691.072 750.556 689.758 749.073 689.112L719.457 676.218C718.43 675.771 717.322 675.69 716.363 675.98C716.21 676.027 700.855 680.711 677.226 686.079C672.755 687.094 667.034 687.912 660.224 688.508C635.757 690.649 607.504 689.153 601.605 687.073C601.402 686.603 601.337 685.993 601.93 685.406Z" fill="white"/>
<path d="M659.368 766.715C773.023 756.676 828.785 731.736 837.233 718.373C840.225 713.643 839.567 709.472 838.489 706.805C835.836 700.241 828.51 696.721 827.683 696.342C825.691 695.427 823.477 695.906 822.544 697.511C821.616 699.117 822.167 701.294 823.898 702.664C824.855 703.496 825.671 704.956 824.119 707.174C820.561 711.84 776.629 728.903 698.761 739.686C688.097 741.178 676.834 742.445 665.285 743.458C594.634 749.639 540.415 744.78 532.162 739.905C533.804 736.032 550.531 728.608 569.099 723.614C571.191 723.052 572.135 720.919 571.225 718.818C570.314 716.716 567.894 715.426 565.755 715.9C565.225 716.019 563.395 716.292 561.271 716.608C529.688 721.316 493.737 728.796 496.097 744.997C496.819 749.935 499.504 754.237 504.081 757.788C515.278 766.472 543.555 776.846 659.363 766.714C659.366 766.716 659.368 766.715 659.368 766.715Z" fill="white"/>
<path d="M860.493 719.895C858.693 719.315 856.893 719.845 856.028 721.204C855.907 721.393 843.46 740.218 794.798 754.89C776.148 760.433 739.738 765.602 686.579 770.253C633.32 774.913 582.099 777.315 581.587 777.338C579.444 777.424 578.033 779.074 578.286 781.12C578.539 783.165 580.391 784.95 582.562 785.243C583.122 785.318 639.465 792.737 712.082 786.383C746.911 783.336 780.068 777.627 810.633 769.414C867.609 754.044 864.098 724.978 863.92 723.749C863.672 722.03 862.289 720.475 860.493 719.895Z" fill="white"/>
</g>
<defs>
<filter id="filter1_d_11_743" x="18" y="271.766" width="1064" height="985" filterUnits="userSpaceOnUse" color-interpolation-filters="sRGB">
<feFlood flood-opacity="0" result="BackgroundImageFix"/>
<feColorMatrix in="SourceAlpha" type="matrix" values="0 0 0 0 0 0 0 0 0 0 0 0 0 0 0 0 0 0 127 0" result="hardAlpha"/>
<feOffset dx="-59" dy="128"/>
<feGaussianBlur stdDeviation="50"/>
<feComposite in2="hardAlpha" operator="out"/>
<feColorMatrix type="matrix" values="0 0 0 0 0.497127 0 0 0 0 0.448822 0 0 0 0 0.448822 0 0 0 0.22 0"/>
<feBlend mode="normal" in2="BackgroundImageFix" result="effect1_dropShadow_11_743"/>
<feBlend mode="normal" in="SourceGraphic" in2="effect1_dropShadow_11_743" result="shape"/>
</filter>
<linearGradient id="paint0_linear_11_743" x1="1070.37" y1="557.071" x2="161.022" y2="924.363" gradientUnits="userSpaceOnUse">
<stop stop-color="#DD7521"/>
<stop offset="1" stop-color="#773F12"/>
</linearGradient>
<linearGradient id="paint1_linear_11_743" x1="570.61" y1="848.295" x2="203.698" y2="-203.456" gradientUnits="userSpaceOnUse">
<stop stop-color="#FA8220"/>
<stop offset="1" stop-color="#8C4A15"/>
</linearGradient>
<linearGradient id="paint2_linear_11_743" x1="643.737" y1="290.867" x2="420.394" y2="481.669" gradientUnits="userSpaceOnUse">
<stop stop-color="white"/>
<stop offset="1" stop-color="#2C2525"/>
</linearGradient>
<linearGradient id="paint3_linear_11_743" x1="697.65" y1="394.371" x2="538.571" y2="539.361" gradientUnits="userSpaceOnUse">
<stop stop-color="white"/>
<stop offset="1" stop-color="#2C2525"/>
</linearGradient>
<linearGradient id="paint4_linear_11_743" x1="773.944" y1="561.245" x2="759.15" y2="691.541" gradientUnits="userSpaceOnUse">
<stop stop-color="white"/>
<stop offset="1" stop-color="#2C2525"/>
</linearGradient>
<linearGradient id="paint5_linear_11_743" x1="826.086" y1="546.7" x2="728.341" y2="668.684" gradientUnits="userSpaceOnUse">
<stop stop-color="white"/>
<stop offset="1" stop-color="#2C2525"/>
</linearGradient>
<linearGradient id="paint6_linear_11_743" x1="766.231" y1="619.856" x2="753.557" y2="726.737" gradientUnits="userSpaceOnUse">
<stop stop-color="white"/>
<stop offset="1" stop-color="#2C2525"/>
</linearGradient>
<linearGradient id="paint7_linear_11_743" x1="768.091" y1="671.549" x2="751.815" y2="780.079" gradientUnits="userSpaceOnUse">
<stop stop-color="white"/>
<stop offset="1" stop-color="#2C2525"/>
</linearGradient>
<linearGradient id="paint8_linear_11_743" x1="887.955" y1="694.982" x2="878.469" y2="836.306" gradientUnits="userSpaceOnUse">
<stop stop-color="white"/>
<stop offset="1" stop-color="#2C2525"/>
</linearGradient>
<linearGradient id="paint9_linear_11_743" x1="907.106" y1="723.105" x2="897.166" y2="851.521" gradientUnits="userSpaceOnUse">
<stop stop-color="white"/>
<stop offset="1" stop-color="#2C2525"/>
</linearGradient>
<clipPath id="clip0_11_743">
<rect width="500" height="500" fill="white" transform="matrix(0.996195 -0.0871557 0.258819 0.965926 311 338.578)"/>
</clipPath>
<clipPath id="clip1_11_743">
<rect width="500" height="500" fill="white" transform="matrix(0.996195 -0.0871557 0.258819 0.965926 318 326.578)"/>
</clipPath>
</defs>
</svg>
