<svg width="1244" height="1352" viewBox="0 0 1244 1352" fill="none" xmlns="http://www.w3.org/2000/svg">
<g filter="url(#filter1_d_11_735)">
<path d="M1064.81 465.373C1080.92 405.256 1031.64 277.19 969.605 271.766L502.959 304.841C440.925 299.417 377.571 343.754 361.454 403.871L206.294 800.788C190.177 860.905 258.189 981.033 320.223 986.458L798.93 1028.32C860.964 1033.74 924.318 989.404 940.435 929.287L1064.81 465.373Z" fill="url(#paint0_linear_11_735)"/>
</g>
<rect width="705.706" height="705.706" rx="126" transform="matrix(-0.996195 -0.0871557 -0.258819 0.965926 1062.67 273.506)" fill="url(#paint1_linear_11_735)"/>
<rect width="672.983" height="655.062" rx="126" transform="matrix(-0.996195 -0.0871557 -0.258819 0.965926 1030.07 270.823)" fill="#FA8220"/>
<g clip-path="url(#clip0_11_735)">
<path d="M486.496 370.818L860.069 403.501L763.012 765.723L389.439 733.04L486.496 370.818ZM503.782 681.258C505.68 691.405 510.933 700.256 518.851 706.647C526.768 713.038 536.979 716.668 548.139 717.061C555.06 718.424 562.479 718.231 569.847 716.498C577.216 714.765 584.346 711.536 590.708 707.049C597.071 702.563 602.504 696.934 606.604 690.579C610.705 684.225 613.368 677.308 614.397 670.34L645.347 554.832L610.066 551.745L579.115 667.254C574.478 684.56 566.028 688.351 554.613 687.353C543.198 686.354 539.751 677.814 536.682 667.866L503.782 681.258ZM629.277 688.53C632.375 700.241 639.195 710.286 648.918 717.458C658.64 724.63 670.85 728.622 684.078 728.954C717.285 731.86 746.665 717.336 754.915 686.547C763.165 655.758 748.888 644.829 722.561 628.933L714.815 624.548C701.336 616.985 696.865 612.269 699.453 602.609C700.025 600.548 701.032 598.552 702.41 596.747C703.788 594.942 705.506 593.369 707.457 592.126C709.408 590.883 711.548 589.998 713.741 589.527C715.935 589.056 718.134 589.009 720.2 589.39C725.073 589.764 729.466 591.556 732.801 594.531C736.136 597.507 738.258 601.525 738.886 606.059L770.765 590.93C768.385 581.834 763.081 574.042 755.505 568.512C747.929 562.983 738.413 559.957 728.127 559.808C721.811 558.627 715.083 558.755 708.369 560.184C701.655 561.613 695.103 564.312 689.131 568.11C683.158 571.908 677.895 576.72 673.678 582.242C669.46 587.763 666.379 593.873 664.632 600.181C657.191 627.951 670.659 641.898 692.391 655.127L700.137 659.512C714.492 667.77 722.906 672.831 719.779 684.503C716.651 696.174 705.964 700.388 691.436 699.117C684.252 698.639 677.695 696.213 672.518 692.117C667.341 688.021 663.754 682.421 662.169 675.961L629.277 688.53Z" fill="url(#paint2_linear_11_735)"/>
</g>
<g clip-path="url(#clip1_11_735)">
<path d="M476.496 350.818L850.069 383.501L753.012 745.723L379.439 713.04L476.496 350.818ZM493.782 661.258C495.68 671.405 500.933 680.256 508.851 686.647C516.768 693.038 526.979 696.668 538.139 697.061C545.06 698.424 552.479 698.231 559.847 696.498C567.216 694.765 574.346 691.536 580.708 687.049C587.071 682.563 592.504 676.934 596.604 670.579C600.705 664.225 603.368 657.308 604.397 650.34L635.347 534.832L600.066 531.745L569.115 647.254C564.478 664.56 556.028 668.351 544.613 667.353C533.198 666.354 529.751 657.814 526.682 647.866L493.782 661.258ZM619.277 668.53C622.375 680.241 629.195 690.286 638.918 697.458C648.64 704.63 660.85 708.622 674.078 708.954C707.285 711.86 736.665 697.336 744.915 666.547C753.165 635.758 738.888 624.829 712.561 608.933L704.815 604.548C691.336 596.985 686.865 592.269 689.453 582.609C690.025 580.548 691.032 578.552 692.41 576.747C693.788 574.942 695.506 573.369 697.457 572.126C699.408 570.883 701.548 569.998 703.741 569.527C705.935 569.056 708.134 569.009 710.2 569.39C715.073 569.764 719.466 571.556 722.801 574.531C726.136 577.507 728.258 581.525 728.886 586.059L760.765 570.93C758.385 561.834 753.081 554.042 745.505 548.512C737.929 542.983 728.413 539.957 718.127 539.808C711.811 538.627 705.083 538.755 698.369 540.184C691.655 541.613 685.103 544.312 679.131 548.11C673.158 551.908 667.895 556.72 663.678 562.242C659.46 567.763 656.379 573.873 654.632 580.181C647.191 607.951 660.659 621.898 682.391 635.127L690.137 639.512C704.492 647.77 712.906 652.831 709.779 664.503C706.651 676.174 695.964 680.388 681.436 679.117C674.252 678.639 667.695 676.213 662.518 672.117C657.341 668.021 653.754 662.421 652.169 655.961L619.277 668.53Z" fill="white"/>
</g>
<defs>
<filter id="filter1_d_11_735" x="44.8926" y="271.766" width="1064" height="985" filterUnits="userSpaceOnUse" color-interpolation-filters="sRGB">
<feFlood flood-opacity="0" result="BackgroundImageFix"/>
<feColorMatrix in="SourceAlpha" type="matrix" values="0 0 0 0 0 0 0 0 0 0 0 0 0 0 0 0 0 0 127 0" result="hardAlpha"/>
<feOffset dx="-59" dy="128"/>
<feGaussianBlur stdDeviation="50"/>
<feComposite in2="hardAlpha" operator="out"/>
<feColorMatrix type="matrix" values="0 0 0 0 0.497127 0 0 0 0 0.448822 0 0 0 0 0.448822 0 0 0 0.22 0"/>
<feBlend mode="normal" in2="BackgroundImageFix" result="effect1_dropShadow_11_735"/>
<feBlend mode="normal" in="SourceGraphic" in2="effect1_dropShadow_11_735" result="shape"/>
</filter>
<linearGradient id="paint0_linear_11_735" x1="174.527" y1="557.071" x2="1083.87" y2="924.363" gradientUnits="userSpaceOnUse">
<stop stop-color="#DD7521"/>
<stop offset="1" stop-color="#773F12"/>
</linearGradient>
<linearGradient id="paint1_linear_11_735" x1="570.61" y1="848.295" x2="203.698" y2="-203.456" gradientUnits="userSpaceOnUse">
<stop stop-color="#FA8220"/>
<stop offset="1" stop-color="#8C4A15"/>
</linearGradient>
<linearGradient id="paint2_linear_11_735" x1="888.391" y1="359.51" x2="113.249" y2="669.629" gradientUnits="userSpaceOnUse">
<stop stop-color="white"/>
<stop offset="1" stop-color="#272121"/>
</linearGradient>
<clipPath id="clip0_11_735">
<rect width="500" height="500" fill="white" transform="matrix(0.996195 0.0871557 -0.258819 0.965926 440.41 305)"/>
</clipPath>
<clipPath id="clip1_11_735">
<rect width="500" height="500" fill="white" transform="matrix(0.996195 0.0871557 -0.258819 0.965926 430.41 285)"/>
</clipPath>
</defs>
</svg>
