<svg width="1244" height="1352" viewBox="0 0 1244 1352" fill="none" xmlns="http://www.w3.org/2000/svg">
<g filter="url(#filter1_d_11_735)">
<path d="M180.085 465.373C163.968 405.256 213.254 277.19 275.288 271.766L741.933 304.841C803.968 299.417 867.321 343.754 883.438 403.871L1038.6 800.788C1054.72 860.905 986.704 981.033 924.67 986.458L445.962 1028.32C383.928 1033.74 320.574 989.404 304.457 929.287L180.085 465.373Z" fill="url(#paint0_linear_11_735)"/>
</g>
<rect width="705.706" height="705.706" rx="126" transform="matrix(0.996195 -0.0871557 0.258819 0.965926 182.221 273.506)" fill="url(#paint1_linear_11_735)"/>
<rect width="672.983" height="655.062" rx="126" transform="matrix(0.996195 -0.0871557 0.258819 0.965926 214.82 270.823)" fill="#FA8220"/>
<g clip-path="url(#clip0_11_735)">
<path d="M399.438 393.501L773.011 360.818L870.068 723.04L496.495 755.723L399.438 393.501ZM578.485 686.764C585.609 696.122 595.257 703.67 606.158 708.414C617.059 713.158 628.704 714.877 639.558 713.344C646.875 713.461 653.853 712.009 659.977 709.095C666.101 706.182 671.213 701.881 674.934 696.512C678.656 691.143 680.893 684.844 681.478 678.079C682.064 671.315 680.983 664.259 678.316 657.435L647.366 541.926L612.084 545.013L643.034 660.522C647.671 677.828 641.594 682.891 630.179 683.889C618.764 684.888 611.004 677.329 602.866 668.361L578.485 686.764ZM702.039 672.248C711.127 682.892 722.895 691.311 735.927 696.492C748.96 701.673 762.701 703.395 775.497 701.451C808.704 698.545 829.133 679.664 820.883 648.875C812.633 618.086 793.288 610.099 759.844 599.432L750.157 596.573C733.335 591.66 726.599 587.924 724.01 578.265C723.477 576.2 723.392 574.123 723.762 572.166C724.132 570.208 724.948 568.413 726.158 566.893C727.369 565.374 728.947 564.164 730.794 563.339C732.64 562.515 734.715 562.094 736.885 562.104C741.73 561.628 746.861 562.587 751.601 564.856C756.341 567.124 760.469 570.596 763.443 574.815L785.94 554.929C778.906 546.656 769.765 540.128 759.641 536.147C749.516 532.166 738.852 530.906 728.959 532.523C722.314 532.475 715.96 533.747 710.302 536.259C704.645 538.77 699.807 542.466 696.096 547.111C692.386 551.756 689.884 557.248 688.751 563.237C687.617 569.227 687.877 575.583 689.513 581.901C696.954 609.671 717.108 620.677 744.771 629.584L754.458 632.444C772.48 637.87 783.159 641.26 786.286 652.932C789.414 664.603 781.422 670.451 766.894 671.722C759.789 672.495 752.262 671.3 745.177 668.277C738.092 665.254 731.737 660.524 726.843 654.631L702.039 672.248Z" fill="url(#paint2_linear_11_735)"/>
</g>
<g clip-path="url(#clip1_11_735)">
<path d="M409.438 373.501L783.011 340.818L880.068 703.04L506.495 735.723L409.438 373.501ZM588.485 666.764C595.609 676.122 605.257 683.67 616.158 688.414C627.059 693.158 638.704 694.877 649.558 693.344C656.875 693.461 663.853 692.009 669.977 689.095C676.101 686.182 681.213 681.881 684.934 676.512C688.656 671.143 690.893 664.844 691.478 658.079C692.064 651.315 690.983 644.259 688.316 637.435L657.366 521.926L622.084 525.013L653.034 640.522C657.671 657.828 651.594 662.891 640.179 663.889C628.764 664.888 621.004 657.329 612.866 648.361L588.485 666.764ZM712.039 652.248C721.127 662.892 732.895 671.311 745.927 676.492C758.96 681.673 772.701 683.395 785.497 681.451C818.704 678.545 839.133 659.664 830.883 628.875C822.633 598.086 803.288 590.099 769.844 579.432L760.157 576.573C743.335 571.66 736.599 567.924 734.01 558.265C733.477 556.2 733.392 554.123 733.762 552.166C734.132 550.208 734.948 548.413 736.158 546.893C737.369 545.374 738.947 544.164 740.794 543.339C742.64 542.515 744.715 542.094 746.885 542.104C751.73 541.628 756.861 542.587 761.601 544.856C766.341 547.124 770.469 550.596 773.443 554.815L795.94 534.929C788.906 526.656 779.765 520.128 769.641 516.147C759.516 512.166 748.852 510.906 738.959 512.523C732.314 512.475 725.96 513.747 720.302 516.259C714.645 518.77 709.807 522.466 706.096 527.111C702.386 531.756 699.884 537.248 698.751 543.237C697.617 549.227 697.877 555.583 699.513 561.901C706.954 589.671 727.108 600.677 754.771 609.584L764.458 612.444C782.48 617.87 793.159 621.26 796.286 632.932C799.414 644.603 791.422 650.451 776.894 651.722C769.789 652.495 762.262 651.3 755.177 648.277C748.092 645.254 741.737 640.524 736.843 634.631L712.039 652.248Z" fill="white"/>
</g>
<defs>
<filter id="filter1_d_11_735" x="18" y="271.766" width="1064" height="985" filterUnits="userSpaceOnUse" color-interpolation-filters="sRGB">
<feFlood flood-opacity="0" result="BackgroundImageFix"/>
<feColorMatrix in="SourceAlpha" type="matrix" values="0 0 0 0 0 0 0 0 0 0 0 0 0 0 0 0 0 0 127 0" result="hardAlpha"/>
<feOffset dx="-59" dy="128"/>
<feGaussianBlur stdDeviation="50"/>
<feComposite in2="hardAlpha" operator="out"/>
<feColorMatrix type="matrix" values="0 0 0 0 0.497127 0 0 0 0 0.448822 0 0 0 0 0.448822 0 0 0 0.22 0"/>
<feBlend mode="normal" in2="BackgroundImageFix" result="effect1_dropShadow_11_735"/>
<feBlend mode="normal" in="SourceGraphic" in2="effect1_dropShadow_11_735" result="shape"/>
</filter>
<linearGradient id="paint0_linear_11_735" x1="1070.37" y1="557.071" x2="161.022" y2="924.363" gradientUnits="userSpaceOnUse">
<stop stop-color="#DD7521"/>
<stop offset="1" stop-color="#773F12"/>
</linearGradient>
<linearGradient id="paint1_linear_11_735" x1="570.61" y1="848.295" x2="203.698" y2="-203.456" gradientUnits="userSpaceOnUse">
<stop stop-color="#FA8220"/>
<stop offset="1" stop-color="#8C4A15"/>
</linearGradient>
<linearGradient id="paint2_linear_11_735" x1="777" y1="314" x2="280.522" y2="821.457" gradientUnits="userSpaceOnUse">
<stop stop-color="white"/>
<stop offset="1" stop-color="#272121"/>
</linearGradient>
<clipPath id="clip0_11_735">
<rect width="500" height="500" fill="white" transform="matrix(0.996195 -0.0871557 0.258819 0.965926 321 338.578)"/>
</clipPath>
<clipPath id="clip1_11_735">
<rect width="500" height="500" fill="white" transform="matrix(0.996195 -0.0871557 0.258819 0.965926 331 318.578)"/>
</clipPath>
</defs>
</svg>
