<svg width="1244" height="1352" viewBox="0 0 1244 1352" fill="none" xmlns="http://www.w3.org/2000/svg">
<g filter="url(#filter1_d_11_707)">
<path d="M1064.81 465.373C1080.92 405.256 1031.64 277.19 969.604 271.766L502.958 304.841C440.924 299.417 377.57 343.754 361.453 403.871L206.293 800.788C190.176 860.905 258.188 981.033 320.222 986.458L798.929 1028.32C860.964 1033.74 924.317 989.404 940.434 929.287L1064.81 465.373Z" fill="url(#paint0_linear_11_707)"/>
</g>
<rect width="705.706" height="705.706" rx="126" transform="matrix(-0.996195 -0.0871557 -0.258819 0.965926 1062.67 273.506)" fill="url(#paint1_linear_11_707)"/>
<rect width="672.983" height="655.062" rx="126" transform="matrix(-0.996195 -0.0871557 -0.258819 0.965926 1030.07 270.823)" fill="#FA8220"/>
<g clip-path="url(#clip0_11_707)">
<path d="M806.776 437.116L731.287 718.845L440.73 693.424L516.219 411.696L806.776 437.116ZM817.56 396.87L527.003 371.449C515.995 370.486 504.301 373.803 494.494 380.669C484.687 387.536 477.571 397.39 474.711 408.065L399.222 689.793C396.362 700.467 397.992 711.087 403.754 719.315C409.516 727.544 418.937 732.708 429.946 733.671L720.503 759.092C731.512 760.055 743.205 756.738 753.012 749.872C762.819 743.005 769.935 733.15 772.795 722.476L848.284 440.748C851.144 430.074 849.514 419.454 843.752 411.225C837.99 402.997 828.569 397.833 817.56 396.87Z" fill="url(#paint2_linear_11_707)"/>
<path d="M641.488 536.341C639.994 543.664 636.805 550.845 632.157 557.354C627.509 563.863 621.519 569.533 614.632 573.946C598.541 582.558 580.617 585.885 564.115 583.325L549.379 582.036L534.282 638.382L498.792 635.277L541.174 477.106L594.097 481.737C610.437 482.073 625.187 487.881 635.79 498.153C639.908 503.185 642.564 509.248 643.552 515.871C644.541 522.494 643.834 529.499 641.488 536.341ZM556.713 554.668L568.127 555.667C576.396 556.976 585.349 555.589 593.612 551.718C596.848 549.755 599.677 547.179 601.877 544.192C604.078 541.205 605.59 537.888 606.298 534.498C607.421 531.341 607.824 528.102 607.478 525.011C607.131 521.919 606.044 519.051 604.293 516.611C599.43 511.856 592.6 509.211 585.049 509.161L569.276 507.781L556.713 554.668Z" fill="url(#paint3_linear_11_707)"/>
<path d="M726.88 529.189C730.866 529.053 734.771 529.395 738.502 530.206L727.555 560.759C724.471 559.774 721.219 559.144 717.862 558.881C708.821 557.512 698.984 559.6 690.385 564.715C686.503 567.395 683.139 570.736 680.515 574.517C677.891 578.299 676.066 582.436 675.161 586.656L658.661 648.234L624.624 645.256L656.977 524.515L682.712 526.767L682.301 547.326L683.961 547.471C689.47 541.14 696.407 536.001 704.102 532.551C711.543 529.359 719.47 528.189 726.88 529.189Z" fill="url(#paint4_linear_11_707)"/>
</g>
<g clip-path="url(#clip1_11_707)">
<path d="M795.776 425.116L720.287 706.845L429.73 681.424L505.219 399.696L795.776 425.116ZM806.56 384.87L516.003 359.449C504.995 358.486 493.301 361.803 483.494 368.669C473.687 375.536 466.571 385.39 463.711 396.065L388.222 677.793C385.362 688.467 386.992 699.087 392.754 707.315C398.516 715.544 407.937 720.708 418.946 721.671L709.503 747.092C720.512 748.055 732.205 744.738 742.012 737.872C751.819 731.005 758.935 721.15 761.795 710.476L837.284 428.748C840.144 418.074 838.514 407.454 832.752 399.225C826.99 390.997 817.569 385.833 806.56 384.87Z" fill="white"/>
<path d="M630.488 524.341C628.994 531.664 625.805 538.845 621.157 545.354C616.509 551.863 610.519 557.533 603.632 561.946C587.541 570.558 569.617 573.885 553.115 571.325L538.379 570.036L523.282 626.382L487.792 623.277L530.174 465.106L583.097 469.737C599.437 470.073 614.187 475.881 624.79 486.153C628.908 491.185 631.564 497.248 632.552 503.871C633.541 510.494 632.834 517.499 630.488 524.341ZM545.713 542.668L557.127 543.667C565.396 544.976 574.349 543.589 582.612 539.718C585.848 537.755 588.677 535.179 590.877 532.192C593.078 529.205 594.59 525.888 595.298 522.498C596.421 519.341 596.824 516.102 596.478 513.011C596.131 509.919 595.044 507.051 593.293 504.611C588.43 499.856 581.6 497.211 574.049 497.161L558.276 495.781L545.713 542.668Z" fill="white"/>
<path d="M715.88 517.189C719.866 517.053 723.771 517.395 727.502 518.206L716.555 548.759C713.471 547.774 710.219 547.144 706.862 546.881C697.821 545.512 687.984 547.6 679.385 552.715C675.503 555.395 672.139 558.736 669.515 562.517C666.891 566.299 665.066 570.436 664.161 574.656L647.661 636.234L613.624 633.256L645.977 512.515L671.712 514.767L671.301 535.326L672.961 535.471C678.47 529.14 685.407 524.001 693.102 520.551C700.543 517.359 708.47 516.189 715.88 517.189Z" fill="white"/>
</g>
<defs>
<filter id="filter1_d_11_707" x="44.8916" y="271.766" width="1064" height="985" filterUnits="userSpaceOnUse" color-interpolation-filters="sRGB">
<feFlood flood-opacity="0" result="BackgroundImageFix"/>
<feColorMatrix in="SourceAlpha" type="matrix" values="0 0 0 0 0 0 0 0 0 0 0 0 0 0 0 0 0 0 127 0" result="hardAlpha"/>
<feOffset dx="-59" dy="128"/>
<feGaussianBlur stdDeviation="50"/>
<feComposite in2="hardAlpha" operator="out"/>
<feColorMatrix type="matrix" values="0 0 0 0 0.497127 0 0 0 0 0.448822 0 0 0 0 0.448822 0 0 0 0.22 0"/>
<feBlend mode="normal" in2="BackgroundImageFix" result="effect1_dropShadow_11_707"/>
<feBlend mode="normal" in="SourceGraphic" in2="effect1_dropShadow_11_707" result="shape"/>
</filter>
<linearGradient id="paint0_linear_11_707" x1="174.526" y1="557.071" x2="1083.87" y2="924.363" gradientUnits="userSpaceOnUse">
<stop stop-color="#DD7521"/>
<stop offset="1" stop-color="#773F12"/>
</linearGradient>
<linearGradient id="paint1_linear_11_707" x1="570.61" y1="848.295" x2="203.698" y2="-203.456" gradientUnits="userSpaceOnUse">
<stop stop-color="#FA8220"/>
<stop offset="1" stop-color="#8C4A15"/>
</linearGradient>
<linearGradient id="paint2_linear_11_707" x1="924.06" y1="283.956" x2="239.549" y2="702.602" gradientUnits="userSpaceOnUse">
<stop stop-color="white"/>
<stop offset="1" stop-color="#463D3D"/>
</linearGradient>
<linearGradient id="paint3_linear_11_707" x1="692.26" y1="368.221" x2="295.672" y2="506.372" gradientUnits="userSpaceOnUse">
<stop stop-color="white"/>
<stop offset="1" stop-color="#463D3D"/>
</linearGradient>
<linearGradient id="paint4_linear_11_707" x1="767.213" y1="438.001" x2="475.191" y2="526.528" gradientUnits="userSpaceOnUse">
<stop stop-color="white"/>
<stop offset="1" stop-color="#463D3D"/>
</linearGradient>
<clipPath id="clip0_11_707">
<rect width="500" height="500" fill="white" transform="matrix(0.996195 0.0871557 -0.258819 0.965926 439.409 302)"/>
</clipPath>
<clipPath id="clip1_11_707">
<rect width="500" height="500" fill="white" transform="matrix(0.996195 0.0871557 -0.258819 0.965926 428.409 290)"/>
</clipPath>
</defs>
</svg>
