<svg width="1244" height="1352" viewBox="0 0 1244 1352" fill="none" xmlns="http://www.w3.org/2000/svg">
<g filter="url(#filter1_d_11_707)">
<path d="M180.085 465.373C163.968 405.256 213.254 277.19 275.288 271.766L741.933 304.841C803.968 299.417 867.321 343.754 883.438 403.871L1038.6 800.788C1054.72 860.905 986.704 981.033 924.67 986.458L445.962 1028.32C383.928 1033.74 320.574 989.404 304.457 929.287L180.085 465.373Z" fill="url(#paint0_linear_11_707)"/>
</g>
<rect width="705.706" height="705.706" rx="126" transform="matrix(0.996195 -0.0871557 0.258819 0.965926 182.221 273.506)" fill="url(#paint1_linear_11_707)"/>
<rect width="672.983" height="655.062" rx="126" transform="matrix(0.996195 -0.0871557 0.258819 0.965926 214.819 270.823)" fill="#FA8220"/>
<g clip-path="url(#clip0_11_707)">
<path d="M742.288 404.696L817.776 686.424L527.22 711.845L451.731 430.116L742.288 404.696ZM731.503 364.449L440.947 389.87C429.938 390.833 420.516 395.997 414.755 404.225C408.993 412.454 407.362 423.074 410.223 433.748L485.712 715.476C488.572 726.15 495.688 736.005 505.494 742.872C515.301 749.738 526.995 753.055 538.004 752.092L828.561 726.671C839.569 725.708 848.991 720.544 854.753 712.315C860.514 704.087 862.145 693.467 859.285 682.793L783.796 401.065C780.936 390.39 773.819 380.536 764.013 373.669C754.206 366.803 742.512 363.486 731.503 364.449Z" fill="url(#paint2_linear_11_707)"/>
<path d="M636.527 527.634C638.936 534.877 639.654 542.274 638.626 549.28C637.599 556.285 634.853 562.72 630.592 568.108C619.747 579.076 604.388 585.316 587.301 585.695L572.565 586.984L587.663 643.329L552.174 646.434L509.792 488.264L562.715 483.634C578.483 481.161 595.599 484.181 611.094 492.17C617.658 496.267 623.367 501.598 627.779 507.749C632.19 513.9 635.184 520.705 636.527 527.634ZM565.232 559.616L576.647 558.617C585.223 558.453 593.038 555.599 598.896 550.492C600.956 548.065 602.307 545.124 602.842 541.898C603.378 538.672 603.084 535.248 601.984 531.892C601.403 528.688 600.091 525.528 598.142 522.638C596.193 519.747 593.654 517.196 590.705 515.167C583.575 511.461 575.673 510.106 568.442 511.348L552.669 512.728L565.232 559.616Z" fill="url(#paint3_linear_11_707)"/>
<path d="M714.262 506.211C717.994 505.4 721.899 505.058 725.884 505.194L731.436 536.219C727.978 535.807 724.546 535.761 721.204 536.084C711.861 536.323 703.568 539.998 698.041 546.349C695.74 549.57 694.279 553.332 693.756 557.389C693.232 561.446 693.657 565.706 695.003 569.887L711.502 631.465L677.466 634.443L645.113 513.702L670.848 511.451L681.221 531.138L682.882 530.993C684.824 524.01 688.752 517.921 694.287 513.313C699.716 508.995 706.667 506.523 714.262 506.211Z" fill="url(#paint4_linear_11_707)"/>
</g>
<g clip-path="url(#clip1_11_707)">
<path d="M748.288 394.696L823.776 676.424L533.22 701.845L457.731 420.116L748.288 394.696ZM737.503 354.449L446.947 379.87C435.938 380.833 426.516 385.997 420.755 394.225C414.993 402.454 413.362 413.074 416.223 423.748L491.712 705.476C494.572 716.15 501.688 726.005 511.494 732.872C521.301 739.738 532.995 743.055 544.004 742.092L834.561 716.671C845.569 715.708 854.991 710.544 860.753 702.315C866.514 694.087 868.145 683.467 865.285 672.793L789.796 391.065C786.936 380.39 779.819 370.536 770.013 363.669C760.206 356.803 748.512 353.486 737.503 354.449Z" fill="white"/>
<path d="M642.527 517.634C644.936 524.877 645.654 532.274 644.626 539.28C643.599 546.285 640.853 552.72 636.592 558.108C625.747 569.076 610.388 575.316 593.301 575.695L578.565 576.984L593.663 633.329L558.174 636.434L515.792 478.264L568.715 473.634C584.483 471.161 601.599 474.181 617.094 482.17C623.658 486.267 629.367 491.598 633.779 497.749C638.19 503.9 641.184 510.705 642.527 517.634ZM571.232 549.616L582.647 548.617C591.223 548.453 599.038 545.599 604.896 540.492C606.956 538.065 608.307 535.124 608.842 531.898C609.378 528.672 609.084 525.248 607.984 521.892C607.403 518.688 606.091 515.528 604.142 512.638C602.193 509.747 599.654 507.196 596.705 505.167C589.575 501.461 581.673 500.106 574.442 501.348L558.669 502.728L571.232 549.616Z" fill="white"/>
<path d="M720.262 496.211C723.994 495.4 727.899 495.058 731.884 495.194L737.436 526.219C733.978 525.807 730.546 525.761 727.204 526.084C717.861 526.323 709.568 529.998 704.041 536.349C701.74 539.57 700.279 543.332 699.756 547.389C699.232 551.446 699.657 555.706 701.003 559.887L717.502 621.465L683.466 624.443L651.113 503.702L676.848 501.451L687.221 521.138L688.882 520.993C690.824 514.01 694.752 507.921 700.287 503.313C705.716 498.995 712.667 496.523 720.262 496.211Z" fill="white"/>
</g>
<defs>
<filter id="filter1_d_11_707" x="18" y="271.766" width="1064" height="985" filterUnits="userSpaceOnUse" color-interpolation-filters="sRGB">
<feFlood flood-opacity="0" result="BackgroundImageFix"/>
<feColorMatrix in="SourceAlpha" type="matrix" values="0 0 0 0 0 0 0 0 0 0 0 0 0 0 0 0 0 0 127 0" result="hardAlpha"/>
<feOffset dx="-59" dy="128"/>
<feGaussianBlur stdDeviation="50"/>
<feComposite in2="hardAlpha" operator="out"/>
<feColorMatrix type="matrix" values="0 0 0 0 0.497127 0 0 0 0 0.448822 0 0 0 0 0.448822 0 0 0 0.22 0"/>
<feBlend mode="normal" in2="BackgroundImageFix" result="effect1_dropShadow_11_707"/>
<feBlend mode="normal" in="SourceGraphic" in2="effect1_dropShadow_11_707" result="shape"/>
</filter>
<linearGradient id="paint0_linear_11_707" x1="1070.37" y1="557.071" x2="161.022" y2="924.363" gradientUnits="userSpaceOnUse">
<stop stop-color="#DD7521"/>
<stop offset="1" stop-color="#773F12"/>
</linearGradient>
<linearGradient id="paint1_linear_11_707" x1="570.61" y1="848.295" x2="203.698" y2="-203.456" gradientUnits="userSpaceOnUse">
<stop stop-color="#FA8220"/>
<stop offset="1" stop-color="#8C4A15"/>
</linearGradient>
<linearGradient id="paint2_linear_11_707" x1="774" y1="238.5" x2="363.725" y2="773.158" gradientUnits="userSpaceOnUse">
<stop stop-color="white"/>
<stop offset="1" stop-color="#463D3D"/>
</linearGradient>
<linearGradient id="paint3_linear_11_707" x1="596.942" y1="358.535" x2="337.437" y2="606.839" gradientUnits="userSpaceOnUse">
<stop stop-color="white"/>
<stop offset="1" stop-color="#463D3D"/>
</linearGradient>
<linearGradient id="paint4_linear_11_707" x1="704.998" y1="412.305" x2="509.936" y2="588.026" gradientUnits="userSpaceOnUse">
<stop stop-color="white"/>
<stop offset="1" stop-color="#463D3D"/>
</linearGradient>
<clipPath id="clip0_11_707">
<rect width="500" height="500" fill="white" transform="matrix(0.996195 -0.0871557 0.258819 0.965926 321 338.578)"/>
</clipPath>
<clipPath id="clip1_11_707">
<rect width="500" height="500" fill="white" transform="matrix(0.996195 -0.0871557 0.258819 0.965926 327 328.578)"/>
</clipPath>
</defs>
</svg>
