<svg width="1244" height="1352" viewBox="0 0 1244 1352" fill="none" xmlns="http://www.w3.org/2000/svg">
<g filter="url(#filter1_d_11_703)">
<path d="M1064.81 465.373C1080.92 405.256 1031.64 277.19 969.604 271.766L502.958 304.841C440.924 299.417 377.57 343.754 361.453 403.871L206.293 800.788C190.176 860.905 258.188 981.033 320.222 986.458L798.929 1028.32C860.964 1033.74 924.317 989.404 940.434 929.287L1064.81 465.373Z" fill="url(#paint0_linear_11_703)"/>
</g>
<rect width="705.706" height="705.706" rx="126" transform="matrix(-0.996195 -0.0871557 -0.258819 0.965926 1062.67 273.506)" fill="url(#paint1_linear_11_703)"/>
<rect width="672.983" height="655.062" rx="126" transform="matrix(-0.996195 -0.0871557 -0.258819 0.965926 1030.07 270.823)" fill="#FA8220"/>
<g clip-path="url(#clip0_11_703)">
<path d="M804.776 436.116L729.287 717.845L438.73 692.424L514.219 410.696L804.776 436.116ZM815.56 395.87L525.003 370.449C513.995 369.486 502.301 372.803 492.494 379.669C482.687 386.536 475.571 396.39 472.711 407.065L397.222 688.793C394.362 699.467 395.992 710.087 401.754 718.315C407.516 726.544 416.937 731.708 427.946 732.671L718.503 758.092C729.512 759.055 741.205 755.738 751.012 748.872C760.819 742.005 767.935 732.15 770.795 721.476L846.284 439.748C849.144 429.074 847.514 418.454 841.752 410.225C835.99 401.997 826.569 396.833 815.56 395.87Z" fill="url(#paint2_linear_11_703)"/>
<path d="M632.286 533.681C630.777 541.02 627.559 548.213 622.873 554.722C618.186 561.231 612.152 566.888 605.222 571.268C589.211 579.889 571.351 583.225 554.913 580.665L540.178 579.376L525.134 635.521L490.475 632.488L532.91 474.117L585.003 478.674C601.343 479.011 616.094 484.819 626.696 495.091C630.877 500.161 633.56 506.292 634.53 512.993C635.501 519.694 634.733 526.779 632.286 533.681ZM547.511 552.008L558.718 552.989C566.785 554.099 575.457 552.617 583.427 548.766C586.722 546.93 589.605 544.41 591.812 541.437C594.019 538.463 595.479 535.131 596.058 531.747C597.222 528.561 597.651 525.284 597.313 522.155C596.976 519.027 595.881 516.124 594.108 513.659C589.22 508.935 582.401 506.295 574.864 506.209L560.128 504.919L547.511 552.008Z" fill="url(#paint3_linear_11_703)"/>
<path d="M720.896 615.988C719.74 621.43 717.239 626.743 713.604 631.479C709.969 636.215 705.307 640.235 700.01 643.2C686.179 649.381 671.323 651.542 657.574 649.373C649.757 648.794 642.137 647.507 634.815 645.528C628.899 643.912 623.311 641.627 618.161 638.717L625.44 611.55C631.351 615.095 637.642 618.125 644.253 620.61C650.593 622.882 657.3 624.436 664.252 625.243C676.497 626.315 683.64 623.438 685.473 616.596C685.838 615.42 685.959 614.226 685.827 613.082C685.696 611.939 685.315 610.87 684.708 609.939C682.86 607.491 680.548 605.411 677.863 603.779L663.615 595.119C657.006 591.697 651.013 587.437 645.773 582.436C642.431 579.126 640.122 574.97 639.038 570.314C638.182 565.1 638.573 559.585 640.185 554.144C641.297 549.254 643.672 544.506 647.09 540.341C650.508 536.176 654.858 532.728 659.739 530.316C672.441 524.8 686.008 522.827 698.638 524.658C713.794 525.992 727.873 530.602 739.841 538.148L723.309 561.004C718.279 558.056 713.035 555.397 707.601 553.039C702.651 550.966 697.273 549.662 691.645 549.172C681.475 548.282 675.793 550.463 674.391 555.695C674.054 557.284 674.147 558.861 674.66 560.276C675.173 561.691 676.09 562.897 677.323 563.777C682.852 568.235 688.937 572.079 695.489 575.252C702.056 578.674 708.06 582.861 713.386 587.734C716.791 591.106 719.152 595.336 720.274 600.076C721.871 605.04 722.085 610.501 720.896 615.988Z" fill="url(#paint4_linear_11_703)"/>
</g>
<g clip-path="url(#clip1_11_703)">
<path d="M795.776 424.116L720.287 705.845L429.73 680.424L505.219 398.696L795.776 424.116ZM806.56 383.87L516.003 358.449C504.995 357.486 493.301 360.803 483.494 367.669C473.687 374.536 466.571 384.39 463.711 395.065L388.222 676.793C385.362 687.467 386.992 698.087 392.754 706.315C398.516 714.544 407.937 719.708 418.946 720.671L709.503 746.092C720.512 747.055 732.205 743.738 742.012 736.872C751.819 730.005 758.935 720.15 761.795 709.476L837.284 427.748C840.144 417.074 838.514 406.454 832.752 398.225C826.99 389.997 817.569 384.833 806.56 383.87Z" fill="white"/>
<path d="M623.286 521.681C621.777 529.02 618.559 536.213 613.873 542.722C609.186 549.231 603.152 554.888 596.222 559.268C580.211 567.889 562.351 571.225 545.913 568.665L531.178 567.376L516.134 623.521L481.475 620.488L523.91 462.117L576.003 466.674C592.343 467.011 607.094 472.819 617.696 483.091C621.877 488.161 624.56 494.292 625.53 500.993C626.501 507.694 625.733 514.779 623.286 521.681ZM538.511 540.008L549.718 540.989C557.785 542.099 566.457 540.617 574.427 536.766C577.722 534.93 580.605 532.41 582.812 529.437C585.019 526.463 586.479 523.131 587.058 519.747C588.222 516.561 588.651 513.284 588.313 510.155C587.976 507.027 586.881 504.124 585.108 501.659C580.22 496.935 573.401 494.295 565.864 494.209L551.128 492.919L538.511 540.008Z" fill="white"/>
<path d="M711.896 603.988C710.74 609.43 708.239 614.743 704.604 619.479C700.969 624.215 696.307 628.235 691.01 631.2C677.179 637.381 662.323 639.542 648.574 637.373C640.757 636.794 633.137 635.507 625.815 633.528C619.899 631.912 614.311 629.627 609.161 626.717L616.44 599.55C622.351 603.095 628.642 606.125 635.253 608.61C641.593 610.882 648.3 612.436 655.252 613.243C667.497 614.315 674.64 611.438 676.473 604.596C676.838 603.42 676.959 602.226 676.827 601.082C676.696 599.939 676.315 598.87 675.708 597.939C673.86 595.491 671.548 593.411 668.863 591.779L654.615 583.119C648.006 579.697 642.013 575.437 636.773 570.436C633.431 567.126 631.122 562.97 630.038 558.314C629.182 553.1 629.573 547.585 631.185 542.144C632.297 537.254 634.672 532.506 638.09 528.341C641.508 524.176 645.858 520.728 650.739 518.316C663.441 512.8 677.008 510.827 689.638 512.658C704.794 513.992 718.873 518.602 730.841 526.148L714.309 549.004C709.279 546.056 704.035 543.397 698.601 541.039C693.651 538.966 688.273 537.662 682.645 537.172C672.475 536.282 666.793 538.463 665.391 543.695C665.054 545.284 665.147 546.861 665.66 548.276C666.173 549.691 667.09 550.897 668.323 551.777C673.852 556.235 679.937 560.079 686.489 563.252C693.056 566.674 699.06 570.861 704.386 575.734C707.791 579.106 710.152 583.336 711.274 588.076C712.871 593.04 713.085 598.501 711.896 603.988Z" fill="white"/>
</g>
<defs>
<filter id="filter1_d_11_703" x="44.8916" y="271.766" width="1064" height="985" filterUnits="userSpaceOnUse" color-interpolation-filters="sRGB">
<feFlood flood-opacity="0" result="BackgroundImageFix"/>
<feColorMatrix in="SourceAlpha" type="matrix" values="0 0 0 0 0 0 0 0 0 0 0 0 0 0 0 0 0 0 127 0" result="hardAlpha"/>
<feOffset dx="-59" dy="128"/>
<feGaussianBlur stdDeviation="50"/>
<feComposite in2="hardAlpha" operator="out"/>
<feColorMatrix type="matrix" values="0 0 0 0 0.497127 0 0 0 0 0.448822 0 0 0 0 0.448822 0 0 0 0.22 0"/>
<feBlend mode="normal" in2="BackgroundImageFix" result="effect1_dropShadow_11_703"/>
<feBlend mode="normal" in="SourceGraphic" in2="effect1_dropShadow_11_703" result="shape"/>
</filter>
<linearGradient id="paint0_linear_11_703" x1="174.526" y1="557.071" x2="1083.87" y2="924.363" gradientUnits="userSpaceOnUse">
<stop stop-color="#DD7521"/>
<stop offset="1" stop-color="#773F12"/>
</linearGradient>
<linearGradient id="paint1_linear_11_703" x1="570.61" y1="848.295" x2="203.698" y2="-203.456" gradientUnits="userSpaceOnUse">
<stop stop-color="#FA8220"/>
<stop offset="1" stop-color="#8C4A15"/>
</linearGradient>
<linearGradient id="paint2_linear_11_703" x1="944.466" y1="292.735" x2="217.785" y2="656.32" gradientUnits="userSpaceOnUse">
<stop stop-color="white"/>
<stop offset="1" stop-color="#483C3C"/>
</linearGradient>
<linearGradient id="paint3_linear_11_703" x1="649.429" y1="424.127" x2="365.625" y2="483.681" gradientUnits="userSpaceOnUse">
<stop stop-color="white"/>
<stop offset="1" stop-color="#483C3C"/>
</linearGradient>
<linearGradient id="paint4_linear_11_703" x1="746.639" y1="481.19" x2="510.978" y2="537.509" gradientUnits="userSpaceOnUse">
<stop stop-color="white"/>
<stop offset="1" stop-color="#483C3C"/>
</linearGradient>
<clipPath id="clip0_11_703">
<rect width="500" height="500" fill="white" transform="matrix(0.996195 0.0871557 -0.258819 0.965926 437.409 301)"/>
</clipPath>
<clipPath id="clip1_11_703">
<rect width="500" height="500" fill="white" transform="matrix(0.996195 0.0871557 -0.258819 0.965926 428.409 289)"/>
</clipPath>
</defs>
</svg>
