<svg width="1244" height="1352" viewBox="0 0 1244 1352" fill="none" xmlns="http://www.w3.org/2000/svg">
<g filter="url(#filter1_d_11_703)">
<path d="M180.085 465.373C163.968 405.256 213.254 277.19 275.288 271.766L741.933 304.841C803.968 299.417 867.321 343.754 883.438 403.871L1038.6 800.788C1054.72 860.905 986.704 981.033 924.67 986.458L445.962 1028.32C383.928 1033.74 320.574 989.404 304.457 929.287L180.085 465.373Z" fill="url(#paint0_linear_11_703)"/>
</g>
<rect width="705.706" height="705.706" rx="126" transform="matrix(0.996195 -0.0871557 0.258819 0.965926 182.221 273.506)" fill="url(#paint1_linear_11_703)"/>
<rect width="672.983" height="655.062" rx="126" transform="matrix(0.996195 -0.0871557 0.258819 0.965926 214.819 270.823)" fill="#FA8220"/>
<g clip-path="url(#clip0_11_703)">
<path d="M742.288 404.696L817.776 686.424L527.22 711.845L451.731 430.116L742.288 404.696ZM731.503 364.449L440.947 389.87C429.938 390.833 420.516 395.997 414.755 404.225C408.993 412.454 407.362 423.074 410.223 433.748L485.712 715.476C488.572 726.15 495.688 736.005 505.494 742.872C515.301 749.738 526.995 753.055 538.004 752.092L828.561 726.671C839.569 725.708 848.991 720.544 854.753 712.315C860.514 704.087 862.145 693.467 859.285 682.793L783.796 401.065C780.936 390.39 773.819 380.536 764.013 373.669C754.206 366.803 742.512 363.486 731.503 364.449Z" fill="url(#paint2_linear_11_703)"/>
<path d="M628.786 527.282C631.19 534.543 631.885 541.956 630.822 548.968C629.758 555.981 626.962 562.409 622.644 567.774C611.88 578.737 596.585 584.974 579.56 585.342L564.824 586.631L579.868 642.776L545.209 645.808L502.773 487.436L554.866 482.879C570.634 480.406 587.75 483.426 603.245 491.415C609.889 495.538 615.66 500.929 620.095 507.158C624.53 513.386 627.507 520.278 628.786 527.282ZM557.491 559.263L568.698 558.283C576.977 557.963 584.475 555.066 590.064 550.029C592.247 547.714 593.678 544.816 594.227 541.602C594.776 538.387 594.425 534.958 593.205 531.63C592.647 528.391 591.341 525.191 589.38 522.263C587.42 519.335 584.856 516.753 581.873 514.704C574.735 511.032 566.847 509.679 559.609 510.885L544.874 512.174L557.491 559.263Z" fill="url(#paint3_linear_11_703)"/>
<path d="M756.434 590.669C758.18 596.059 758.576 601.556 757.588 606.697C756.599 611.837 754.255 616.47 750.754 620.205C740.793 628.467 727.749 633.069 713.494 633.35C705.732 634.134 697.788 634.209 689.765 633.573C683.273 633.042 676.745 631.816 670.307 629.92L663.027 602.754C670.523 605.126 678.113 606.941 685.723 608.182C692.962 609.266 700.175 609.602 707.231 609.184C719.476 608.113 724.786 604.147 722.953 597.305C722.685 596.121 722.174 594.96 721.45 593.891C720.726 592.823 719.804 591.868 718.737 591.083C715.692 589.064 712.396 587.474 708.979 586.376L690.85 580.548C682.752 578.413 674.803 575.373 667.184 571.497C662.262 568.91 657.883 565.339 654.41 561.082C650.863 556.253 648.348 550.924 647.037 545.456C645.538 540.6 645.318 535.664 646.398 531.105C647.479 526.547 649.825 522.513 653.219 519.378C662.451 511.943 674.363 507.74 687.373 507.328C702.533 506.01 718.381 508.001 733.753 513.156L729.946 537.791C723.602 535.837 717.207 534.197 710.787 532.877C704.978 531.744 699.164 531.42 693.537 531.914C683.367 532.804 679.087 535.856 680.489 541.088C680.999 542.662 681.913 544.151 683.144 545.414C684.375 546.676 685.881 547.67 687.519 548.299C695.128 551.607 702.948 554.235 710.861 556.143C718.919 558.285 726.84 561.254 734.473 564.992C739.489 567.628 743.957 571.261 747.508 575.591C751.632 580.056 754.695 585.229 756.434 590.669Z" fill="url(#paint4_linear_11_703)"/>
</g>
<g clip-path="url(#clip1_11_703)">
<path d="M748.288 393.696L823.776 675.424L533.22 700.845L457.731 419.116L748.288 393.696ZM737.503 353.449L446.947 378.87C435.938 379.833 426.516 384.997 420.755 393.225C414.993 401.454 413.362 412.074 416.223 422.748L491.712 704.476C494.572 715.15 501.688 725.005 511.494 731.872C521.301 738.738 532.995 742.055 544.004 741.092L834.561 715.671C845.569 714.708 854.991 709.544 860.753 701.315C866.514 693.087 868.145 682.467 865.285 671.793L789.796 390.065C786.936 379.39 779.819 369.536 770.013 362.669C760.206 355.803 748.512 352.486 737.503 353.449Z" fill="white"/>
<path d="M634.786 516.282C637.19 523.543 637.885 530.956 636.822 537.968C635.758 544.981 632.962 551.409 628.644 556.774C617.88 567.737 602.585 573.974 585.56 574.342L570.824 575.631L585.868 631.776L551.209 634.808L508.773 476.436L560.866 471.879C576.634 469.406 593.75 472.426 609.245 480.415C615.889 484.538 621.66 489.929 626.095 496.158C630.53 502.386 633.507 509.278 634.786 516.282ZM563.491 548.263L574.698 547.283C582.977 546.963 590.475 544.066 596.064 539.029C598.247 536.714 599.678 533.816 600.227 530.602C600.776 527.387 600.425 523.958 599.205 520.63C598.647 517.391 597.341 514.191 595.38 511.263C593.42 508.335 590.856 505.753 587.873 503.704C580.735 500.032 572.847 498.679 565.609 499.885L550.874 501.174L563.491 548.263Z" fill="white"/>
<path d="M762.434 579.669C764.18 585.059 764.576 590.556 763.588 595.697C762.599 600.837 760.255 605.47 756.754 609.205C746.793 617.467 733.749 622.069 719.494 622.35C711.732 623.134 703.788 623.209 695.765 622.573C689.273 622.042 682.745 620.816 676.307 618.92L669.027 591.754C676.523 594.126 684.113 595.941 691.723 597.182C698.962 598.266 706.175 598.602 713.231 598.184C725.476 597.113 730.786 593.147 728.953 586.305C728.685 585.121 728.174 583.96 727.45 582.891C726.726 581.823 725.804 580.868 724.737 580.083C721.692 578.064 718.396 576.474 714.979 575.376L696.85 569.548C688.752 567.413 680.803 564.373 673.184 560.497C668.262 557.91 663.883 554.339 660.41 550.082C656.863 545.253 654.348 539.924 653.037 534.456C651.538 529.6 651.318 524.664 652.398 520.105C653.479 515.547 655.825 511.513 659.219 508.378C668.451 500.943 680.363 496.74 693.373 496.328C708.533 495.01 724.381 497.001 739.753 502.156L735.946 526.791C729.602 524.837 723.207 523.197 716.787 521.877C710.978 520.744 705.164 520.42 699.537 520.914C689.367 521.804 685.087 524.856 686.489 530.088C686.999 531.662 687.913 533.151 689.144 534.414C690.375 535.676 691.881 536.67 693.519 537.299C701.128 540.607 708.948 543.235 716.861 545.143C724.919 547.285 732.84 550.254 740.473 553.992C745.489 556.628 749.957 560.261 753.508 564.591C757.632 569.056 760.695 574.229 762.434 579.669Z" fill="white"/>
</g>
<defs>
<filter id="filter1_d_11_703" x="18" y="271.766" width="1064" height="985" filterUnits="userSpaceOnUse" color-interpolation-filters="sRGB">
<feFlood flood-opacity="0" result="BackgroundImageFix"/>
<feColorMatrix in="SourceAlpha" type="matrix" values="0 0 0 0 0 0 0 0 0 0 0 0 0 0 0 0 0 0 127 0" result="hardAlpha"/>
<feOffset dx="-59" dy="128"/>
<feGaussianBlur stdDeviation="50"/>
<feComposite in2="hardAlpha" operator="out"/>
<feColorMatrix type="matrix" values="0 0 0 0 0.497127 0 0 0 0 0.448822 0 0 0 0 0.448822 0 0 0 0.22 0"/>
<feBlend mode="normal" in2="BackgroundImageFix" result="effect1_dropShadow_11_703"/>
<feBlend mode="normal" in="SourceGraphic" in2="effect1_dropShadow_11_703" result="shape"/>
</filter>
<linearGradient id="paint0_linear_11_703" x1="1070.37" y1="557.071" x2="161.022" y2="924.363" gradientUnits="userSpaceOnUse">
<stop stop-color="#DD7521"/>
<stop offset="1" stop-color="#773F12"/>
</linearGradient>
<linearGradient id="paint1_linear_11_703" x1="570.61" y1="848.295" x2="203.698" y2="-203.456" gradientUnits="userSpaceOnUse">
<stop stop-color="#FA8220"/>
<stop offset="1" stop-color="#8C4A15"/>
</linearGradient>
<linearGradient id="paint2_linear_11_703" x1="800.5" y1="244" x2="351.202" y2="761.777" gradientUnits="userSpaceOnUse">
<stop stop-color="white"/>
<stop offset="1" stop-color="#483C3C"/>
</linearGradient>
<linearGradient id="paint3_linear_11_703" x1="587.778" y1="419.815" x2="388.77" y2="576.682" gradientUnits="userSpaceOnUse">
<stop stop-color="white"/>
<stop offset="1" stop-color="#483C3C"/>
</linearGradient>
<linearGradient id="paint4_linear_11_703" x1="710.414" y1="457.645" x2="547.796" y2="591.477" gradientUnits="userSpaceOnUse">
<stop stop-color="white"/>
<stop offset="1" stop-color="#483C3C"/>
</linearGradient>
<clipPath id="clip0_11_703">
<rect width="500" height="500" fill="white" transform="matrix(0.996195 -0.0871557 0.258819 0.965926 321 338.578)"/>
</clipPath>
<clipPath id="clip1_11_703">
<rect width="500" height="500" fill="white" transform="matrix(0.996195 -0.0871557 0.258819 0.965926 327 327.578)"/>
</clipPath>
</defs>
</svg>
