<svg width="1244" height="1352" viewBox="0 0 1244 1352" fill="none" xmlns="http://www.w3.org/2000/svg">
<g filter="url(#filter1_d_11_715)">
<path d="M1064.81 465.373C1080.92 405.256 1031.64 277.19 969.605 271.766L502.959 304.841C440.925 299.417 377.571 343.754 361.454 403.871L206.294 800.788C190.177 860.905 258.189 981.033 320.223 986.458L798.93 1028.32C860.964 1033.74 924.318 989.404 940.435 929.287L1064.81 465.373Z" fill="url(#paint0_linear_11_715)"/>
</g>
<rect width="705.706" height="705.706" rx="126" transform="matrix(-0.996195 -0.0871557 -0.258819 0.965926 1062.67 273.506)" fill="url(#paint1_linear_11_715)"/>
<rect width="672.983" height="655.062" rx="126" transform="matrix(-0.996195 -0.0871557 -0.258819 0.965926 1030.07 270.823)" fill="#FA8220"/>
<g clip-path="url(#clip0_11_715)">
<path fill-rule="evenodd" clip-rule="evenodd" d="M632.628 756.145C621.825 755.2 615.366 745.917 618.188 735.387C621.009 724.856 632.027 717.124 642.831 718.069C653.635 719.014 660.1 728.276 657.278 738.807C654.456 749.337 643.432 757.09 632.628 756.145ZM563.758 784.418C677.578 794.376 683.362 745.65 683.362 745.65L696.58 695.804L587.983 686.303L591.992 671.341L743.715 684.615C743.715 684.615 814.379 699.048 844.369 587.126C874.358 475.205 809.756 473.59 809.756 473.59L771.808 470.27L757.887 522.226C757.887 522.226 743.332 584.336 678.756 578.687L571.033 569.262C571.033 569.262 510.763 563.036 495.233 620.996L469.559 716.812C469.559 716.812 444.827 774.013 563.758 784.418ZM608.15 377.744C618.954 378.689 625.39 387.97 622.569 398.5C619.747 409.03 608.751 416.765 597.948 415.819C587.144 414.874 580.679 405.612 583.501 395.082C586.323 384.552 597.346 376.798 608.15 377.744ZM676.999 349.469C563.201 339.513 557.417 388.239 557.417 388.239L544.199 438.084L652.796 447.585L648.787 462.548L497.041 449.272C497.041 449.272 426.377 434.839 396.388 546.76C366.399 658.682 431.023 660.299 431.023 660.299L468.948 663.617L482.87 611.66C482.87 611.66 497.424 549.55 562.023 555.202L669.724 564.625C669.724 564.625 729.993 570.851 745.524 512.891L771.197 417.075C771.197 417.075 795.93 359.874 676.999 349.469Z" fill="url(#paint2_linear_11_715)"/>
</g>
<g clip-path="url(#clip1_11_715)">
<path fill-rule="evenodd" clip-rule="evenodd" d="M624.628 739.145C613.825 738.2 607.366 728.917 610.188 718.387C613.009 707.856 624.027 700.124 634.831 701.069C645.635 702.014 652.1 711.276 649.278 721.807C646.456 732.337 635.432 740.09 624.628 739.145ZM555.758 767.418C669.578 777.376 675.362 728.65 675.362 728.65L688.58 678.804L579.983 669.303L583.992 654.341L735.715 667.615C735.715 667.615 806.379 682.048 836.369 570.126C866.358 458.205 801.756 456.59 801.756 456.59L763.808 453.27L749.887 505.226C749.887 505.226 735.332 567.336 670.756 561.687L563.033 552.262C563.033 552.262 502.763 546.036 487.233 603.996L461.559 699.812C461.559 699.812 436.827 757.013 555.758 767.418ZM600.15 360.744C610.954 361.689 617.39 370.97 614.569 381.5C611.747 392.03 600.751 399.765 589.948 398.819C579.144 397.874 572.679 388.612 575.501 378.082C578.323 367.552 589.346 359.798 600.15 360.744ZM668.999 332.469C555.201 322.513 549.417 371.239 549.417 371.239L536.199 421.084L644.796 430.585L640.787 445.548L489.041 432.272C489.041 432.272 418.377 417.839 388.388 529.76C358.399 641.682 423.023 643.299 423.023 643.299L460.948 646.617L474.87 594.66C474.87 594.66 489.424 532.55 554.023 538.202L661.724 547.625C661.724 547.625 721.993 553.851 737.524 495.891L763.197 400.075C763.197 400.075 787.93 342.874 668.999 332.469Z" fill="white"/>
</g>
<defs>
<filter id="filter1_d_11_715" x="44.8926" y="271.766" width="1064" height="985" filterUnits="userSpaceOnUse" color-interpolation-filters="sRGB">
<feFlood flood-opacity="0" result="BackgroundImageFix"/>
<feColorMatrix in="SourceAlpha" type="matrix" values="0 0 0 0 0 0 0 0 0 0 0 0 0 0 0 0 0 0 127 0" result="hardAlpha"/>
<feOffset dx="-59" dy="128"/>
<feGaussianBlur stdDeviation="50"/>
<feComposite in2="hardAlpha" operator="out"/>
<feColorMatrix type="matrix" values="0 0 0 0 0.497127 0 0 0 0 0.448822 0 0 0 0 0.448822 0 0 0 0.22 0"/>
<feBlend mode="normal" in2="BackgroundImageFix" result="effect1_dropShadow_11_715"/>
<feBlend mode="normal" in="SourceGraphic" in2="effect1_dropShadow_11_715" result="shape"/>
</filter>
<linearGradient id="paint0_linear_11_715" x1="174.527" y1="557.071" x2="1083.87" y2="924.363" gradientUnits="userSpaceOnUse">
<stop stop-color="#DD7521"/>
<stop offset="1" stop-color="#773F12"/>
</linearGradient>
<linearGradient id="paint1_linear_11_715" x1="570.61" y1="848.295" x2="203.698" y2="-203.456" gradientUnits="userSpaceOnUse">
<stop stop-color="#FA8220"/>
<stop offset="1" stop-color="#8C4A15"/>
</linearGradient>
<linearGradient id="paint2_linear_11_715" x1="890.693" y1="320.946" x2="228.545" y2="713.285" gradientUnits="userSpaceOnUse">
<stop stop-color="white"/>
<stop offset="1" stop-color="#443D3D"/>
</linearGradient>
<clipPath id="clip0_11_715">
<rect width="450" height="450" fill="white" transform="matrix(0.996195 0.0871557 -0.258819 0.965926 454.469 330)"/>
</clipPath>
<clipPath id="clip1_11_715">
<rect width="450" height="450" fill="white" transform="matrix(0.996195 0.0871557 -0.258819 0.965926 446.469 313)"/>
</clipPath>
</defs>
</svg>
