<svg width="1244" height="1352" viewBox="0 0 1244 1352" fill="none" xmlns="http://www.w3.org/2000/svg">
<g filter="url(#filter1_d_11_715)">
<path d="M180.085 465.373C163.968 405.256 213.254 277.19 275.288 271.766L741.933 304.841C803.968 299.417 867.321 343.754 883.438 403.871L1038.6 800.788C1054.72 860.905 986.704 981.033 924.67 986.458L445.962 1028.32C383.928 1033.74 320.574 989.404 304.457 929.287L180.085 465.373Z" fill="url(#paint0_linear_11_715)"/>
</g>
<rect width="705.706" height="705.706" rx="126" transform="matrix(0.996195 -0.0871557 0.258819 0.965926 182.221 273.506)" fill="url(#paint1_linear_11_715)"/>
<rect width="672.983" height="655.062" rx="126" transform="matrix(0.996195 -0.0871557 0.258819 0.965926 214.82 270.823)" fill="#FA8220"/>
<g clip-path="url(#clip0_11_715)">
<path fill-rule="evenodd" clip-rule="evenodd" d="M746.137 736.383C735.334 737.328 724.31 729.575 721.489 719.045C718.667 708.514 725.131 699.252 735.935 698.307C746.739 697.362 757.757 705.094 760.579 715.625C763.401 726.155 756.941 735.438 746.137 736.383ZM695.226 775.135C809.046 765.178 789.052 717.695 789.052 717.695L775.564 667.873L666.966 677.374L662.957 662.411L814.68 649.137C814.68 649.137 889.665 650.828 859.675 538.906C829.686 426.984 767.199 436.489 767.199 436.489L729.25 439.809L743.172 491.765C743.172 491.765 761.807 553.518 697.231 559.168L589.507 568.592C589.507 568.592 528.739 572.956 544.269 630.916L569.943 726.731C569.943 726.731 576.295 785.541 695.226 775.135ZM524.641 379.502C535.444 378.557 546.446 386.312 549.268 396.842C552.089 407.372 545.647 416.632 534.843 417.578C524.039 418.523 513.021 410.79 510.2 400.26C507.378 389.73 513.837 380.447 524.641 379.502ZM575.53 340.751C461.732 350.707 481.727 398.19 481.727 398.19L495.215 448.012L603.812 438.511L607.822 453.474L456.076 466.75C456.076 466.75 381.091 465.059 411.081 576.98C441.07 688.902 503.58 679.396 503.58 679.396L541.506 676.078L527.584 624.122C527.584 624.122 508.95 562.369 573.548 556.717L681.249 547.294C681.249 547.294 742.017 542.931 726.487 484.971L700.813 389.155C700.813 389.155 694.461 330.346 575.53 340.751Z" fill="url(#paint2_linear_11_715)"/>
</g>
<g clip-path="url(#clip1_11_715)">
<path fill-rule="evenodd" clip-rule="evenodd" d="M751.137 719.383C740.334 720.328 729.31 712.575 726.489 702.045C723.667 691.514 730.131 682.252 740.935 681.307C751.739 680.362 762.757 688.094 765.579 698.625C768.401 709.155 761.941 718.438 751.137 719.383ZM700.226 758.135C814.046 748.178 794.052 700.695 794.052 700.695L780.564 650.873L671.966 660.374L667.957 645.411L819.68 632.137C819.68 632.137 894.665 633.828 864.675 521.906C834.686 409.984 772.199 419.489 772.199 419.489L734.25 422.809L748.172 474.765C748.172 474.765 766.807 536.518 702.231 542.168L594.507 551.592C594.507 551.592 533.739 555.956 549.269 613.916L574.943 709.731C574.943 709.731 581.295 768.541 700.226 758.135ZM529.641 362.502C540.444 361.557 551.446 369.312 554.268 379.842C557.089 390.372 550.647 399.632 539.843 400.578C529.039 401.523 518.021 393.79 515.2 383.26C512.378 372.73 518.837 363.447 529.641 362.502ZM580.53 323.751C466.732 333.707 486.727 381.19 486.727 381.19L500.215 431.012L608.812 421.511L612.822 436.474L461.076 449.75C461.076 449.75 386.091 448.059 416.081 559.98C446.07 671.902 508.58 662.396 508.58 662.396L546.506 659.078L532.584 607.122C532.584 607.122 513.95 545.369 578.548 539.717L686.249 530.294C686.249 530.294 747.017 525.931 731.487 467.971L705.813 372.155C705.813 372.155 699.461 313.346 580.53 323.751Z" fill="white"/>
</g>
<defs>
<filter id="filter1_d_11_715" x="18" y="271.766" width="1064" height="985" filterUnits="userSpaceOnUse" color-interpolation-filters="sRGB">
<feFlood flood-opacity="0" result="BackgroundImageFix"/>
<feColorMatrix in="SourceAlpha" type="matrix" values="0 0 0 0 0 0 0 0 0 0 0 0 0 0 0 0 0 0 127 0" result="hardAlpha"/>
<feOffset dx="-59" dy="128"/>
<feGaussianBlur stdDeviation="50"/>
<feComposite in2="hardAlpha" operator="out"/>
<feColorMatrix type="matrix" values="0 0 0 0 0.497127 0 0 0 0 0.448822 0 0 0 0 0.448822 0 0 0 0.22 0"/>
<feBlend mode="normal" in2="BackgroundImageFix" result="effect1_dropShadow_11_715"/>
<feBlend mode="normal" in="SourceGraphic" in2="effect1_dropShadow_11_715" result="shape"/>
</filter>
<linearGradient id="paint0_linear_11_715" x1="1070.37" y1="557.071" x2="161.022" y2="924.363" gradientUnits="userSpaceOnUse">
<stop stop-color="#DD7521"/>
<stop offset="1" stop-color="#773F12"/>
</linearGradient>
<linearGradient id="paint1_linear_11_715" x1="570.61" y1="848.295" x2="203.698" y2="-203.456" gradientUnits="userSpaceOnUse">
<stop stop-color="#FA8220"/>
<stop offset="1" stop-color="#8C4A15"/>
</linearGradient>
<linearGradient id="paint2_linear_11_715" x1="764.5" y1="277" x2="365.717" y2="786.184" gradientUnits="userSpaceOnUse">
<stop stop-color="white"/>
<stop offset="1" stop-color="#443D3D"/>
</linearGradient>
<clipPath id="clip0_11_715">
<rect width="450" height="450" fill="white" transform="matrix(0.996195 -0.0871557 0.258819 0.965926 353 360.22)"/>
</clipPath>
<clipPath id="clip1_11_715">
<rect width="450" height="450" fill="white" transform="matrix(0.996195 -0.0871557 0.258819 0.965926 358 343.22)"/>
</clipPath>
</defs>
</svg>
