<svg width="1244" height="1352" viewBox="0 0 1244 1352" fill="none" xmlns="http://www.w3.org/2000/svg">
<g filter="url(#filter1_d_11_723)">
<path d="M180.085 465.373C163.968 405.256 213.254 277.19 275.288 271.766L741.933 304.841C803.968 299.417 867.321 343.754 883.438 403.871L1038.6 800.788C1054.72 860.905 986.704 981.033 924.67 986.458L445.962 1028.32C383.928 1033.74 320.574 989.404 304.457 929.287L180.085 465.373Z" fill="url(#paint0_linear_11_723)"/>
</g>
<rect width="705.706" height="705.706" rx="126" transform="matrix(0.996195 -0.0871557 0.258819 0.965926 182.221 273.506)" fill="url(#paint1_linear_11_723)"/>
<rect width="672.983" height="655.062" rx="126" transform="matrix(0.996195 -0.0871557 0.258819 0.965926 214.82 270.823)" fill="#FA8220"/>
<g clip-path="url(#clip0_11_723)">
<path d="M491.166 396.966C484.526 402.023 479.537 414.802 485.632 441.192C488.527 453.727 480.331 464.446 467.327 465.134C454.322 465.822 441.433 456.219 438.537 443.684C431.066 411.331 432.986 378.322 457.311 359.797C481.706 341.22 517.689 345.539 551.236 358.202C564.19 363.092 572.168 376.429 569.054 387.991C565.94 399.554 552.915 404.963 539.961 400.074C512.545 389.725 497.826 391.894 491.166 396.966ZM626.882 425.281C634.674 416.435 649.752 416.486 660.558 425.395C683.229 444.083 705.956 465.666 727.745 489.59C774.704 541.142 809.601 595.116 827.507 641.382C836.445 664.477 841.572 686.75 841.055 706.282C840.533 725.964 834.156 744.294 818.432 756.266C799.409 770.754 773.091 771.237 747.202 764.957C721.22 758.654 692.539 744.923 663.727 726.35C651.945 718.753 647.434 704.492 653.654 694.498C659.873 684.503 674.465 682.556 686.248 690.154C711.633 706.518 734.103 716.724 751.777 721.013C769.544 725.322 779.386 723.053 784.577 719.098C788.928 715.786 792.513 709.498 792.823 697.753C793.138 685.862 789.966 669.897 782.446 650.465C767.433 611.676 736.788 563.433 693.372 515.767C673.403 493.844 652.724 474.231 632.339 457.427C621.533 448.518 619.089 434.126 626.882 425.281Z" fill="url(#paint2_linear_11_723)"/>
<path d="M838.769 546.772C836.425 538.026 826.298 525.675 799.54 513.735C786.831 508.064 779.767 494.387 783.763 483.187C787.758 471.987 801.3 467.506 814.009 473.177C846.813 487.816 876.88 510.645 885.465 542.687C894.075 574.819 877.225 601.802 853.468 621.403C844.293 628.971 829.023 626.989 819.362 616.973C809.7 606.956 809.306 592.702 818.477 585.133C837.893 569.116 841.119 555.545 838.769 546.772ZM764.006 640.808C769.469 652.947 764.047 665.386 751.894 668.593C726.404 675.318 698.193 680.227 668.137 682.857C603.37 688.523 540.647 682.661 491.162 667.697C466.458 660.229 443.882 650.138 425.869 637.142C407.718 624.045 392.917 606.974 387.368 586.264C380.654 561.208 389.587 539.126 404.667 521.754C419.801 504.319 442.817 489.43 470.393 477.551C481.67 472.693 496.563 478.139 503.657 489.715C510.752 501.291 507.361 514.613 496.084 519.471C471.788 529.937 454.269 541.956 443.974 553.816C433.624 565.739 432.232 575.34 434.065 582.179C435.6 587.908 440.179 594.92 451.009 602.734C461.976 610.647 477.981 618.296 498.764 624.58C540.252 637.122 596.121 642.818 656.005 637.579C683.548 635.169 709.192 630.686 732.113 624.637C744.266 621.433 758.546 628.673 764.006 640.808Z" fill="url(#paint3_linear_11_723)"/>
<path d="M582.91 736.742C591.894 740.432 607.01 740.002 627.673 725.553C637.488 718.689 652.748 721.648 661.757 732.157C670.767 742.67 670.114 756.755 660.299 763.619C634.967 781.332 602.98 791.513 570.069 777.995C537.065 764.441 517.933 733.137 508.142 700.873C504.362 688.415 511.654 677.063 524.429 675.516C537.204 673.969 550.626 682.813 554.406 695.272C562.408 721.64 573.9 733.041 582.91 736.742ZM521.957 614.389C508.702 611.097 499.047 598.607 500.392 586.492C503.214 561.079 508.696 534.585 516.962 508.031C534.773 450.813 562.597 402.704 594.177 371.4C609.943 355.772 627.392 343.591 645.923 337.055C664.593 330.469 685.775 329.212 707.045 337.948C732.782 348.518 750.17 370.117 760.977 393.769C771.824 417.507 777.491 446.125 778.725 476.58C779.229 489.033 768.847 497.848 755.536 496.267C742.221 494.686 731.019 483.309 730.515 470.855C729.423 444.023 724.472 421.798 717.096 405.65C709.678 389.417 701.227 382.088 694.203 379.203C688.321 376.786 680.155 376.062 669.015 379.991C657.732 383.971 644.901 392.288 631.637 405.435C605.161 431.68 579.936 474.227 563.469 527.132C555.894 551.465 550.93 575.562 548.392 598.415C547.047 610.529 535.211 617.681 521.957 614.389Z" fill="url(#paint4_linear_11_723)"/>
<path d="M680.716 556.294C686.789 578.955 672.764 598.984 649.392 601.029C626.02 603.074 602.151 586.36 596.079 563.698C590.006 541.037 604.031 521.008 627.403 518.963C650.775 516.918 674.644 533.632 680.716 556.294Z" fill="url(#paint5_linear_11_723)"/>
</g>
<g clip-path="url(#clip1_11_723)">
<path d="M502.166 380.966C495.526 386.023 490.537 398.802 496.632 425.192C499.527 437.727 491.331 448.446 478.327 449.134C465.322 449.822 452.433 440.219 449.537 427.684C442.066 395.331 443.986 362.322 468.311 343.797C492.706 325.22 528.689 329.539 562.236 342.202C575.19 347.092 583.168 360.429 580.054 371.991C576.94 383.554 563.915 388.963 550.961 384.074C523.545 373.725 508.826 375.894 502.166 380.966ZM637.882 409.281C645.674 400.435 660.752 400.486 671.558 409.395C694.229 428.083 716.956 449.666 738.745 473.59C785.704 525.142 820.601 579.116 838.507 625.382C847.445 648.477 852.572 670.75 852.055 690.282C851.533 709.964 845.156 728.294 829.432 740.266C810.409 754.754 784.091 755.237 758.202 748.957C732.22 742.654 703.539 728.923 674.727 710.35C662.945 702.753 658.434 688.492 664.654 678.498C670.873 668.503 685.465 666.556 697.248 674.154C722.633 690.518 745.103 700.724 762.777 705.013C780.544 709.322 790.386 707.053 795.577 703.098C799.928 699.786 803.513 693.498 803.823 681.753C804.138 669.862 800.966 653.897 793.446 634.465C778.433 595.676 747.788 547.433 704.372 499.767C684.403 477.844 663.724 458.231 643.339 441.427C632.533 432.518 630.089 418.126 637.882 409.281Z" fill="white"/>
<path d="M849.769 530.772C847.425 522.026 837.298 509.675 810.54 497.735C797.831 492.064 790.767 478.387 794.763 467.187C798.758 455.987 812.3 451.506 825.009 457.177C857.813 471.816 887.88 494.645 896.465 526.687C905.075 558.819 888.225 585.802 864.468 605.403C855.293 612.971 840.023 610.989 830.362 600.973C820.7 590.956 820.306 576.702 829.477 569.133C848.893 553.116 852.119 539.545 849.769 530.772ZM775.006 624.808C780.469 636.947 775.047 649.386 762.894 652.593C737.404 659.318 709.193 664.227 679.137 666.857C614.37 672.523 551.647 666.661 502.162 651.697C477.458 644.229 454.882 634.138 436.869 621.142C418.718 608.045 403.917 590.974 398.368 570.264C391.654 545.208 400.587 523.126 415.667 505.754C430.801 488.319 453.817 473.43 481.393 461.551C492.67 456.693 507.563 462.139 514.657 473.715C521.752 485.291 518.361 498.613 507.084 503.471C482.788 513.937 465.269 525.956 454.974 537.816C444.624 549.739 443.232 559.34 445.065 566.179C446.6 571.908 451.179 578.92 462.009 586.734C472.976 594.647 488.981 602.296 509.764 608.58C551.252 621.122 607.121 626.818 667.005 621.579C694.548 619.169 720.192 614.686 743.113 608.637C755.266 605.433 769.546 612.673 775.006 624.808Z" fill="white"/>
<path d="M593.91 720.742C602.894 724.432 618.01 724.002 638.673 709.553C648.488 702.689 663.748 705.648 672.757 716.157C681.767 726.67 681.114 740.755 671.299 747.619C645.967 765.332 613.98 775.513 581.069 761.995C548.065 748.441 528.933 717.137 519.142 684.873C515.362 672.415 522.654 661.063 535.429 659.516C548.204 657.969 561.626 666.813 565.406 679.272C573.408 705.64 584.9 717.041 593.91 720.742ZM532.957 598.389C519.702 595.097 510.047 582.607 511.392 570.492C514.214 545.079 519.696 518.585 527.962 492.031C545.773 434.813 573.597 386.704 605.177 355.4C620.943 339.772 638.392 327.591 656.923 321.055C675.593 314.469 696.775 313.212 718.045 321.948C743.782 332.518 761.17 354.117 771.977 377.769C782.824 401.507 788.491 430.125 789.725 460.58C790.229 473.033 779.847 481.848 766.536 480.267C753.221 478.686 742.019 467.309 741.515 454.855C740.423 428.023 735.472 405.798 728.096 389.65C720.678 373.417 712.227 366.088 705.203 363.203C699.321 360.786 691.155 360.062 680.015 363.991C668.732 367.971 655.901 376.288 642.637 389.435C616.161 415.68 590.936 458.227 574.469 511.132C566.894 535.465 561.93 559.562 559.392 582.415C558.047 594.529 546.211 601.681 532.957 598.389Z" fill="white"/>
<path d="M691.716 540.294C697.789 562.955 683.764 582.984 660.392 585.029C637.02 587.074 613.151 570.36 607.079 547.698C601.006 525.037 615.031 505.008 638.403 502.963C661.775 500.918 685.644 517.632 691.716 540.294Z" fill="white"/>
</g>
<defs>
<filter id="filter1_d_11_723" x="18" y="271.766" width="1064" height="985" filterUnits="userSpaceOnUse" color-interpolation-filters="sRGB">
<feFlood flood-opacity="0" result="BackgroundImageFix"/>
<feColorMatrix in="SourceAlpha" type="matrix" values="0 0 0 0 0 0 0 0 0 0 0 0 0 0 0 0 0 0 127 0" result="hardAlpha"/>
<feOffset dx="-59" dy="128"/>
<feGaussianBlur stdDeviation="50"/>
<feComposite in2="hardAlpha" operator="out"/>
<feColorMatrix type="matrix" values="0 0 0 0 0.497127 0 0 0 0 0.448822 0 0 0 0 0.448822 0 0 0 0.22 0"/>
<feBlend mode="normal" in2="BackgroundImageFix" result="effect1_dropShadow_11_723"/>
<feBlend mode="normal" in="SourceGraphic" in2="effect1_dropShadow_11_723" result="shape"/>
</filter>
<linearGradient id="paint0_linear_11_723" x1="1070.37" y1="557.071" x2="161.022" y2="924.363" gradientUnits="userSpaceOnUse">
<stop stop-color="#DD7521"/>
<stop offset="1" stop-color="#773F12"/>
</linearGradient>
<linearGradient id="paint1_linear_11_723" x1="570.61" y1="848.295" x2="203.698" y2="-203.456" gradientUnits="userSpaceOnUse">
<stop stop-color="#FA8220"/>
<stop offset="1" stop-color="#8C4A15"/>
</linearGradient>
<linearGradient id="paint2_linear_11_723" x1="798.5" y1="294" x2="386.185" y2="718.298" gradientUnits="userSpaceOnUse">
<stop stop-color="white"/>
<stop offset="1" stop-color="#302929"/>
</linearGradient>
<linearGradient id="paint3_linear_11_723" x1="735.5" y1="353.5" x2="383.733" y2="717.974" gradientUnits="userSpaceOnUse">
<stop stop-color="white"/>
<stop offset="1" stop-color="#302929"/>
</linearGradient>
<linearGradient id="paint4_linear_11_723" x1="686" y1="188.5" x2="273.623" y2="783.287" gradientUnits="userSpaceOnUse">
<stop stop-color="white"/>
<stop offset="1" stop-color="#302929"/>
</linearGradient>
<linearGradient id="paint5_linear_11_723" x1="692" y1="466" x2="556.59" y2="627.123" gradientUnits="userSpaceOnUse">
<stop stop-color="white"/>
<stop offset="1" stop-color="#302929"/>
</linearGradient>
<clipPath id="clip0_11_723">
<rect width="500" height="500" fill="white" transform="matrix(0.996195 -0.0871557 0.258819 0.965926 321 338.578)"/>
</clipPath>
<clipPath id="clip1_11_723">
<rect width="500" height="500" fill="white" transform="matrix(0.996195 -0.0871557 0.258819 0.965926 332 322.578)"/>
</clipPath>
</defs>
</svg>
