<svg width="1244" height="1352" viewBox="0 0 1244 1352" fill="none" xmlns="http://www.w3.org/2000/svg">
<g filter="url(#filter1_d_11_723)">
<path d="M1064.81 465.373C1080.92 405.256 1031.64 277.19 969.605 271.766L502.959 304.841C440.925 299.417 377.571 343.754 361.454 403.871L206.294 800.788C190.177 860.905 258.189 981.033 320.223 986.458L798.93 1028.32C860.964 1033.74 924.318 989.404 940.435 929.287L1064.81 465.373Z" fill="url(#paint0_linear_11_723)"/>
</g>
<rect width="705.706" height="705.706" rx="126" transform="matrix(-0.996195 -0.0871557 -0.258819 0.965926 1062.67 273.506)" fill="url(#paint1_linear_11_723)"/>
<rect width="672.983" height="655.062" rx="126" transform="matrix(-0.996195 -0.0871557 -0.258819 0.965926 1030.07 270.823)" fill="#FA8220"/>
<g clip-path="url(#clip0_11_723)">
<path d="M572.207 387.807C563.224 391.497 551.771 402.837 543.769 429.06C539.967 441.516 526.534 450.343 513.765 448.776C500.996 447.209 493.726 435.842 497.527 423.386C507.338 391.238 526.455 360.07 559.366 346.553C592.371 332.997 624.443 343.27 649.823 361.089C659.624 367.969 660.252 382.059 651.226 392.56C642.201 403.06 626.939 405.995 617.139 399.114C596.399 384.553 581.218 384.106 572.207 387.807ZM686.879 438.028C698.947 430.92 713.306 433.546 718.953 443.894C730.8 465.602 741.184 490.082 749.448 516.635C767.261 573.854 772.299 631.321 765.158 678.53C761.594 702.095 754.823 724.224 744.102 742.773C733.298 761.463 717.615 777.864 696.343 786.599C670.606 797.171 645.24 793.132 623.825 782.714C602.334 772.258 582.156 754.252 564.39 731.604C557.125 722.34 560.289 707.961 571.457 699.488C582.624 691.015 597.568 691.652 604.833 700.916C620.486 720.871 636.583 734.451 651.2 741.565C665.897 748.715 676.477 748.231 683.501 745.346C689.387 742.929 696.1 737.542 702.546 726.388C709.073 715.096 714.406 699.319 717.405 679.492C723.39 639.914 719.411 588.641 702.943 535.736C695.369 511.403 685.906 489.154 675.254 469.634C669.607 459.286 674.812 445.135 686.879 438.028Z" fill="url(#paint2_linear_11_723)"/>
<path d="M825.443 590.179C827.786 581.433 824.59 567.917 805.31 551.949C796.153 544.364 796.574 530.106 806.251 520.102C815.928 510.099 831.196 508.138 840.353 515.723C863.989 535.299 880.725 562.223 872.139 594.264C863.529 626.397 833.322 649.263 800.39 663.904C787.673 669.557 774.14 665.055 770.166 653.846C766.192 642.636 773.28 628.967 785.994 623.313C812.907 611.349 823.092 598.952 825.443 590.179ZM704.865 667.125C703.722 679.642 692.035 690.584 678.759 691.567C650.915 693.626 621.427 693.486 591.371 690.857C526.604 685.19 469.823 668.873 430.44 646.135C410.779 634.785 394.521 621.296 384.139 605.816C373.677 590.216 368.493 571.396 374.042 550.687C380.756 525.63 400.842 506.087 424.328 492.089C447.898 478.04 477.655 467.769 510.188 461.148C523.493 458.441 534.852 466.183 535.56 478.442C536.268 490.7 526.056 502.833 512.752 505.54C484.088 511.373 461.079 519.846 445.045 529.403C428.926 539.01 422.571 547.933 420.739 554.772C419.204 560.501 419.902 567.974 426.144 577.282C432.465 586.708 443.732 596.743 460.272 606.292C493.292 625.353 543.619 640.34 603.503 645.579C631.046 647.989 657.862 648.095 682.901 646.242C696.175 645.262 706.01 654.612 704.865 667.125Z" fill="url(#paint3_linear_11_723)"/>
<path d="M481.834 727.702C488.474 732.76 503.122 734.934 530.405 724.68C543.364 719.808 556.376 725.24 559.469 736.808C562.562 748.38 554.563 761.708 541.604 766.58C508.158 779.15 472.305 783.396 447.979 764.87C423.585 746.295 421.721 713.154 429.273 680.694C432.189 668.16 445.091 658.575 458.091 659.283C471.091 659.991 479.267 670.725 476.35 683.259C470.178 709.787 475.174 722.631 481.834 727.702ZM487.74 600.533C476.816 595.126 474.143 581.558 481.77 570.228C497.77 546.461 516.874 522.118 538.665 498.194C585.621 446.642 637.362 405.494 683.886 381.023C707.113 368.807 730.14 360.167 751.245 357.099C772.509 354.007 793.379 356.428 809.099 368.401C828.123 382.887 833.404 406.469 831.332 430.886C829.252 455.391 819.675 483.666 804.905 512.937C798.865 524.906 784.343 531.542 772.469 527.758C760.593 523.973 755.862 511.202 761.901 499.232C774.91 473.443 781.822 451.389 783.24 434.72C784.662 417.962 780.436 409.525 775.244 405.57C770.897 402.258 763.485 400.172 750.797 402.016C737.947 403.885 721.349 409.627 701.809 419.904C662.803 440.42 616.455 476.705 573.039 524.371C553.07 546.295 535.716 568.439 521.329 589.811C513.702 601.14 498.663 605.941 487.74 600.533Z" fill="url(#paint4_linear_11_723)"/>
<path d="M669.647 572.243C663.575 594.904 639.705 611.618 616.333 609.573C592.961 607.528 578.937 587.5 585.009 564.838C591.081 542.176 614.951 525.462 638.323 527.507C661.695 529.552 675.719 549.581 669.647 572.243Z" fill="url(#paint5_linear_11_723)"/>
</g>
<g clip-path="url(#clip1_11_723)">
<path d="M563.207 371.807C554.224 375.497 542.771 386.837 534.769 413.06C530.967 425.516 517.534 434.343 504.765 432.776C491.996 431.209 484.726 419.842 488.527 407.386C498.338 375.238 517.455 344.07 550.366 330.553C583.371 316.997 615.443 327.27 640.823 345.089C650.624 351.969 651.252 366.059 642.226 376.56C633.201 387.06 617.939 389.995 608.139 383.114C587.399 368.553 572.218 368.106 563.207 371.807ZM677.879 422.028C689.947 414.92 704.306 417.546 709.953 427.894C721.8 449.602 732.184 474.082 740.448 500.635C758.261 557.854 763.299 615.321 756.158 662.53C752.594 686.095 745.823 708.224 735.102 726.773C724.298 745.463 708.615 761.864 687.343 770.599C661.606 781.171 636.24 777.132 614.825 766.714C593.334 756.258 573.156 738.252 555.39 715.604C548.125 706.34 551.289 691.961 562.457 683.488C573.624 675.015 588.568 675.652 595.833 684.916C611.486 704.871 627.583 718.451 642.2 725.565C656.897 732.715 667.477 732.231 674.501 729.346C680.387 726.929 687.1 721.542 693.546 710.388C700.073 699.096 705.406 683.319 708.405 663.492C714.39 623.914 710.411 572.641 693.943 519.736C686.369 495.403 676.906 473.154 666.254 453.634C660.607 443.286 665.812 429.135 677.879 422.028Z" fill="white"/>
<path d="M816.443 574.179C818.786 565.433 815.59 551.917 796.31 535.949C787.153 528.364 787.574 514.106 797.251 504.102C806.928 494.099 822.196 492.138 831.353 499.723C854.989 519.299 871.725 546.223 863.139 578.264C854.529 610.397 824.322 633.263 791.39 647.904C778.673 653.557 765.14 649.055 761.166 637.846C757.192 626.636 764.28 612.967 776.994 607.313C803.907 595.349 814.092 582.952 816.443 574.179ZM695.865 651.125C694.722 663.642 683.035 674.584 669.759 675.567C641.915 677.626 612.427 677.486 582.371 674.857C517.604 669.19 460.823 652.873 421.44 630.135C401.779 618.785 385.521 605.296 375.139 589.816C364.677 574.216 359.493 555.396 365.042 534.687C371.756 509.63 391.842 490.087 415.328 476.089C438.898 462.04 468.655 451.769 501.188 445.148C514.493 442.441 525.852 450.183 526.56 462.442C527.268 474.7 517.056 486.833 503.752 489.54C475.088 495.373 452.079 503.846 436.045 513.403C419.926 523.01 413.571 531.933 411.739 538.772C410.204 544.501 410.902 551.974 417.144 561.282C423.465 570.708 434.732 580.743 451.272 590.292C484.292 609.353 534.619 624.34 594.503 629.579C622.046 631.989 648.862 632.095 673.901 630.242C687.175 629.262 697.01 638.612 695.865 651.125Z" fill="white"/>
<path d="M472.834 711.702C479.474 716.76 494.122 718.934 521.405 708.68C534.364 703.808 547.376 709.24 550.469 720.808C553.562 732.38 545.563 745.708 532.604 750.58C499.158 763.15 463.305 767.396 438.979 748.87C414.585 730.295 412.721 697.154 420.273 664.694C423.189 652.16 436.091 642.575 449.091 643.283C462.091 643.991 470.267 654.725 467.35 667.259C461.178 693.787 466.174 706.631 472.834 711.702ZM478.74 584.533C467.816 579.126 465.143 565.558 472.77 554.228C488.77 530.461 507.874 506.118 529.665 482.194C576.621 430.642 628.362 389.494 674.886 365.023C698.113 352.807 721.14 344.167 742.245 341.099C763.509 338.007 784.379 340.428 800.099 352.401C819.123 366.887 824.404 390.469 822.332 414.886C820.252 439.391 810.675 467.666 795.905 496.937C789.865 508.906 775.343 515.542 763.469 511.758C751.593 507.973 746.862 495.202 752.901 483.232C765.91 457.443 772.822 435.389 774.24 418.72C775.662 401.962 771.436 393.525 766.244 389.57C761.897 386.258 754.485 384.172 741.797 386.016C728.947 387.885 712.349 393.627 692.809 403.904C653.803 424.42 607.455 460.705 564.039 508.371C544.07 530.295 526.716 552.439 512.329 573.811C504.702 585.14 489.663 589.941 478.74 584.533Z" fill="white"/>
<path d="M660.647 556.243C654.575 578.904 630.705 595.618 607.333 593.573C583.961 591.528 569.937 571.5 576.009 548.838C582.081 526.176 605.951 509.462 629.323 511.507C652.695 513.552 666.719 533.581 660.647 556.243Z" fill="white"/>
</g>
<defs>
<filter id="filter1_d_11_723" x="44.8926" y="271.766" width="1064" height="985" filterUnits="userSpaceOnUse" color-interpolation-filters="sRGB">
<feFlood flood-opacity="0" result="BackgroundImageFix"/>
<feColorMatrix in="SourceAlpha" type="matrix" values="0 0 0 0 0 0 0 0 0 0 0 0 0 0 0 0 0 0 127 0" result="hardAlpha"/>
<feOffset dx="-59" dy="128"/>
<feGaussianBlur stdDeviation="50"/>
<feComposite in2="hardAlpha" operator="out"/>
<feColorMatrix type="matrix" values="0 0 0 0 0.497127 0 0 0 0 0.448822 0 0 0 0 0.448822 0 0 0 0.22 0"/>
<feBlend mode="normal" in2="BackgroundImageFix" result="effect1_dropShadow_11_723"/>
<feBlend mode="normal" in="SourceGraphic" in2="effect1_dropShadow_11_723" result="shape"/>
</filter>
<linearGradient id="paint0_linear_11_723" x1="174.527" y1="557.071" x2="1083.87" y2="924.363" gradientUnits="userSpaceOnUse">
<stop stop-color="#DD7521"/>
<stop offset="1" stop-color="#773F12"/>
</linearGradient>
<linearGradient id="paint1_linear_11_723" x1="570.61" y1="848.295" x2="203.698" y2="-203.456" gradientUnits="userSpaceOnUse">
<stop stop-color="#FA8220"/>
<stop offset="1" stop-color="#8C4A15"/>
</linearGradient>
<linearGradient id="paint2_linear_11_723" x1="919.377" y1="342.102" x2="274.272" y2="603.709" gradientUnits="userSpaceOnUse">
<stop stop-color="white"/>
<stop offset="1" stop-color="#302929"/>
</linearGradient>
<linearGradient id="paint3_linear_11_723" x1="828.107" y1="388.105" x2="276.565" y2="614.817" gradientUnits="userSpaceOnUse">
<stop stop-color="white"/>
<stop offset="1" stop-color="#302929"/>
</linearGradient>
<linearGradient id="paint4_linear_11_723" x1="867.273" y1="222.201" x2="164.002" y2="721.572" gradientUnits="userSpaceOnUse">
<stop stop-color="white"/>
<stop offset="1" stop-color="#302929"/>
</linearGradient>
<linearGradient id="paint5_linear_11_723" x1="727.693" y1="488.015" x2="506.796" y2="604.75" gradientUnits="userSpaceOnUse">
<stop stop-color="white"/>
<stop offset="1" stop-color="#302929"/>
</linearGradient>
<clipPath id="clip0_11_723">
<rect width="500" height="500" fill="white" transform="matrix(0.996195 0.0871557 -0.258819 0.965926 440.41 303)"/>
</clipPath>
<clipPath id="clip1_11_723">
<rect width="500" height="500" fill="white" transform="matrix(0.996195 0.0871557 -0.258819 0.965926 431.41 287)"/>
</clipPath>
</defs>
</svg>
