<svg width="1244" height="1352" viewBox="0 0 1244 1352" fill="none" xmlns="http://www.w3.org/2000/svg">
<g filter="url(#filter1_d_11_711)">
<path d="M1064.81 465.373C1080.92 405.256 1031.64 277.19 969.605 271.766L502.959 304.841C440.925 299.417 377.571 343.754 361.454 403.871L206.294 800.788C190.177 860.905 258.189 981.033 320.223 986.458L798.93 1028.32C860.964 1033.74 924.318 989.404 940.435 929.287L1064.81 465.373Z" fill="url(#paint0_linear_11_711)"/>
</g>
<rect width="705.706" height="705.706" rx="126" transform="matrix(-0.996195 -0.0871557 -0.258819 0.965926 1062.67 273.506)" fill="url(#paint1_linear_11_711)"/>
<rect width="672.983" height="655.062" rx="126" transform="matrix(-0.996195 -0.0871557 -0.258819 0.965926 1030.07 270.823)" fill="#FA8220"/>
<g clip-path="url(#clip0_11_711)">
<path d="M827.456 455.873C819.415 485.88 737.634 503.622 644.79 495.499C551.946 487.376 483.2 456.465 491.24 426.458M827.456 455.873C835.496 425.866 766.751 394.955 673.907 386.832C581.063 378.71 499.281 396.451 491.24 426.458M827.456 455.873L759.516 709.429C751.46 739.493 670.243 757.225 576.85 749.054C483.456 740.884 415.245 710.078 423.3 680.014L491.24 426.458M804.549 541.361C796.494 571.426 715.276 589.158 621.883 580.987C528.49 572.816 460.278 542.011 468.334 511.946M781.645 626.842C773.589 656.906 692.372 674.639 598.979 666.468C505.585 658.297 437.374 627.491 445.429 597.427" stroke="url(#paint2_linear_11_711)" stroke-width="66.6667" stroke-linecap="round" stroke-linejoin="round"/>
</g>
<g clip-path="url(#clip1_11_711)">
<path d="M817.456 436.873C809.415 466.88 727.634 484.622 634.79 476.499C541.946 468.376 473.2 437.465 481.24 407.458M817.456 436.873C825.496 406.866 756.751 375.955 663.907 367.832C571.063 359.71 489.281 377.451 481.24 407.458M817.456 436.873L749.516 690.429C741.46 720.493 660.243 738.225 566.85 730.054C473.456 721.884 405.245 691.078 413.3 661.014L481.24 407.458M794.549 522.361C786.494 552.426 705.276 570.158 611.883 561.987C518.49 553.816 450.278 523.011 458.334 492.946M771.645 607.842C763.589 637.906 682.372 655.639 588.979 647.468C495.585 639.297 427.374 608.491 435.429 578.427" stroke="white" stroke-width="66.6667" stroke-linecap="round" stroke-linejoin="round"/>
</g>
<defs>
<filter id="filter1_d_11_711" x="44.8926" y="271.766" width="1064" height="985" filterUnits="userSpaceOnUse" color-interpolation-filters="sRGB">
<feFlood flood-opacity="0" result="BackgroundImageFix"/>
<feColorMatrix in="SourceAlpha" type="matrix" values="0 0 0 0 0 0 0 0 0 0 0 0 0 0 0 0 0 0 127 0" result="hardAlpha"/>
<feOffset dx="-59" dy="128"/>
<feGaussianBlur stdDeviation="50"/>
<feComposite in2="hardAlpha" operator="out"/>
<feColorMatrix type="matrix" values="0 0 0 0 0.497127 0 0 0 0 0.448822 0 0 0 0 0.448822 0 0 0 0.22 0"/>
<feBlend mode="normal" in2="BackgroundImageFix" result="effect1_dropShadow_11_711"/>
<feBlend mode="normal" in="SourceGraphic" in2="effect1_dropShadow_11_711" result="shape"/>
</filter>
<linearGradient id="paint0_linear_11_711" x1="174.527" y1="557.071" x2="1083.87" y2="924.363" gradientUnits="userSpaceOnUse">
<stop stop-color="#DD7521"/>
<stop offset="1" stop-color="#773F12"/>
</linearGradient>
<linearGradient id="paint1_linear_11_711" x1="570.61" y1="848.295" x2="203.698" y2="-203.456" gradientUnits="userSpaceOnUse">
<stop stop-color="#FA8220"/>
<stop offset="1" stop-color="#8C4A15"/>
</linearGradient>
<linearGradient id="paint2_linear_11_711" x1="880.93" y1="314.952" x2="255.898" y2="770.848" gradientUnits="userSpaceOnUse">
<stop stop-color="white"/>
<stop offset="1" stop-color="#413939"/>
</linearGradient>
<clipPath id="clip0_11_711">
<rect width="450" height="450" fill="white" transform="matrix(0.996195 0.0871557 -0.258819 0.965926 459.469 331)"/>
</clipPath>
<clipPath id="clip1_11_711">
<rect width="450" height="450" fill="white" transform="matrix(0.996195 0.0871557 -0.258819 0.965926 449.469 312)"/>
</clipPath>
</defs>
</svg>
