<svg width="1244" height="1352" viewBox="0 0 1244 1352" fill="none" xmlns="http://www.w3.org/2000/svg">
<g filter="url(#filter1_d_11_711)">
<path d="M180.085 465.373C163.968 405.256 213.254 277.19 275.288 271.766L741.933 304.841C803.968 299.417 867.321 343.754 883.438 403.871L1038.6 800.788C1054.72 860.905 986.704 981.033 924.67 986.458L445.962 1028.32C383.928 1033.74 320.574 989.404 304.457 929.287L180.085 465.373Z" fill="url(#paint0_linear_11_711)"/>
</g>
<rect width="705.706" height="705.706" rx="126" transform="matrix(0.996195 -0.0871557 0.258819 0.965926 182.221 273.506)" fill="url(#paint1_linear_11_711)"/>
<rect width="672.983" height="655.062" rx="126" transform="matrix(0.996195 -0.0871557 0.258819 0.965926 214.819 270.823)" fill="#FA8220"/>
<g clip-path="url(#clip0_11_711)">
<path d="M764.515 426.458C772.556 456.465 703.81 487.376 610.966 495.499C518.123 503.622 436.34 485.881 428.3 455.873M764.515 426.458C756.475 396.451 674.693 378.709 581.849 386.832C489.006 394.955 420.259 425.866 428.3 455.873M764.515 426.458L832.455 680.014C840.511 710.078 772.299 740.884 678.906 749.054C585.513 757.225 504.296 739.493 496.24 709.429L428.3 455.873M787.422 511.946C795.478 542.011 727.266 572.816 633.873 580.987C540.479 589.158 459.262 571.426 451.206 541.361M810.326 597.427C818.382 627.491 750.17 658.297 656.777 666.468C563.384 674.639 482.166 656.906 474.111 626.842" stroke="url(#paint2_linear_11_711)" stroke-width="66.6667" stroke-linecap="round" stroke-linejoin="round"/>
</g>
<g clip-path="url(#clip1_11_711)">
<path d="M774.515 407.458C782.556 437.465 713.81 468.376 620.966 476.499C528.123 484.622 446.34 466.881 438.3 436.873M774.515 407.458C766.475 377.451 684.693 359.709 591.849 367.832C499.006 375.955 430.259 406.866 438.3 436.873M774.515 407.458L842.455 661.014C850.511 691.078 782.299 721.884 688.906 730.054C595.513 738.225 514.296 720.493 506.24 690.429L438.3 436.873M797.422 492.946C805.478 523.011 737.266 553.816 643.873 561.987C550.479 570.158 469.262 552.426 461.206 522.361M820.326 578.427C828.382 608.491 760.17 639.297 666.777 647.468C573.384 655.639 492.166 637.906 484.111 607.842" stroke="white" stroke-width="66.6667" stroke-linecap="round" stroke-linejoin="round"/>
</g>
<defs>
<filter id="filter1_d_11_711" x="18" y="271.766" width="1064" height="985" filterUnits="userSpaceOnUse" color-interpolation-filters="sRGB">
<feFlood flood-opacity="0" result="BackgroundImageFix"/>
<feColorMatrix in="SourceAlpha" type="matrix" values="0 0 0 0 0 0 0 0 0 0 0 0 0 0 0 0 0 0 127 0" result="hardAlpha"/>
<feOffset dx="-59" dy="128"/>
<feGaussianBlur stdDeviation="50"/>
<feComposite in2="hardAlpha" operator="out"/>
<feColorMatrix type="matrix" values="0 0 0 0 0.497127 0 0 0 0 0.448822 0 0 0 0 0.448822 0 0 0 0.22 0"/>
<feBlend mode="normal" in2="BackgroundImageFix" result="effect1_dropShadow_11_711"/>
<feBlend mode="normal" in="SourceGraphic" in2="effect1_dropShadow_11_711" result="shape"/>
</filter>
<linearGradient id="paint0_linear_11_711" x1="1070.37" y1="557.071" x2="161.022" y2="924.363" gradientUnits="userSpaceOnUse">
<stop stop-color="#DD7521"/>
<stop offset="1" stop-color="#773F12"/>
</linearGradient>
<linearGradient id="paint1_linear_11_711" x1="570.61" y1="848.295" x2="203.698" y2="-203.456" gradientUnits="userSpaceOnUse">
<stop stop-color="#FA8220"/>
<stop offset="1" stop-color="#8C4A15"/>
</linearGradient>
<linearGradient id="paint2_linear_11_711" x1="741.75" y1="282.85" x2="376.644" y2="819.672" gradientUnits="userSpaceOnUse">
<stop stop-color="white"/>
<stop offset="1" stop-color="#413939"/>
</linearGradient>
<clipPath id="clip0_11_711">
<rect width="450" height="450" fill="white" transform="matrix(0.996195 -0.0871557 0.258819 0.965926 348 370.22)"/>
</clipPath>
<clipPath id="clip1_11_711">
<rect width="450" height="450" fill="white" transform="matrix(0.996195 -0.0871557 0.258819 0.965926 358 351.22)"/>
</clipPath>
</defs>
</svg>
