<svg width="1244" height="1352" viewBox="0 0 1244 1352" fill="none" xmlns="http://www.w3.org/2000/svg">
<g filter="url(#filter1_d_11_719)">
<path d="M1064.81 465.373C1080.92 405.256 1031.64 277.19 969.605 271.766L502.959 304.841C440.925 299.417 377.571 343.754 361.454 403.871L206.294 800.788C190.177 860.905 258.189 981.033 320.223 986.458L798.93 1028.32C860.964 1033.74 924.318 989.404 940.435 929.287L1064.81 465.373Z" fill="url(#paint0_linear_11_719)"/>
</g>
<rect width="705.706" height="705.706" rx="126" transform="matrix(-0.996195 -0.0871557 -0.258819 0.965926 1062.67 273.506)" fill="url(#paint1_linear_11_719)"/>
<rect width="672.983" height="655.062" rx="126" transform="matrix(-0.996195 -0.0871557 -0.258819 0.965926 1030.07 270.823)" fill="#FA8220"/>
<g clip-path="url(#clip0_11_719)">
<path d="M488.496 367.818L862.069 400.501L765.012 762.723L391.439 730.04L488.496 367.818ZM630.646 686.299C633.744 698.01 640.565 708.055 650.287 715.227C660.009 722.398 672.219 726.391 685.448 726.723C718.654 729.628 748.035 715.105 756.284 684.316C764.534 653.527 750.258 642.598 723.931 626.702L716.184 622.317C702.706 614.753 698.234 610.037 700.822 600.378C701.394 598.317 702.401 596.32 703.779 594.516C705.157 592.711 706.875 591.137 708.826 589.895C710.777 588.652 712.917 587.767 715.11 587.296C717.304 586.825 719.504 586.778 721.569 587.159C726.442 587.532 730.835 589.325 734.17 592.3C737.505 595.275 739.627 599.294 740.255 603.828L772.134 588.699C769.754 579.603 764.45 571.811 756.874 566.281C749.299 560.751 739.782 557.726 729.496 557.577C723.18 556.395 716.452 556.523 709.738 557.952C703.024 559.382 696.472 562.081 690.5 565.879C684.527 569.676 679.265 574.489 675.047 580.011C670.829 585.532 667.749 591.641 666.001 597.949C658.56 625.72 672.028 639.667 693.76 652.896L701.506 657.28C715.861 665.539 724.275 670.6 721.148 682.272C718.021 693.943 707.333 698.157 692.805 696.886C685.621 696.408 679.064 693.981 673.887 689.885C668.71 685.789 665.123 680.19 663.538 673.73L630.584 687.323M651.552 551.994L547.782 542.915L539.694 573.1L570.825 575.824L531.732 721.719L568.052 724.896L607.144 579.001L643.464 582.179L651.552 551.994Z" fill="url(#paint2_linear_11_719)"/>
</g>
<g clip-path="url(#clip1_11_719)">
<path d="M476.496 353.818L850.069 386.501L753.012 748.723L379.439 716.04L476.496 353.818ZM618.646 672.299C621.744 684.01 628.565 694.055 638.287 701.227C648.009 708.398 660.219 712.391 673.448 712.723C706.654 715.628 736.035 701.105 744.284 670.316C752.534 639.527 738.258 628.598 711.931 612.702L704.184 608.317C690.706 600.753 686.234 596.037 688.822 586.378C689.394 584.317 690.401 582.32 691.779 580.516C693.157 578.711 694.875 577.137 696.826 575.895C698.777 574.652 700.917 573.767 703.11 573.296C705.304 572.825 707.504 572.778 709.569 573.159C714.442 573.532 718.835 575.325 722.17 578.3C725.505 581.275 727.627 585.294 728.255 589.828L760.134 574.699C757.754 565.603 752.45 557.811 744.874 552.281C737.299 546.751 727.782 543.726 717.496 543.577C711.18 542.395 704.452 542.523 697.738 543.952C691.024 545.382 684.472 548.081 678.5 551.879C672.527 555.676 667.265 560.489 663.047 566.011C658.829 571.532 655.749 577.641 654.001 583.949C646.56 611.72 660.028 625.667 681.76 638.896L689.506 643.28C703.861 651.539 712.275 656.6 709.148 668.272C706.021 679.943 695.333 684.157 680.805 682.886C673.621 682.408 667.064 679.981 661.887 675.885C656.71 671.789 653.123 666.19 651.538 659.73L618.584 673.323M639.552 537.994L535.782 528.915L527.694 559.1L558.825 561.824L519.732 707.719L556.052 710.896L595.144 565.001L631.464 568.179L639.552 537.994Z" fill="white"/>
</g>
<defs>
<filter id="filter1_d_11_719" x="44.8926" y="271.766" width="1064" height="985" filterUnits="userSpaceOnUse" color-interpolation-filters="sRGB">
<feFlood flood-opacity="0" result="BackgroundImageFix"/>
<feColorMatrix in="SourceAlpha" type="matrix" values="0 0 0 0 0 0 0 0 0 0 0 0 0 0 0 0 0 0 127 0" result="hardAlpha"/>
<feOffset dx="-59" dy="128"/>
<feGaussianBlur stdDeviation="50"/>
<feComposite in2="hardAlpha" operator="out"/>
<feColorMatrix type="matrix" values="0 0 0 0 0.497127 0 0 0 0 0.448822 0 0 0 0 0.448822 0 0 0 0.22 0"/>
<feBlend mode="normal" in2="BackgroundImageFix" result="effect1_dropShadow_11_719"/>
<feBlend mode="normal" in="SourceGraphic" in2="effect1_dropShadow_11_719" result="shape"/>
</filter>
<linearGradient id="paint0_linear_11_719" x1="174.527" y1="557.071" x2="1083.87" y2="924.363" gradientUnits="userSpaceOnUse">
<stop stop-color="#DD7521"/>
<stop offset="1" stop-color="#773F12"/>
</linearGradient>
<linearGradient id="paint1_linear_11_719" x1="570.61" y1="848.295" x2="203.698" y2="-203.456" gradientUnits="userSpaceOnUse">
<stop stop-color="#FA8220"/>
<stop offset="1" stop-color="#8C4A15"/>
</linearGradient>
<linearGradient id="paint2_linear_11_719" x1="823.319" y1="393.749" x2="249.37" y2="782.372" gradientUnits="userSpaceOnUse">
<stop stop-color="white"/>
<stop offset="1" stop-color="#3A3131"/>
</linearGradient>
<clipPath id="clip0_11_719">
<rect width="500" height="500" fill="white" transform="matrix(0.996195 0.0871557 -0.258819 0.965926 442.41 302)"/>
</clipPath>
<clipPath id="clip1_11_719">
<rect width="500" height="500" fill="white" transform="matrix(0.996195 0.0871557 -0.258819 0.965926 430.41 288)"/>
</clipPath>
</defs>
</svg>
