<svg width="1244" height="1352" viewBox="0 0 1244 1352" fill="none" xmlns="http://www.w3.org/2000/svg">
<g filter="url(#filter1_d_11_719)">
<path d="M180.085 465.373C163.968 405.256 213.254 277.19 275.288 271.766L741.933 304.841C803.968 299.417 867.321 343.754 883.438 403.871L1038.6 800.788C1054.72 860.905 986.704 981.033 924.67 986.458L445.962 1028.32C383.928 1033.74 320.574 989.404 304.457 929.287L180.085 465.373Z" fill="url(#paint0_linear_11_719)"/>
</g>
<rect width="705.706" height="705.706" rx="126" transform="matrix(0.996195 -0.0871557 0.258819 0.965926 182.221 273.506)" fill="url(#paint1_linear_11_719)"/>
<rect width="672.983" height="655.062" rx="126" transform="matrix(0.996195 -0.0871557 0.258819 0.965926 214.82 270.823)" fill="#FA8220"/>
<g clip-path="url(#clip0_11_719)">
<path d="M399.438 393.501L773.011 360.818L870.068 723.04L496.495 755.723L399.438 393.501ZM701.84 673.089C710.928 683.734 722.696 692.153 735.728 697.334C748.76 702.515 762.501 704.236 775.298 702.292C808.504 699.387 828.934 680.505 820.684 649.716C812.434 618.928 793.089 610.94 759.644 600.273L749.957 597.414C733.135 592.501 726.399 588.765 723.811 579.106C723.277 577.042 723.193 574.965 723.563 573.007C723.932 571.05 724.748 569.254 725.959 567.735C727.169 566.215 728.748 565.005 730.594 564.18C732.441 563.356 734.515 562.935 736.686 562.945C741.531 562.469 746.661 563.428 751.401 565.697C756.142 567.966 760.27 571.438 763.244 575.656L785.74 555.77C778.707 547.498 769.565 540.969 759.441 536.988C749.317 533.007 738.652 531.747 728.759 533.364C722.114 533.316 715.761 534.588 710.103 537.1C704.445 539.612 699.607 543.307 695.897 547.952C692.186 552.597 689.685 558.089 688.551 564.079C687.418 570.068 687.677 576.424 689.313 582.742C696.755 610.513 716.908 621.518 744.571 630.425L754.259 633.285C772.28 638.711 782.959 642.101 786.087 653.773C789.214 665.445 781.223 671.293 766.695 672.564C759.59 673.336 752.062 672.142 744.978 669.118C737.893 666.095 731.538 661.365 726.644 655.473L702.317 674.077M651.463 541.362L547.692 550.441L555.78 580.626L586.911 577.902L626.004 723.797L662.324 720.62L623.231 574.725L659.551 571.547L651.463 541.362Z" fill="url(#paint2_linear_11_719)"/>
</g>
<g clip-path="url(#clip1_11_719)">
<path d="M409.438 379.501L783.011 346.818L880.068 709.04L506.495 741.723L409.438 379.501ZM711.84 659.089C720.928 669.734 732.696 678.153 745.728 683.334C758.76 688.515 772.501 690.236 785.298 688.292C818.504 685.387 838.934 666.505 830.684 635.716C822.434 604.928 803.089 596.94 769.644 586.273L759.957 583.414C743.135 578.501 736.399 574.765 733.811 565.106C733.277 563.042 733.193 560.965 733.563 559.007C733.932 557.05 734.748 555.254 735.959 553.735C737.169 552.215 738.748 551.005 740.594 550.18C742.441 549.356 744.515 548.935 746.686 548.945C751.531 548.469 756.661 549.428 761.401 551.697C766.142 553.966 770.27 557.438 773.244 561.656L795.74 541.77C788.707 533.498 779.565 526.969 769.441 522.988C759.317 519.007 748.652 517.747 738.759 519.364C732.114 519.316 725.761 520.588 720.103 523.1C714.445 525.612 709.607 529.307 705.897 533.952C702.186 538.597 699.685 544.089 698.551 550.079C697.418 556.068 697.677 562.424 699.313 568.742C706.755 596.513 726.908 607.518 754.571 616.425L764.259 619.285C782.28 624.711 792.959 628.101 796.087 639.773C799.214 651.445 791.223 657.293 776.695 658.564C769.59 659.336 762.062 658.142 754.978 655.118C747.893 652.095 741.538 647.365 736.644 641.473L712.317 660.077M661.463 527.362L557.692 536.441L565.78 566.626L596.911 563.902L636.004 709.797L672.324 706.62L633.231 560.725L669.551 557.547L661.463 527.362Z" fill="white"/>
</g>
<defs>
<filter id="filter1_d_11_719" x="18" y="271.766" width="1064" height="985" filterUnits="userSpaceOnUse" color-interpolation-filters="sRGB">
<feFlood flood-opacity="0" result="BackgroundImageFix"/>
<feColorMatrix in="SourceAlpha" type="matrix" values="0 0 0 0 0 0 0 0 0 0 0 0 0 0 0 0 0 0 127 0" result="hardAlpha"/>
<feOffset dx="-59" dy="128"/>
<feGaussianBlur stdDeviation="50"/>
<feComposite in2="hardAlpha" operator="out"/>
<feColorMatrix type="matrix" values="0 0 0 0 0.497127 0 0 0 0 0.448822 0 0 0 0 0.448822 0 0 0 0.22 0"/>
<feBlend mode="normal" in2="BackgroundImageFix" result="effect1_dropShadow_11_719"/>
<feBlend mode="normal" in="SourceGraphic" in2="effect1_dropShadow_11_719" result="shape"/>
</filter>
<linearGradient id="paint0_linear_11_719" x1="1070.37" y1="557.071" x2="161.022" y2="924.363" gradientUnits="userSpaceOnUse">
<stop stop-color="#DD7521"/>
<stop offset="1" stop-color="#773F12"/>
</linearGradient>
<linearGradient id="paint1_linear_11_719" x1="570.61" y1="848.295" x2="203.698" y2="-203.456" gradientUnits="userSpaceOnUse">
<stop stop-color="#FA8220"/>
<stop offset="1" stop-color="#8C4A15"/>
</linearGradient>
<linearGradient id="paint2_linear_11_719" x1="732.5" y1="361" x2="393.641" y2="833.75" gradientUnits="userSpaceOnUse">
<stop stop-color="white"/>
<stop offset="1" stop-color="#3A3131"/>
</linearGradient>
<clipPath id="clip0_11_719">
<rect width="500" height="500" fill="white" transform="matrix(0.996195 -0.0871557 0.258819 0.965926 321 338.578)"/>
</clipPath>
<clipPath id="clip1_11_719">
<rect width="500" height="500" fill="white" transform="matrix(0.996195 -0.0871557 0.258819 0.965926 331 324.578)"/>
</clipPath>
</defs>
</svg>
